# Blender 5.0.0
# www.blender.org
mtllib player.mtl
o 立方体.001
v 0.415349 -0.355827 0.236692
v 0.415349 -0.222382 0.236126
v -0.415349 -0.355827 0.356767
v -0.415349 0.007905 0.345330
v 0.415349 -0.355827 0.000000
v 0.415349 -0.222382 0.000000
v 0.191881 -0.355827 0.276847
v 0.207675 -0.121594 0.277015
v 0.207674 -0.080908 0.000000
v 0.191881 -0.355827 0.000000
v -0.145901 -0.355827 0.324937
v -0.145901 -0.355827 0.000000
v 0.166089 -0.176524 0.287418
v -0.146923 -0.175076 0.333162
v -0.153069 -0.121986 0.218496
v -0.170262 0.004260 0.276101
v -0.190417 0.159131 0.000000
v 0.000000 -0.355827 0.301764
v 0.000000 -0.355827 0.000000
v 0.000000 -0.176524 0.309693
v -2.305500 0.174576 0.740307
v -2.305500 -0.355827 0.585083
v -2.305500 -0.355827 0.000000
v -2.305500 0.371443 0.000000
v -1.883909 -0.047940 1.331455
v -1.765784 -0.166254 1.690906
v -2.211565 -0.047940 1.331456
v -2.292337 -0.166254 1.690906
v -0.178382 0.077904 0.000000
v -0.157103 -0.096854 0.324692
v -0.184691 0.115136 0.166791
v -0.174048 0.021108 0.158481
v 0.186882 -0.149059 0.281940
v 0.207674 -0.089384 0.132482
v 0.191881 -0.121935 0.000000
v 0.168653 -0.176524 0.202529
v 0.189381 -0.147955 0.127577
v 0.008237 -0.063340 0.142563
v 0.007963 -0.021892 0.000000
v 0.003443 -0.158901 0.209204
v 0.311512 -0.151645 0.000000
v -2.305500 0.058420 0.604151
v -2.305500 -0.174025 0.607638
v -2.305500 -0.159994 0.133796
v -2.305500 0.091562 0.131876
v -2.607811 0.059350 0.656197
v -2.607611 -0.176255 0.657774
v -2.667210 -0.157751 0.187419
v -2.667184 0.090912 0.187628
v -2.597847 0.095562 0.734837
v -2.597579 -0.220446 0.736953
v -2.677516 -0.195627 0.106085
v -2.677481 0.137894 0.106364
v -2.960834 0.114253 0.768066
v -2.962299 -0.226602 0.756507
v -3.036512 -0.206421 0.170812
v -3.035047 0.134433 0.182371
v -2.305500 0.183382 0.376120
v -2.305500 -0.277504 0.382642
v -2.636714 -0.277520 0.428098
v -2.636728 0.183724 0.427982
v -2.636612 -0.356268 0.428897
v -2.636632 0.262380 0.428742
v -3.000138 -0.386939 0.457881
v -2.997208 0.294771 0.480998
v -2.305500 0.108671 0.675192
v -2.305500 -0.192025 0.617829
v -2.177420 0.339751 0.133366
v -2.177420 0.361224 0.000000
v -2.139174 0.238072 0.066769
v -1.254671 0.292013 0.000000
v -2.177420 0.228403 0.129629
v -2.177420 0.249876 0.000000
v -2.117432 1.175530 0.023492
v -1.254671 0.249876 0.000000
v -2.139174 0.248799 0.000000
v -1.354651 0.248186 0.000000
v -2.117432 1.175530 0.000000
v -1.937431 1.175530 0.000000
v -1.757429 1.175530 0.000000
v -2.965759 0.093383 0.729195
v -2.967033 -0.203105 0.719141
v -2.999947 -0.342572 0.459385
v -2.997399 0.250404 0.479493
v -3.030313 0.110936 0.219737
v -3.031587 -0.185551 0.209683
v -2.622167 0.093383 0.685659
v -2.623441 -0.203105 0.675605
v -2.656355 -0.342572 0.415848
v -2.653807 0.250404 0.435956
v -2.686721 0.110936 0.176200
v -2.687995 -0.185551 0.166146
v -2.192002 0.063318 0.740307
v -0.800090 -0.020017 0.423298
v -2.192002 -0.262250 0.663977
v -0.448646 -0.328374 0.356767
v 0.415349 -0.355827 -0.236692
v 0.415349 -0.222382 -0.236126
v -0.415349 -0.355827 -0.356767
v -0.415349 0.007905 -0.345330
v 0.191881 -0.355827 -0.276847
v 0.207675 -0.121594 -0.277015
v -0.145901 -0.355827 -0.324937
v 0.166089 -0.176524 -0.287418
v -0.146923 -0.175076 -0.333162
v -0.153069 -0.121986 -0.218496
v -0.170262 0.004260 -0.276101
v 0.000000 -0.355827 -0.301764
v 0.000000 -0.176524 -0.309693
v -2.305500 0.174576 -0.740307
v -2.305500 -0.355827 -0.585083
v -1.883909 -0.047940 -1.331455
v -1.765784 -0.166254 -1.690906
v -2.211565 -0.047940 -1.331456
v -2.292337 -0.166254 -1.690906
v -0.157103 -0.096854 -0.324692
v -0.184691 0.115136 -0.166791
v -0.174048 0.021108 -0.158481
v 0.186882 -0.149059 -0.281940
v 0.207674 -0.089384 -0.132482
v 0.168653 -0.176524 -0.202529
v 0.189381 -0.147955 -0.127577
v 0.008237 -0.063340 -0.142563
v 0.003443 -0.158901 -0.209204
v -2.305500 0.058420 -0.604151
v -2.305500 -0.174025 -0.607638
v -2.305500 -0.159994 -0.133796
v -2.305500 0.091562 -0.131876
v -2.607811 0.059350 -0.656197
v -2.607611 -0.176255 -0.657774
v -2.667210 -0.157751 -0.187419
v -2.667184 0.090912 -0.187628
v -2.597847 0.095562 -0.734837
v -2.597579 -0.220446 -0.736953
v -2.677516 -0.195627 -0.106085
v -2.677481 0.137894 -0.106364
v -2.960834 0.114253 -0.768066
v -2.962299 -0.226602 -0.756507
v -3.036512 -0.206421 -0.170812
v -3.035047 0.134433 -0.182371
v -2.305500 0.183382 -0.376120
v -2.305500 -0.277504 -0.382642
v -2.636714 -0.277520 -0.428098
v -2.636728 0.183724 -0.427982
v -2.636612 -0.356268 -0.428897
v -2.636632 0.262380 -0.428742
v -3.000138 -0.386939 -0.457881
v -2.997208 0.294771 -0.480998
v -2.305500 0.108671 -0.675192
v -2.305500 -0.192025 -0.617829
v -2.177420 0.339751 -0.133366
v -2.139174 0.238072 -0.066769
v -2.177420 0.228403 -0.129629
v -2.117432 1.175530 -0.023492
v -2.965759 0.093383 -0.729195
v -2.967033 -0.203105 -0.719141
v -2.999947 -0.342572 -0.459385
v -2.997399 0.250404 -0.479493
v -3.030313 0.110936 -0.219737
v -3.031587 -0.185551 -0.209683
v -2.622167 0.093383 -0.685659
v -2.623441 -0.203105 -0.675605
v -2.656355 -0.342572 -0.415848
v -2.653807 0.250404 -0.435956
v -2.686721 0.110936 -0.176200
v -2.687995 -0.185551 -0.166146
v -2.192002 0.063318 -0.740307
v -0.800090 -0.020017 -0.423298
v -2.192002 -0.262250 -0.663977
v -0.448646 -0.328374 -0.356767
vn 1.0000 -0.0000 -0.0000
vn 0.5622 0.8253 0.0528
vn -0.0000 -1.0000 -0.0000
vn -0.9995 0.0074 -0.0317
vn 0.1769 0.0042 0.9842
vn 0.1437 0.9468 0.2880
vn 0.9892 0.1466 0.0047
vn 0.2657 -0.0186 0.9639
vn 0.1567 -0.0436 0.9867
vn 0.9892 0.1463 0.0030
vn 0.1287 -0.0399 0.9909
vn -1.0000 -0.0000 -0.0000
vn 0.0990 0.9308 0.3519
vn -0.0000 0.9499 0.3127
vn 0.0906 0.9862 0.1384
vn 0.0753 0.9064 0.4156
vn 0.1173 0.0060 0.9931
vn 0.9934 0.1138 -0.0157
vn -0.7994 0.6004 -0.0241
vn -0.7980 0.6026 -0.0086
vn -0.9547 0.2947 0.0414
vn 0.3138 0.5325 0.7861
vn 0.1062 0.9943 0.0032
vn 0.2644 0.4057 0.8749
vn 0.4248 0.8695 0.2520
vn 0.4631 0.8513 0.2466
vn -0.1523 0.0008 -0.9883
vn 0.9921 -0.0000 -0.1257
vn -0.0687 -0.9021 -0.4260
vn 0.0834 0.8794 0.4687
vn 0.1637 0.0067 0.9865
vn 0.0104 0.8804 -0.4740
vn -0.9921 -0.0000 0.1257
vn 0.0534 0.0067 0.9985
vn -0.2079 0.0008 -0.9781
vn 0.1110 -0.8814 0.4592
vn -0.0523 -0.8967 -0.4396
vn 0.0881 0.8793 0.4680
vn -0.0544 0.9338 -0.3537
vn 0.0723 -0.9160 0.3947
vn -0.1413 0.0332 -0.9894
vn 0.0785 0.9842 0.1585
vn 0.0002 0.9884 0.1521
vn 0.0651 0.0445 0.9969
vn 0.0278 0.9870 0.1586
vn -0.0000 1.0000 -0.0000
vn -0.9997 0.0235 -0.0000
vn -0.0591 0.8826 -0.4664
vn 0.1256 -0.0342 0.9915
vn 0.0665 0.8484 0.5251
vn 0.0591 -0.8826 0.4664
vn -0.1256 0.0342 -0.9915
vn -0.0665 -0.8484 -0.5251
vn 0.5393 0.8421 -0.0000
vn 0.2719 0.0058 0.9623
vn 0.0855 -0.7008 0.7082
vn -0.2184 -0.2228 0.9501
vn 0.2011 -0.0384 0.9788
vn -0.0000 -0.9957 0.0931
vn 0.6125 0.5829 0.5339
vn -0.2191 0.3993 0.8902
vn 0.5622 0.8253 -0.0528
vn -0.9995 0.0074 0.0317
vn 0.1769 0.0042 -0.9842
vn 0.1437 0.9468 -0.2880
vn 0.9892 0.1466 -0.0047
vn 0.2657 -0.0186 -0.9639
vn 0.1567 -0.0436 -0.9867
vn 0.9892 0.1463 -0.0030
vn 0.1287 -0.0399 -0.9909
vn 0.1200 0.9610 -0.2494
vn -0.0000 0.9499 -0.3127
vn 0.0906 0.9862 -0.1384
vn 0.2359 0.9558 -0.1757
vn 0.1173 0.0060 -0.9931
vn 0.9934 0.1138 0.0157
vn -0.8207 0.5713 0.0092
vn -0.9540 0.2925 -0.0652
vn -0.9330 0.3592 -0.0230
vn 0.3138 0.5325 -0.7861
vn 0.1062 0.9943 -0.0032
vn 0.2644 0.4057 -0.8749
vn 0.4248 0.8695 -0.2520
vn 0.4631 0.8513 -0.2466
vn -0.1467 -0.0076 0.9892
vn 0.9921 -0.0000 0.1257
vn -0.0687 -0.9021 0.4260
vn 0.0759 0.8744 -0.4792
vn 0.1697 0.0148 -0.9854
vn -0.0834 0.9331 0.3498
vn -0.9921 -0.0000 -0.1257
vn 0.0534 0.0067 -0.9985
vn -0.2079 0.0008 0.9781
vn 0.0369 -0.9161 -0.3992
vn -0.0523 -0.8967 0.4396
vn 0.0881 0.8793 -0.4680
vn -0.0544 0.9338 0.3537
vn 0.0573 -0.9070 -0.4172
vn -0.1413 0.0332 0.9894
vn -0.0285 0.9660 -0.2569
vn -0.0169 0.9988 -0.0453
vn 0.0843 0.0366 -0.9958
vn 0.0192 0.9864 -0.1634
vn -0.9997 0.0234 -0.0038
vn -0.0591 0.8826 0.4664
vn 0.1256 -0.0342 -0.9915
vn 0.0665 0.8484 -0.5251
vn 0.0591 -0.8826 -0.4664
vn -0.1256 0.0342 0.9915
vn -0.0665 -0.8484 0.5251
vn 0.4589 0.8672 -0.1933
vn 0.1976 0.0138 -0.9802
vn 0.0855 -0.7008 -0.7082
vn -0.3993 -0.2575 -0.8799
vn 0.2011 -0.0384 -0.9788
vn -0.0199 -0.9947 -0.1012
vn 0.1862 0.9498 -0.2514
vn -0.2191 0.3993 -0.8902
vn -0.9508 0.2857 -0.1196
vn 0.1869 -0.0133 0.9823
vn 0.2036 0.7007 0.6838
vn 0.0809 0.8049 0.5879
vn 0.9937 0.1114 0.0127
vn -0.7973 0.6036 -0.0000
vn 0.1572 -0.0440 0.9866
vn 0.9915 0.1298 0.0070
vn 0.1328 -0.0438 0.9902
vn 0.1200 0.9610 0.2494
vn -0.0000 0.9827 0.1850
vn 0.2359 0.9558 0.1757
vn -0.7768 -0.0330 0.6289
vn 0.9924 0.1222 -0.0144
vn -0.8207 0.5713 -0.0092
vn -0.9540 0.2925 0.0652
vn -0.9330 0.3592 0.0230
vn 0.1133 0.9176 0.3811
vn 0.0233 0.9846 0.1735
vn 0.1795 0.5567 0.8111
vn 0.4518 0.8437 0.2900
vn 0.4284 0.8837 0.1886
vn -0.1467 -0.0076 -0.9892
vn -0.0601 -0.8967 -0.4386
vn 0.0759 0.8744 0.4792
vn 0.1697 0.0148 0.9854
vn -0.0834 0.9331 -0.3498
vn 0.0894 -0.0341 0.9954
vn -0.1783 0.0341 -0.9834
vn 0.0369 -0.9161 0.3992
vn 0.0286 -0.8446 -0.5347
vn 0.1502 0.8454 0.5126
vn -0.0558 0.9346 -0.3513
vn 0.0573 -0.9070 0.4172
vn -0.1391 -0.0000 -0.9903
vn -0.0285 0.9660 0.2569
vn -0.0169 0.9988 0.0453
vn 0.0843 0.0366 0.9958
vn 0.0192 0.9864 0.1634
vn -0.9997 0.0234 0.0038
vn 0.4589 0.8672 0.1933
vn 0.1976 0.0138 0.9802
vn 0.1774 0.2152 0.9603
vn -0.3993 -0.2575 0.8799
vn 0.2292 0.2338 0.9449
vn -0.0199 -0.9947 0.1012
vn 0.1862 0.9498 0.2514
vn 0.0558 0.0677 0.9961
vn -0.9508 0.2857 0.1196
vn 0.1869 -0.0133 -0.9823
vn 0.0809 0.8049 -0.5879
vn 0.2036 0.7007 -0.6838
vn 0.9937 0.1114 -0.0127
vn 0.1572 -0.0440 -0.9866
vn 0.9915 0.1298 -0.0070
vn 0.1328 -0.0438 -0.9902
vn 0.0990 0.9308 -0.3519
vn -0.0000 0.9827 -0.1850
vn 0.0753 0.9064 -0.4156
vn -0.7768 -0.0330 -0.6289
vn 0.9924 0.1222 0.0144
vn -0.7994 0.6004 0.0241
vn -0.7980 0.6026 0.0086
vn -0.9547 0.2947 -0.0414
vn 0.1133 0.9176 -0.3811
vn 0.0233 0.9846 -0.1735
vn 0.1795 0.5567 -0.8111
vn 0.4518 0.8437 -0.2900
vn 0.4284 0.8837 -0.1886
vn -0.1523 0.0008 0.9883
vn -0.0601 -0.8967 0.4386
vn 0.0834 0.8794 -0.4687
vn 0.1637 0.0067 -0.9865
vn 0.0104 0.8804 0.4740
vn 0.0894 -0.0341 -0.9954
vn -0.1783 0.0341 0.9834
vn 0.1110 -0.8814 -0.4592
vn 0.0286 -0.8446 0.5347
vn 0.1502 0.8454 -0.5126
vn -0.0558 0.9346 0.3513
vn 0.0723 -0.9160 -0.3947
vn -0.1391 -0.0000 0.9903
vn 0.0785 0.9842 -0.1585
vn 0.0002 0.9884 -0.1521
vn 0.0651 0.0445 -0.9969
vn 0.0278 0.9870 -0.1586
vn 0.2719 0.0058 -0.9623
vn 0.1774 0.2152 -0.9603
vn -0.2184 -0.2228 -0.9501
vn 0.2292 0.2338 -0.9449
vn -0.0000 -0.9957 -0.0931
vn 0.6125 0.5829 -0.5339
vn 0.0558 0.0677 -0.9961
vt 0.123292 0.018836
vt 0.077553 0.077732
vt 0.055166 0.054508
vt 0.138120 0.092106
vt 0.114983 0.128195
vt 0.132289 0.058400
vt 0.097478 0.950951
vt 0.058051 0.983229
vt 0.054246 0.947938
vt 0.699725 0.767758
vt 0.662765 0.633747
vt 0.745435 0.719757
vt 0.025499 0.116907
vt 0.118702 0.504375
vt 0.064295 0.521849
vt 0.078889 0.291329
vt 0.114831 0.257156
vt 0.144638 0.244065
vt 0.144552 0.258419
vt 0.081688 0.132424
vt 0.072934 0.141472
vt 0.061158 0.185814
vt 0.011430 0.220756
vt 0.012171 0.176898
vt 0.099658 0.920868
vt 0.052397 0.917739
vt 0.069486 0.236709
vt 0.083652 0.221680
vt 0.110525 0.238854
vt 0.101331 0.897820
vt 0.050200 0.894750
vt 0.068127 0.525963
vt 0.064916 0.523579
vt 0.135918 0.392912
vt 0.690071 0.593038
vt 0.601816 0.587183
vt 0.663475 0.561877
vt 0.766053 0.664802
vt 0.865737 0.455122
vt 0.056350 0.224563
vt 0.016078 0.284529
vt 0.088556 0.247671
vt 0.077818 0.136256
vt 0.094652 0.146350
vt 0.115174 0.143476
vt 0.145136 0.134274
vt 0.688786 0.874403
vt 0.664362 0.854812
vt 0.694594 0.857723
vt 0.086234 0.185972
vt 0.712226 0.880034
vt 0.725022 0.860260
vt 0.697633 0.835326
vt 0.665998 0.835326
vt 0.970702 0.192826
vt 0.911675 0.237263
vt 0.910751 0.191219
vt 0.049863 0.538891
vt 0.054802 0.539517
vt 0.124855 0.570832
vt 0.111124 0.533773
vt 0.127517 0.514673
vt 0.894353 0.145856
vt 0.905703 0.144738
vt 0.963965 0.280362
vt 0.970367 0.235223
vt 0.959655 0.103557
vt 0.902041 0.100750
vt 0.961335 0.061881
vt 0.903144 0.061943
vt 0.848896 0.192730
vt 0.845385 0.147452
vt 0.891925 0.099883
vt 0.892991 0.061522
vt 0.899342 0.236583
vt 0.898468 0.192276
vt 0.896616 0.016319
vt 0.908726 0.020385
vt 0.845039 0.102372
vt 0.840733 0.057681
vt 0.846054 0.057664
vt 0.846705 0.011430
vt 0.899123 0.288269
vt 0.848256 0.239333
vt 0.073388 0.558282
vt 0.106053 0.552718
vt 0.037207 0.554132
vt 0.840056 0.147695
vt 0.964403 0.148579
vt 0.619507 0.040630
vt 0.478954 0.028067
vt 0.481513 0.011430
vt 0.126810 0.518971
vt 0.127991 0.507265
vt 0.603402 0.047000
vt 0.484800 0.037635
vt 0.315433 0.164786
vt 0.329940 0.183928
vt 0.313338 0.184190
vt 0.533656 0.182904
vt 0.479264 0.179355
vt 0.335784 0.173721
vt 0.336623 0.183842
vt 0.506460 0.182904
vt 0.479263 0.182905
vt 0.449360 0.797957
vt 0.429439 0.851857
vt 0.441388 0.807464
vt 0.313338 0.852094
vt 0.398643 0.823121
vt 0.368420 0.858451
vt 0.839681 0.102389
vt 0.843206 0.192951
vt 0.841102 0.014601
vt 0.846402 0.289150
vt 0.842477 0.239232
vt 0.403462 0.889218
vt 0.375294 0.790618
vt 0.313338 0.957312
vt 0.368171 0.892967
vt 0.417398 0.941305
vt 0.467123 0.870005
vt 0.022859 0.290259
vt 0.091587 0.521671
vt 0.038029 0.530965
vt 0.062972 0.519770
vt 0.065813 0.343405
vt 0.601816 0.417466
vt 0.867435 0.377238
vt 0.047558 0.852250
vt 0.194978 0.051409
vt 0.172369 0.117884
vt 0.131843 0.988570
vt 0.140691 0.954197
vt 0.374286 0.511249
vt 0.411246 0.377238
vt 0.456957 0.425240
vt 0.267914 0.083993
vt 0.211330 0.011430
vt 0.208701 0.293730
vt 0.191497 0.530726
vt 0.137983 0.505716
vt 0.174751 0.257359
vt 0.215227 0.122350
vt 0.205925 0.114686
vt 0.290478 0.215863
vt 0.231069 0.173370
vt 0.290478 0.159825
vt 0.204345 0.215709
vt 0.221689 0.232991
vt 0.178981 0.239003
vt 0.146869 0.924583
vt 0.186953 0.534114
vt 0.163733 0.526513
vt 0.313338 0.557814
vt 0.401592 0.551958
vt 0.374997 0.583120
vt 0.477575 0.480194
vt 0.577258 0.689874
vt 0.201577 0.174805
vt 0.277724 0.292296
vt 0.201609 0.246555
vt 0.209823 0.117867
vt 0.194208 0.130804
vt 0.175364 0.130935
vt 0.143414 0.123003
vt 0.664362 0.815839
vt 0.688786 0.796248
vt 0.694594 0.812928
vt 0.712226 0.790618
vt 0.725022 0.810392
vt 0.797774 0.090096
vt 0.745747 0.053081
vt 0.795796 0.053604
vt 0.203713 0.549725
vt 0.190579 0.532262
vt 0.142351 0.536114
vt 0.727099 0.133217
vt 0.744166 0.092460
vt 0.737991 0.135129
vt 0.788928 0.015970
vt 0.792889 0.174446
vt 0.794274 0.130427
vt 0.799774 0.218282
vt 0.732555 0.179556
vt 0.690382 0.086571
vt 0.733466 0.090909
vt 0.732667 0.223044
vt 0.721498 0.179539
vt 0.735570 0.053405
vt 0.721748 0.280457
vt 0.741001 0.274031
vt 0.656343 0.219607
vt 0.671576 0.170683
vt 0.662887 0.220796
vt 0.720316 0.222744
vt 0.694385 0.049195
vt 0.735604 0.012133
vt 0.177441 0.565748
vt 0.214307 0.566872
vt 0.198614 0.549595
vt 0.675384 0.125208
vt 0.680403 0.126189
vt 0.742719 0.015567
vt 0.816821 0.269147
vt 0.478954 0.337742
vt 0.619507 0.325178
vt 0.481513 0.354379
vt 0.603402 0.318809
vt 0.618510 0.318890
vt 0.316062 0.203490
vt 0.484801 0.328174
vt 0.336005 0.193943
vt 0.332124 0.203422
vt 0.479264 0.186454
vt 0.641503 0.792833
vt 0.562165 0.837740
vt 0.550343 0.790618
vt 0.581142 0.942516
vt 0.595263 0.871233
vt 0.641503 0.884091
vt 0.685533 0.085793
vt 0.642367 0.275236
vt 0.653288 0.280457
vt 0.689876 0.048978
vt 0.694683 0.011430
vt 0.593176 0.839755
vt 0.569320 0.895393
vt 0.538309 0.893378
vt 0.536222 0.861900
vt 0.489982 0.940301
vt 0.489982 0.849042
vt 0.268605 0.298068
vt 0.216086 0.348215
vt 0.216919 0.543475
vt 0.313338 0.727530
vt 0.578957 0.767758
vt 0.161087 0.860502
vt 0.094952 0.985839
vt 0.664970 0.867175
vt 0.729571 0.835326
vt 0.908564 0.282971
vt 0.968673 0.017076
vt 0.618510 0.046918
vt 0.331515 0.164328
vt 0.839681 0.287279
vt 0.236640 0.218866
vt 0.152351 0.902157
vt 0.664970 0.803477
vt 0.145528 0.555701
vt 0.665895 0.169745
vt 0.690133 0.014012
vt 0.193123 0.528623
s 0
usemtl マテリアル
f 5/1/1 2/2/1 1/3/1
f 41/4/2 34/5/2 6/6/2
f 10/7/3 1/8/3 7/9/3
f 95/10/4 27/11/4 93/12/4
f 2/2/5 7/13/5 1/3/5
f 68/14/6 21/15/6 4/16/6
f 31/17/7 29/18/7 17/19/7
f 8/20/8 13/21/8 7/13/8
f 20/22/9 11/23/9 18/24/9
f 19/25/3 7/9/3 18/26/3
f 30/27/10 15/28/10 32/29/10
f 12/30/3 18/26/3 11/31/3
f 13/21/11 18/24/11 7/13/11
f 21/15/12 42/32/12 66/33/12
f 31/17/13 71/34/13 68/14/13
f 25/35/14 28/36/14 26/37/14
f 93/38/15 25/35/15 94/39/15
f 20/22/16 15/28/16 14/40/16
f 11/23/17 30/27/17 3/41/17
f 16/42/18 32/29/18 31/17/18
f 33/43/19 36/44/19 13/21/19
f 8/20/20 37/45/20 33/43/20
f 34/5/21 35/46/21 37/45/21
f 40/47/22 37/48/22 38/49/22
f 40/50/23 13/21/23 36/44/23
f 15/51/24 38/49/24 32/52/24
f 39/53/25 32/52/25 38/49/25
f 38/49/26 35/54/26 39/53/26
f 45/55/27 48/56/27 49/57/27
f 67/58/12 42/32/12 43/59/12
f 23/60/12 45/61/12 24/62/12
f 49/57/28 63/63/28 61/64/28
f 59/65/29 48/56/29 44/66/29
f 42/67/30 61/64/30 46/68/30
f 43/69/31 46/68/31 47/70/31
f 63/63/32 57/71/32 65/72/32
f 47/70/28 50/73/28 51/74/28
f 49/57/28 52/75/28 53/76/28
f 47/70/28 62/77/28 60/78/28
f 54/79/33 82/80/33 55/81/33
f 50/73/34 55/81/34 51/74/34
f 52/75/35 57/71/35 53/76/35
f 62/77/36 55/81/36 64/82/36
f 62/83/37 56/84/37 52/75/37
f 23/60/12 59/85/12 44/86/12
f 22/87/12 43/59/12 59/85/12
f 57/71/33 84/88/33 65/72/33
f 48/56/28 62/83/28 52/75/28
f 63/63/38 54/79/38 50/73/38
f 21/15/12 67/58/12 22/87/12
f 58/89/39 49/57/39 61/64/39
f 60/78/40 43/69/40 47/70/40
f 63/63/28 46/68/28 61/64/28
f 71/90/41 72/91/41 68/92/41
f 24/93/42 68/14/42 69/94/42
f 72/91/43 77/95/43 70/96/43
f 68/97/1 73/98/1 69/99/1
f 70/96/44 80/100/44 74/101/44
f 73/98/45 70/102/45 76/103/45
f 74/101/46 79/104/46 78/105/46
f 76/103/47 74/101/47 78/105/47
f 83/106/48 88/107/48 89/108/48
f 85/109/49 92/110/49 91/111/49
f 54/79/33 84/88/33 81/112/33
f 56/84/33 85/113/33 57/71/33
f 55/81/33 83/114/33 64/82/33
f 64/115/33 86/116/33 56/84/33
f 89/108/33 91/111/33 92/110/33
f 87/117/33 89/108/33 88/107/33
f 83/106/50 92/110/50 86/118/50
f 84/119/51 91/111/51 90/120/51
f 81/121/52 88/107/52 82/122/52
f 84/119/53 87/117/53 81/121/53
f 34/5/54 2/2/54 6/6/54
f 4/16/55 96/123/55 16/42/55
f 58/124/12 24/62/12 45/61/12
f 3/41/56 95/125/56 22/87/56
f 21/15/57 95/125/57 93/126/57
f 21/15/58 94/127/58 4/16/58
f 95/128/59 26/37/59 28/36/59
f 94/39/60 26/37/60 96/129/60
f 3/130/3 22/87/3 23/60/3
f 96/123/61 30/27/61 16/42/61
f 5/1/1 98/131/1 6/6/1
f 120/132/62 41/4/62 6/6/62
f 97/133/3 10/7/3 101/134/3
f 114/135/63 169/136/63 167/137/63
f 101/138/64 98/131/64 97/139/64
f 100/140/65 110/141/65 151/142/65
f 29/18/66 117/143/66 17/19/66
f 104/144/67 102/145/67 101/138/67
f 103/146/68 109/147/68 108/148/68
f 19/25/3 101/134/3 10/7/3
f 106/149/69 116/150/69 118/151/69
f 12/30/3 108/152/3 19/25/3
f 108/148/70 104/144/70 101/138/70
f 110/141/12 125/153/12 141/154/12
f 117/143/71 71/34/71 17/19/71
f 115/155/72 112/156/72 113/157/72
f 112/156/73 167/158/73 168/159/73
f 109/147/74 106/149/74 124/160/74
f 116/150/75 103/146/75 99/161/75
f 118/151/76 107/162/76 117/143/76
f 119/163/77 121/164/77 122/165/77
f 102/145/78 122/165/78 120/132/78
f 120/132/79 35/46/79 9/166/79
f 122/167/80 124/168/80 123/169/80
f 104/144/81 124/160/81 121/164/81
f 123/169/82 106/170/82 118/171/82
f 118/171/83 39/53/83 123/169/83
f 35/54/84 123/169/84 39/53/84
f 128/172/85 131/173/85 127/174/85
f 150/175/12 125/153/12 149/176/12
f 128/177/12 23/60/12 24/62/12
f 146/178/86 132/179/86 144/180/86
f 131/173/87 142/181/87 127/174/87
f 125/182/88 144/180/88 141/183/88
f 126/184/89 129/185/89 125/182/89
f 146/178/90 140/186/90 136/187/90
f 130/188/86 133/189/86 129/185/86
f 132/179/86 135/190/86 131/173/86
f 145/191/86 130/188/86 143/192/86
f 156/193/91 137/194/91 138/195/91
f 138/195/92 133/189/92 134/196/92
f 140/186/93 135/190/93 136/187/93
f 145/191/94 138/195/94 134/196/94
f 139/197/95 145/198/95 135/190/95
f 23/60/12 142/199/12 111/200/12
f 126/201/12 111/200/12 142/199/12
f 158/202/91 140/186/91 148/203/91
f 131/173/86 145/198/86 143/204/86
f 137/194/96 146/178/96 133/189/96
f 150/175/12 110/141/12 111/200/12
f 132/179/97 141/183/97 144/180/97
f 143/192/98 126/184/98 142/205/98
f 129/185/86 146/178/86 144/180/86
f 153/206/99 71/207/99 151/208/99
f 24/93/100 151/142/100 110/141/100
f 153/206/101 77/209/101 75/210/101
f 73/98/1 151/211/1 69/99/1
f 152/212/102 80/100/102 77/209/102
f 73/98/103 152/213/103 153/214/103
f 154/215/46 79/104/46 80/100/46
f 76/103/104 154/215/104 152/213/104
f 157/216/105 162/217/105 156/218/105
f 159/219/106 166/220/106 160/221/106
f 137/194/91 158/202/91 148/203/91
f 159/222/91 139/197/91 140/186/91
f 157/223/91 138/195/91 147/224/91
f 160/225/91 147/226/91 139/197/91
f 163/227/91 165/228/91 164/229/91
f 163/227/91 161/230/91 162/217/91
f 166/220/107 157/216/107 160/221/107
f 158/231/108 165/228/108 159/219/108
f 162/217/109 155/232/109 156/218/109
f 161/230/110 158/231/110 155/232/110
f 120/132/111 98/131/111 102/145/111
f 100/140/112 170/233/112 168/234/112
f 141/154/12 24/62/12 110/141/12
f 169/235/113 99/161/113 111/200/113
f 110/141/114 169/235/114 111/200/114
f 168/234/115 110/141/115 100/140/115
f 169/236/116 113/157/116 170/237/116
f 168/159/117 113/157/117 112/156/117
f 23/60/3 111/200/3 99/238/3
f 116/150/118 170/233/118 107/162/118
f 5/1/1 6/6/1 2/2/1
f 41/4/2 9/166/2 34/5/2
f 10/7/3 5/239/3 1/8/3
f 95/10/119 28/36/119 27/11/119
f 2/2/120 8/20/120 7/13/120
f 16/42/121 31/17/121 4/16/121
f 31/17/122 68/14/122 4/16/122
f 31/17/123 32/29/123 29/18/123
f 8/20/124 33/43/124 13/21/124
f 20/22/125 14/40/125 11/23/125
f 19/25/3 10/7/3 7/9/3
f 30/27/126 14/40/126 15/28/126
f 12/30/3 19/25/3 18/26/3
f 13/21/127 20/22/127 18/24/127
f 21/15/12 58/124/12 42/32/12
f 31/17/128 17/19/128 71/34/128
f 25/35/14 27/11/14 28/36/14
f 93/38/129 27/11/129 25/35/129
f 20/22/130 40/50/130 15/28/130
f 11/23/131 14/40/131 30/27/131
f 16/42/132 30/27/132 32/29/132
f 33/43/133 37/45/133 36/44/133
f 8/20/134 34/5/134 37/45/134
f 34/5/135 9/166/135 35/46/135
f 40/47/136 36/240/136 37/48/136
f 40/50/137 20/22/137 13/21/137
f 15/51/138 40/47/138 38/49/138
f 39/53/139 29/241/139 32/52/139
f 38/49/140 37/48/140 35/54/140
f 45/55/141 44/66/141 48/56/141
f 67/58/12 66/33/12 42/32/12
f 23/60/12 44/86/12 45/61/12
f 49/57/28 53/76/28 63/63/28
f 59/65/142 60/242/142 48/56/142
f 42/67/143 58/89/143 61/64/143
f 43/69/144 42/67/144 46/68/144
f 63/63/145 53/76/145 57/71/145
f 47/70/28 46/68/28 50/73/28
f 49/57/28 48/56/28 52/75/28
f 47/70/28 51/74/28 62/77/28
f 54/79/33 81/112/33 82/80/33
f 50/73/146 54/79/146 55/81/146
f 52/75/147 56/84/147 57/71/147
f 62/77/148 51/74/148 55/81/148
f 62/83/149 64/115/149 56/84/149
f 23/60/12 22/87/12 59/85/12
f 22/87/12 67/58/12 43/59/12
f 57/71/33 85/113/33 84/88/33
f 48/56/28 60/242/28 62/83/28
f 63/63/150 65/72/150 54/79/150
f 21/15/12 66/33/12 67/58/12
f 58/89/151 45/55/151 49/57/151
f 60/78/152 59/243/152 43/69/152
f 63/63/28 50/73/28 46/68/28
f 71/90/153 75/244/153 72/91/153
f 24/93/154 21/15/154 68/14/154
f 72/91/155 75/244/155 77/95/155
f 68/97/1 72/245/1 73/98/1
f 70/96/156 77/95/156 80/100/156
f 73/98/157 72/245/157 70/102/157
f 74/101/46 80/100/46 79/104/46
f 76/103/158 70/102/158 74/101/158
f 83/106/48 82/122/48 88/107/48
f 85/109/49 86/118/49 92/110/49
f 54/79/33 65/72/33 84/88/33
f 56/84/33 86/116/33 85/113/33
f 55/81/33 82/80/33 83/114/33
f 64/115/33 83/246/33 86/116/33
f 89/108/33 90/120/33 91/111/33
f 87/117/33 90/120/33 89/108/33
f 83/106/50 89/108/50 92/110/50
f 84/119/51 85/109/51 91/111/51
f 81/121/52 87/117/52 88/107/52
f 84/119/53 90/120/53 87/117/53
f 34/5/159 8/20/159 2/2/159
f 4/16/160 94/127/160 96/123/160
f 58/124/12 21/15/12 24/62/12
f 3/41/161 96/123/161 95/125/161
f 21/15/162 22/87/162 95/125/162
f 21/15/163 93/126/163 94/127/163
f 95/128/164 96/129/164 26/37/164
f 94/39/165 25/35/165 26/37/165
f 23/60/3 12/30/3 3/130/3
f 12/30/3 11/31/3 3/130/3
f 96/123/166 3/41/166 30/27/166
f 5/1/1 97/139/1 98/131/1
f 120/132/62 9/166/62 41/4/62
f 97/133/3 5/239/3 10/7/3
f 114/135/167 115/155/167 169/136/167
f 101/138/168 102/145/168 98/131/168
f 151/142/169 117/143/169 100/140/169
f 117/143/170 107/162/170 100/140/170
f 29/18/171 118/151/171 117/143/171
f 104/144/124 119/163/124 102/145/124
f 103/146/172 105/247/172 109/147/172
f 19/25/3 108/152/3 101/134/3
f 106/149/173 105/247/173 116/150/173
f 12/30/3 103/248/3 108/152/3
f 108/148/174 109/147/174 104/144/174
f 110/141/12 149/176/12 125/153/12
f 117/143/175 151/142/175 71/34/175
f 115/155/72 114/135/72 112/156/72
f 112/156/176 114/135/176 167/158/176
f 109/147/177 105/247/177 106/149/177
f 116/150/178 105/247/178 103/146/178
f 118/151/179 116/150/179 107/162/179
f 119/163/180 104/144/180 121/164/180
f 102/145/181 119/163/181 122/165/181
f 120/132/182 122/165/182 35/46/182
f 122/167/183 121/249/183 124/168/183
f 104/144/184 109/147/184 124/160/184
f 123/169/185 124/168/185 106/170/185
f 118/171/186 29/241/186 39/53/186
f 35/54/187 122/167/187 123/169/187
f 128/172/188 132/179/188 131/173/188
f 150/175/12 126/201/12 125/153/12
f 128/177/12 127/250/12 23/60/12
f 146/178/86 136/187/86 132/179/86
f 131/173/189 143/204/189 142/181/189
f 125/182/190 129/185/190 144/180/190
f 126/184/191 130/188/191 129/185/191
f 146/178/192 148/203/192 140/186/192
f 130/188/86 134/196/86 133/189/86
f 132/179/86 136/187/86 135/190/86
f 145/191/86 134/196/86 130/188/86
f 156/193/91 155/251/91 137/194/91
f 138/195/193 137/194/193 133/189/193
f 140/186/194 139/197/194 135/190/194
f 145/191/195 147/224/195 138/195/195
f 139/197/196 147/226/196 145/198/196
f 23/60/12 127/250/12 142/199/12
f 126/201/12 150/175/12 111/200/12
f 158/202/91 159/222/91 140/186/91
f 131/173/86 135/190/86 145/198/86
f 137/194/197 148/203/197 146/178/197
f 150/175/12 149/176/12 110/141/12
f 132/179/198 128/172/198 141/183/198
f 143/192/199 130/188/199 126/184/199
f 129/185/86 133/189/86 146/178/86
f 153/206/200 75/210/200 71/207/200
f 24/93/201 69/94/201 151/142/201
f 153/206/202 152/212/202 77/209/202
f 73/98/1 153/214/1 151/211/1
f 152/212/203 154/215/203 80/100/203
f 73/98/204 76/103/204 152/213/204
f 154/215/46 78/105/46 79/104/46
f 76/103/47 78/105/47 154/215/47
f 157/216/105 163/227/105 162/217/105
f 159/219/106 165/228/106 166/220/106
f 137/194/91 155/251/91 158/202/91
f 159/222/91 160/225/91 139/197/91
f 157/223/91 156/193/91 138/195/91
f 160/225/91 157/252/91 147/226/91
f 163/227/91 166/220/91 165/228/91
f 163/227/91 164/229/91 161/230/91
f 166/220/107 163/227/107 157/216/107
f 158/231/108 164/229/108 165/228/108
f 162/217/109 161/230/109 155/232/109
f 161/230/110 164/229/110 158/231/110
f 120/132/54 6/6/54 98/131/54
f 100/140/205 107/162/205 170/233/205
f 141/154/12 128/177/12 24/62/12
f 169/235/206 170/233/206 99/161/206
f 110/141/207 167/253/207 169/235/207
f 168/234/208 167/253/208 110/141/208
f 169/236/209 115/155/209 113/157/209
f 168/159/210 170/237/210 113/157/210
f 103/248/3 12/30/3 99/238/3
f 12/30/3 23/60/3 99/238/3
f 116/150/211 99/161/211 170/233/211
