# Blender 5.0.0
# www.blender.org
mtllib playerBullet.mtl
o 立方体.001
v 0.168713 -0.351970 0.365989
v 1.031446 -0.164879 0.152081
v 1.067610 -0.000000 0.159101
v 0.296617 -0.000000 0.404577
v -1.040745 -0.033291 0.049516
v -1.040745 -0.000000 0.056175
v 0.711608 -0.273720 0.266087
v 0.709644 0.000000 0.326157
v -0.943910 0.000626 0.232030
v -0.813942 -0.265060 0.274682
v 1.066504 -0.171482 0.016226
v 0.299081 -0.391387 0.016226
v 1.138871 -0.000000 0.016226
v -1.040745 -0.039949 0.016226
v -0.686180 -0.215986 0.232211
v 0.712263 -0.328464 0.016226
v -0.973818 -0.204868 0.016477
v -0.194780 -0.410224 0.242184
v -0.487389 -0.410224 0.242184
v -0.121628 -0.410224 0.016226
v -0.560541 -0.410224 0.016226
v -0.934114 -0.779589 0.117121
v -1.050940 -0.779589 0.117121
v -0.985827 -0.814719 0.016226
v -1.129051 -0.814719 0.016226
v -0.224336 -0.213616 0.425217
v -0.165766 0.000000 0.425217
v -0.517190 0.000000 0.425217
v -0.458619 -0.213616 0.425217
v -0.949410 -0.095031 0.872455
v -1.004234 -0.000000 0.916922
v -1.111432 -0.000000 0.916922
v -1.036824 -0.095031 0.872455
v -1.003746 -0.068964 0.085190
v -1.004513 -0.000000 0.095388
v -1.004513 -0.079162 0.016226
v -0.407919 -0.523041 0.206936
v -0.644811 -0.000000 0.256210
v -0.644811 -0.239984 0.016226
v -0.562074 -0.000000 0.016226
v -0.349531 -0.523041 0.016226
v -0.699858 -0.523041 0.016226
v -0.641470 -0.523041 0.206937
v -0.099998 -0.399585 0.277248
v 0.013821 -0.399585 0.016226
v -0.669098 -0.399585 0.016226
v -0.555278 -0.399585 0.277248
v -0.545151 -0.256817 0.415810
v -0.653907 -0.000000 0.415810
v -0.001370 -0.000000 0.415810
v -0.110126 -0.256817 0.415810
v -0.395273 -0.000000 0.551779
v -0.438938 -0.177917 0.551779
v -0.613597 -0.177917 0.551779
v -0.657262 -0.000000 0.551779
v 0.168713 0.351970 0.365989
v 1.031446 0.164879 0.152081
v -1.040745 0.033291 0.049516
v 0.711608 0.273720 0.266087
v -0.812409 0.265302 0.277369
v 1.066504 0.171482 0.016226
v 0.299081 0.391387 0.016226
v -1.040745 0.039949 0.016226
v -0.686180 0.215986 0.232211
v 0.712263 0.328464 0.016226
v -0.973772 0.204881 0.016435
v -0.194780 0.410224 0.242184
v -0.487389 0.410224 0.242184
v -0.121628 0.410224 0.016226
v -0.560541 0.410224 0.016226
v -0.934114 0.779589 0.117121
v -1.050940 0.779589 0.117121
v -0.985827 0.814719 0.016226
v -1.129051 0.814719 0.016226
v -0.224336 0.213616 0.425217
v -0.458619 0.213616 0.425217
v -0.949410 0.095031 0.872455
v -1.036824 0.095031 0.872455
v -1.003746 0.068964 0.085190
v -1.004513 0.079162 0.016226
v -0.407919 0.523041 0.206936
v -0.644811 0.239984 0.016226
v -0.349531 0.523041 0.016226
v -0.699858 0.523041 0.016226
v -0.641470 0.523041 0.206936
v -0.099999 0.399585 0.277248
v 0.013821 0.399585 0.016226
v -0.669098 0.399585 0.016226
v -0.555278 0.399585 0.277248
v -0.545151 0.256817 0.415810
v -0.110126 0.256817 0.415810
v -0.438938 0.177917 0.551779
v -0.613597 0.177917 0.551779
v 0.168713 -0.351970 -0.333538
v 1.031446 -0.164879 -0.119630
v 1.067610 -0.000000 -0.126650
v 0.296617 0.000000 -0.372126
v -1.040745 -0.033291 -0.017065
v -1.040745 -0.000000 -0.023724
v 0.711608 -0.273720 -0.233636
v 0.709644 0.000000 -0.293706
v -0.971739 -0.000000 -0.191382
v -0.829016 -0.280743 -0.260014
v -0.686180 -0.215986 -0.199760
v -0.194780 -0.410224 -0.209733
v -0.487389 -0.410224 -0.209733
v -0.934114 -0.779589 -0.084670
v -1.050940 -0.779589 -0.084670
v -0.224336 -0.213616 -0.392766
v -0.165766 0.000000 -0.392766
v -0.517190 0.000000 -0.392766
v -0.458619 -0.213616 -0.392766
v -0.949410 -0.095031 -0.840004
v -1.004233 0.000000 -0.884471
v -1.111432 0.000000 -0.884471
v -1.036824 -0.095031 -0.840004
v -1.003746 -0.068964 -0.052739
v -1.004513 -0.000000 -0.062936
v -0.407919 -0.523041 -0.174485
v -0.644811 -0.000000 -0.223759
v -0.641470 -0.523041 -0.174485
v -0.099999 -0.399585 -0.244797
v -0.555278 -0.399585 -0.244797
v -0.545151 -0.256817 -0.383359
v -0.653907 0.000000 -0.383359
v -0.001369 -0.000000 -0.383359
v -0.110126 -0.256817 -0.383359
v -0.395273 -0.000000 -0.519328
v -0.438938 -0.177917 -0.519328
v -0.613597 -0.177917 -0.519328
v -0.657262 -0.000000 -0.519328
v 0.168713 0.351970 -0.333538
v 1.031446 0.164879 -0.119630
v -1.040745 0.033291 -0.017065
v 0.711608 0.273720 -0.233636
v -0.829039 0.280737 -0.259994
v -0.686180 0.215986 -0.199760
v -0.194780 0.410224 -0.209733
v -0.487389 0.410224 -0.209733
v -0.934114 0.779589 -0.084670
v -1.050940 0.779589 -0.084670
v -0.224336 0.213616 -0.392766
v -0.458619 0.213616 -0.392766
v -0.949410 0.095031 -0.840004
v -1.036824 0.095031 -0.840004
v -1.003746 0.068964 -0.052739
v -0.407919 0.523041 -0.174485
v -0.641470 0.523041 -0.174485
v -0.099998 0.399585 -0.244797
v -0.555278 0.399585 -0.244797
v -0.545151 0.256817 -0.383359
v -0.110126 0.256817 -0.383359
v -0.438938 0.177917 -0.519328
v -0.613597 0.177917 -0.519328
v 1.061117 -0.096219 0.156928
v 0.284313 -0.183657 0.400115
v -1.040745 -0.019142 0.055342
v -0.484546 -0.230742 0.416986
v -1.029076 -0.066636 0.082866
v 0.911978 -0.216816 0.203368
v 0.915973 -0.000000 0.246621
v 0.710380 -0.157389 0.315943
v -1.031736 -0.000000 0.086213
v -0.325713 -0.377016 0.393544
v -0.918379 -0.114084 0.243041
v 1.060505 -0.170455 0.093408
v 0.286356 -0.387496 0.197383
v 1.129963 -0.000000 0.083310
v -1.040745 -0.039117 0.035368
v -1.041640 -0.000000 0.052274
v 0.712181 -0.321621 0.158273
v -0.933763 -0.225413 0.143749
v -1.035201 -0.802683 0.117616
v 0.916721 -0.257500 0.016226
v -1.031800 -0.069786 0.016226
v -0.651897 -0.134880 0.252099
v 1.129215 -0.085044 0.016226
v -0.341084 -0.410224 0.276078
v -0.130772 -0.410224 0.146152
v -0.551397 -0.410224 0.146152
v -0.698455 -0.668316 0.159581
v -0.153977 -0.400915 0.255370
v 0.135532 -0.398560 0.016226
v -0.592333 -0.400915 0.016226
v -0.641095 -0.396233 0.312126
v -0.976838 -0.808701 0.073044
v -1.115802 -0.808701 0.073044
v -1.154808 -0.867413 0.016226
v -0.186562 -0.440285 0.016226
v -0.928689 -0.672870 0.016226
v -0.515968 -0.440285 0.231338
v -0.173087 -0.122829 0.425217
v -0.341478 -0.245659 0.425217
v -0.509868 -0.122829 0.425217
v -0.807657 0.001251 0.356805
v -0.096601 -0.000000 0.416986
v -0.014994 -0.293946 0.411786
v -0.994745 -0.053672 0.909305
v -1.154906 -0.000000 0.983623
v -1.035661 -0.095670 0.901688
v -1.098749 -0.053672 0.909305
v -0.698081 -0.000000 0.737878
v -0.285779 -0.201117 0.455148
v -0.855593 -0.134221 0.732114
v -0.534670 -0.000000 0.455148
v -1.004140 -0.038769 0.095450
v -1.004140 -0.079225 0.054995
v -0.854530 -0.000000 0.246057
v -0.848088 -0.203608 0.219834
v -1.041640 -0.030040 0.046266
v -1.041640 -0.036048 0.016226
v -0.651898 -0.235873 0.151105
v -0.572416 -0.000000 0.154216
v -0.572416 -0.137991 0.016226
v -0.854530 -0.229832 0.016226
v -0.252443 -0.440285 0.231338
v -0.663530 -0.672870 0.016226
v -0.581849 -0.440285 0.016226
v -0.876935 -0.668316 0.159581
v -0.524695 -0.523041 0.235543
v -0.692560 -0.523041 0.125884
v -0.356829 -0.523041 0.125884
v -0.011170 -0.395796 0.311523
v -0.066305 -0.400915 0.016226
v -0.809292 -0.360699 0.016226
v -0.504661 -0.400915 0.255370
v -0.327638 -0.399585 0.316402
v -0.654870 -0.399585 0.166314
v -0.000406 -0.399585 0.166314
v -0.670838 -0.282228 0.359130
v -0.562135 -0.000000 0.416986
v 0.129559 -0.000000 0.414406
v -0.174190 -0.230742 0.416986
v -0.327638 -0.295340 0.415811
v -0.014964 -0.147670 0.415810
v -0.640312 -0.147670 0.415810
v -0.236001 -0.000000 0.455148
v -0.722108 -0.134221 0.732114
v -0.484892 -0.201117 0.455148
v -0.896399 -0.000000 0.737878
v -0.526267 -0.204605 0.551779
v -0.651804 -0.102302 0.551779
v -0.400731 -0.102302 0.551779
v 1.061117 0.096219 0.156928
v 0.284313 0.183657 0.400115
v -1.040745 0.019142 0.055342
v -0.484546 0.230742 0.416986
v -1.029076 0.066636 0.082866
v 0.911978 0.216816 0.203368
v 0.710380 0.157389 0.315943
v -0.325713 0.377016 0.393544
v -0.916416 0.115142 0.245743
v 1.060505 0.170455 0.093408
v 0.286356 0.387496 0.197383
v -1.040745 0.039117 0.035368
v 0.712181 0.321621 0.158273
v -0.933502 0.225506 0.144673
v -1.035201 0.802683 0.117616
v 0.916721 0.257500 0.016226
v -1.031800 0.069786 0.016226
v -0.651898 0.134880 0.252099
v 1.129215 0.085044 0.016226
v -0.341084 0.410224 0.276078
v -0.130772 0.410224 0.146152
v -0.551397 0.410224 0.146152
v -0.698455 0.668316 0.159581
v -0.153977 0.400915 0.255370
v 0.135532 0.398560 0.016226
v -0.592333 0.400915 0.016226
v -0.641095 0.396233 0.312126
v -0.976838 0.808701 0.073044
v -1.115802 0.808701 0.073044
v -1.154808 0.867413 0.016226
v -0.186562 0.440285 0.016226
v -0.928689 0.672870 0.016226
v -0.515968 0.440285 0.231338
v -0.173087 0.122829 0.425217
v -0.341478 0.245659 0.425217
v -0.509868 0.122829 0.425217
v -0.014994 0.293946 0.411786
v -0.994745 0.053672 0.909305
v -1.035661 0.095670 0.901688
v -1.098749 0.053672 0.909305
v -0.285779 0.201117 0.455148
v -0.855593 0.134221 0.732114
v -1.004140 0.038769 0.095450
v -1.004140 0.079224 0.054995
v -0.848088 0.203608 0.219834
v -1.041640 0.030040 0.046266
v -1.041640 0.036048 0.016226
v -0.651898 0.235873 0.151105
v -0.572416 0.137991 0.016226
v -0.854530 0.229832 0.016226
v -0.252443 0.440285 0.231338
v -0.663530 0.672870 0.016226
v -0.581849 0.440285 0.016226
v -0.876935 0.668316 0.159581
v -0.524695 0.523041 0.235543
v -0.692560 0.523041 0.125884
v -0.356829 0.523041 0.125884
v -0.011170 0.395796 0.311523
v -0.066305 0.400915 0.016226
v -0.809292 0.360699 0.016226
v -0.504661 0.400915 0.255370
v -0.327638 0.399585 0.316402
v -0.654870 0.399585 0.166314
v -0.000406 0.399585 0.166314
v -0.668720 0.282453 0.362204
v -0.174190 0.230742 0.416986
v -0.327638 0.295340 0.415810
v -0.014964 0.147670 0.415810
v -0.640312 0.147670 0.415810
v -0.722108 0.134221 0.732114
v -0.484892 0.201117 0.455148
v -0.526267 0.204605 0.551779
v -0.651804 0.102302 0.551779
v -0.400731 0.102302 0.551779
v 1.061117 -0.096219 -0.124477
v 0.284313 -0.183657 -0.367664
v -1.040745 -0.019142 -0.022891
v -0.484546 -0.230742 -0.384535
v -1.029076 -0.066636 -0.050415
v 0.911978 -0.216816 -0.170917
v 0.915973 0.000000 -0.214170
v 0.710380 -0.157389 -0.283492
v -1.031736 -0.000000 -0.053762
v -0.325713 -0.377016 -0.361093
v -0.941269 -0.123684 -0.209354
v 1.060505 -0.170455 -0.060957
v 0.286356 -0.387496 -0.164932
v 1.129963 -0.000000 -0.050859
v -1.040745 -0.039117 -0.002917
v -1.041640 -0.000000 -0.019823
v 0.712181 -0.321621 -0.125822
v -0.948653 -0.238420 -0.127632
v -1.035201 -0.802683 -0.085165
v -0.651898 -0.134880 -0.219648
v -0.341084 -0.410224 -0.243626
v -0.130772 -0.410224 -0.113700
v -0.551397 -0.410224 -0.113701
v -0.698455 -0.668316 -0.127130
v -0.153977 -0.400915 -0.222919
v -0.641095 -0.396233 -0.279675
v -0.976838 -0.808701 -0.040593
v -1.115802 -0.808701 -0.040593
v -0.515968 -0.440285 -0.198887
v -0.173087 -0.122829 -0.392766
v -0.341478 -0.245659 -0.392766
v -0.509868 -0.122829 -0.392766
v -0.799585 -0.000000 -0.351170
v -0.096601 -0.000000 -0.384535
v -0.014994 -0.293946 -0.379335
v -0.994745 -0.053672 -0.876854
v -1.154906 -0.000000 -0.951172
v -1.035661 -0.095670 -0.869237
v -1.098749 -0.053672 -0.876854
v -0.698081 -0.000000 -0.705427
v -0.285779 -0.201117 -0.422697
v -0.855593 -0.134221 -0.699663
v -0.534670 -0.000000 -0.422697
v -1.004140 -0.038769 -0.062999
v -1.004140 -0.079224 -0.022544
v -0.854530 0.000000 -0.213606
v -0.848088 -0.203608 -0.187383
v -1.041640 -0.030040 -0.013815
v -0.651898 -0.235873 -0.118654
v -0.572416 -0.000000 -0.121765
v -0.252443 -0.440285 -0.198887
v -0.876935 -0.668316 -0.127130
v -0.524695 -0.523041 -0.203092
v -0.692560 -0.523041 -0.093433
v -0.356829 -0.523041 -0.093433
v -0.011170 -0.395796 -0.279072
v -0.504661 -0.400915 -0.222919
v -0.327638 -0.399585 -0.283951
v -0.654870 -0.399585 -0.133862
v -0.000406 -0.399585 -0.133862
v -0.661833 -0.303693 -0.371828
v -0.562135 -0.000000 -0.384535
v 0.129559 -0.000000 -0.381955
v -0.174190 -0.230742 -0.384535
v -0.327638 -0.295340 -0.383359
v -0.014964 -0.147670 -0.383359
v -0.640312 -0.147670 -0.383359
v -0.236001 0.000000 -0.422697
v -0.722108 -0.134221 -0.699663
v -0.484892 -0.201117 -0.422697
v -0.896399 -0.000000 -0.705427
v -0.526267 -0.204605 -0.519328
v -0.651804 -0.102302 -0.519328
v -0.400731 -0.102302 -0.519328
v 1.061117 0.096219 -0.124477
v 0.284313 0.183657 -0.367664
v -1.040745 0.019142 -0.022891
v -0.484546 0.230742 -0.384535
v -1.029076 0.066636 -0.050415
v 0.911978 0.216816 -0.170917
v 0.710380 0.157389 -0.283492
v -0.325713 0.377016 -0.361093
v -0.941277 0.123679 -0.209346
v 1.060505 0.170455 -0.060957
v 0.286356 0.387496 -0.164932
v -1.040745 0.039117 -0.002917
v 0.712181 0.321621 -0.125822
v -0.948605 0.238477 -0.127701
v -1.035201 0.802683 -0.085165
v -0.651897 0.134880 -0.219648
v -0.341084 0.410224 -0.243627
v -0.130772 0.410224 -0.113700
v -0.551397 0.410224 -0.113701
v -0.698455 0.668316 -0.127130
v -0.153977 0.400915 -0.222919
v -0.641095 0.396233 -0.279675
v -0.976838 0.808701 -0.040593
v -1.115802 0.808701 -0.040593
v -0.515968 0.440285 -0.198887
v -0.173087 0.122829 -0.392766
v -0.341478 0.245659 -0.392766
v -0.509868 0.122829 -0.392766
v -0.014994 0.293946 -0.379335
v -0.994745 0.053672 -0.876854
v -1.035661 0.095670 -0.869237
v -1.098749 0.053672 -0.876854
v -0.285779 0.201117 -0.422697
v -0.855593 0.134221 -0.699663
v -1.004140 0.038769 -0.062999
v -1.004140 0.079225 -0.022544
v -0.848088 0.203608 -0.187383
v -1.041640 0.030040 -0.013815
v -0.651898 0.235873 -0.118654
v -0.252443 0.440285 -0.198887
v -0.876935 0.668316 -0.127130
v -0.524695 0.523041 -0.203092
v -0.692560 0.523041 -0.093433
v -0.356829 0.523041 -0.093433
v -0.011170 0.395796 -0.279072
v -0.504661 0.400915 -0.222919
v -0.327638 0.399585 -0.283951
v -0.654870 0.399585 -0.133862
v -0.000406 0.399585 -0.133862
v -0.661843 0.303681 -0.371813
v -0.174190 0.230742 -0.384535
v -0.327638 0.295340 -0.383359
v -0.014964 0.147670 -0.383359
v -0.640312 0.147670 -0.383359
v -0.722108 0.134221 -0.699663
v -0.484892 0.201117 -0.422697
v -0.526267 0.204605 -0.519328
v -0.651804 0.102302 -0.519328
v -0.400731 0.102302 -0.519328
v 1.120687 -0.086190 0.083868
v -1.041640 -0.017273 0.051523
v -1.031150 -0.070820 0.050820
v -1.031095 -0.034671 0.087213
v 0.915030 -0.125048 0.239152
v 0.915559 -0.252620 0.122597
v -0.552437 -0.132677 0.416986
v -0.077264 -0.400915 0.153734
v -0.666737 -0.671731 0.098632
v -0.581374 -0.400915 0.153734
v -0.329319 -0.400915 0.291242
v -1.139782 -0.859282 0.064531
v -0.921274 -0.671731 0.098632
v -0.791902 -0.670593 0.179811
v -0.699956 -0.077175 0.736437
v -0.106299 -0.132677 0.416986
v -0.329368 -0.265354 0.416986
v -1.139925 -0.045886 0.973329
v -0.890329 -0.077175 0.736437
v -0.793045 -0.153177 0.734996
v -0.858125 -0.222076 0.126535
v -1.041640 -0.035297 0.033499
v -0.582375 -0.137213 0.153439
v -0.858125 -0.110310 0.238301
v -0.384205 -0.440285 0.263605
v -0.573614 -0.440285 0.139915
v -0.194797 -0.440285 0.139915
v -0.327157 -0.396629 0.353971
v -0.785962 -0.371957 0.173771
v 0.118156 -0.397913 0.184433
v -0.327157 -0.335933 0.412864
v 0.112484 -0.167592 0.413719
v -0.776537 -0.147074 0.361973
v -0.385336 -0.231284 0.455148
v -0.528448 -0.115642 0.455148
v -0.242223 -0.115642 0.455148
v 1.120687 0.086190 0.083868
v -1.041640 0.017273 0.051523
v -1.031150 0.070820 0.050820
v -1.031095 0.034671 0.087213
v 0.915030 0.125048 0.239152
v 0.915559 0.252620 0.122597
v -0.552437 0.132677 0.416986
v -0.077264 0.400915 0.153734
v -0.666737 0.671731 0.098632
v -0.581374 0.400915 0.153734
v -0.329319 0.400915 0.291242
v -1.139781 0.859282 0.064531
v -0.921274 0.671731 0.098632
v -0.791902 0.670593 0.179811
v -0.699956 0.077175 0.736437
v -0.106299 0.132677 0.416986
v -0.329368 0.265354 0.416986
v -1.139925 0.045886 0.973329
v -0.890329 0.077175 0.736437
v -0.793045 0.153177 0.734996
v -0.858125 0.222075 0.126535
v -1.041640 0.035297 0.033499
v -0.582375 0.137213 0.153439
v -0.858125 0.110310 0.238301
v -0.384205 0.440285 0.263605
v -0.573614 0.440285 0.139915
v -0.194797 0.440285 0.139915
v -0.327157 0.396629 0.353971
v -0.785962 0.371957 0.173771
v 0.118156 0.397913 0.184433
v -0.327157 0.335933 0.412864
v 0.112484 0.167592 0.413719
v -0.772610 0.149190 0.367378
v -0.385336 0.231284 0.455148
v -0.528448 0.115642 0.455148
v -0.242223 0.115642 0.455148
v 1.120687 -0.086190 -0.051417
v -1.041640 -0.017273 -0.019072
v -1.031150 -0.070820 -0.018369
v -1.031095 -0.034671 -0.054762
v 0.915030 -0.125048 -0.206701
v 0.915559 -0.252620 -0.090146
v -0.552437 -0.132677 -0.384535
v -0.077264 -0.400915 -0.121283
v -0.666737 -0.671731 -0.066181
v -0.581374 -0.400915 -0.121283
v -0.329319 -0.400915 -0.258791
v -1.139781 -0.859282 -0.032080
v -0.921274 -0.671731 -0.066181
v -0.791902 -0.670593 -0.147360
v -0.699956 -0.077175 -0.703986
v -0.106299 -0.132677 -0.384535
v -0.329368 -0.265354 -0.384535
v -1.139925 -0.045886 -0.940878
v -0.890329 -0.077175 -0.703986
v -0.793045 -0.153177 -0.702545
v -0.858125 -0.222075 -0.094084
v -1.041640 -0.035297 -0.001048
v -0.582375 -0.137213 -0.120988
v -0.858125 -0.110310 -0.205850
v -0.384205 -0.440285 -0.231154
v -0.573614 -0.440285 -0.107464
v -0.194797 -0.440285 -0.107464
v -0.327157 -0.396629 -0.321520
v -0.774429 -0.388765 -0.148439
v 0.118156 -0.397913 -0.151981
v -0.327157 -0.335933 -0.380413
v 0.112484 -0.167592 -0.381268
v -0.776972 -0.158942 -0.361111
v -0.385336 -0.231284 -0.422697
v -0.528448 -0.115642 -0.422697
v -0.242223 -0.115642 -0.422697
v 1.120688 0.086190 -0.051417
v -1.041640 0.017273 -0.019072
v -1.031150 0.070820 -0.018369
v -1.031095 0.034671 -0.054762
v 0.915030 0.125048 -0.206701
v 0.915559 0.252620 -0.090146
v -0.552437 0.132677 -0.384535
v -0.077264 0.400915 -0.121283
v -0.666737 0.671731 -0.066181
v -0.581374 0.400915 -0.121283
v -0.329319 0.400915 -0.258791
v -1.139782 0.859282 -0.032080
v -0.921274 0.671731 -0.066181
v -0.791902 0.670593 -0.147360
v -0.699956 0.077175 -0.703986
v -0.106299 0.132677 -0.384535
v -0.329368 0.265354 -0.384535
v -1.139925 0.045886 -0.940878
v -0.890329 0.077175 -0.703986
v -0.793045 0.153177 -0.702545
v -0.858125 0.222076 -0.094084
v -1.041640 0.035297 -0.001048
v -0.582375 0.137213 -0.120988
v -0.858125 0.110310 -0.205850
v -0.384205 0.440285 -0.231154
v -0.573614 0.440285 -0.107464
v -0.194797 0.440285 -0.107464
v -0.327157 0.396629 -0.321520
v -0.785962 0.371957 -0.141320
v 0.118156 0.397913 -0.151981
v -0.327157 0.335933 -0.380413
v 0.112484 0.167592 -0.381268
v -0.776972 0.158942 -0.361111
v -0.385336 0.231284 -0.422697
v -0.528448 0.115642 -0.422697
v -0.242223 0.115642 -0.422697
v 0.557855 -0.300019 0.299535
v 0.416312 -0.320967 0.326263
v 0.565424 -0.000000 0.360970
v 0.423596 -0.000000 0.387534
v 0.426165 -0.378479 0.016226
v 0.567775 -0.357245 0.016226
v 0.416312 0.320967 0.326263
v 0.557855 0.300019 0.299535
v 0.567775 0.357245 0.016226
v 0.426165 0.378479 0.016226
v 0.416312 -0.320967 -0.293812
v 0.557855 -0.300019 -0.267084
v 0.423596 -0.000000 -0.355083
v 0.565424 -0.000000 -0.328519
v 0.557855 0.300019 -0.267084
v 0.416312 0.320967 -0.293812
v 0.423757 -0.372171 0.189387
v 0.565396 -0.350424 0.176506
v 0.422020 -0.179869 0.379365
v 0.563664 -0.171264 0.351559
v 0.423757 0.372171 0.189387
v 0.565396 0.350424 0.176506
v 0.422020 0.179869 0.379365
v 0.563664 0.171264 0.351559
v 0.423757 -0.372171 -0.156936
v 0.565396 -0.350424 -0.144055
v 0.422020 -0.179869 -0.346914
v 0.563664 -0.171264 -0.319108
v 0.423757 0.372171 -0.156936
v 0.565396 0.350424 -0.144055
v 0.422020 0.179869 -0.346914
v 0.563664 0.171264 -0.319108
vn 1.0000 -0.0000 -0.0000
vn 0.9918 -0.0000 0.1274
vn 0.8886 -0.3067 0.3411
vn 0.9374 -0.3482 -0.0000
vn 0.7760 -0.0000 0.6307
vn 0.6516 -0.0000 0.7585
vn 0.6641 -0.2242 0.7132
vn 0.5967 -0.5462 0.5879
vn 0.6822 -0.6859 0.2533
vn 0.6765 -0.7365 -0.0000
vn -0.9816 -0.1351 0.1351
vn -0.9776 -0.0499 0.2047
vn -0.9770 -0.0396 0.2096
vn -0.9747 -0.0000 0.2236
vn 0.7805 0.1025 -0.6167
vn 0.7608 -0.0000 -0.6490
vn 0.7345 -0.0000 -0.6787
vn 0.7526 0.1162 -0.6481
vn 0.7949 0.2126 -0.5683
vn 0.7593 0.2123 -0.6151
vn -0.8306 -0.5542 0.0535
vn -0.7922 -0.5051 0.3424
vn -0.9267 -0.3230 0.1919
vn -0.9361 -0.3507 0.0279
vn -0.6209 -0.5472 0.5614
vn -0.8696 -0.2704 0.4131
vn -0.9651 -0.2434 0.0961
vn -0.9623 -0.2678 0.0477
vn -0.9582 -0.2860 -0.0000
vn -0.5989 -0.4166 0.6840
vn -0.7540 -0.2582 0.6040
vn -0.9091 -0.1481 0.3893
vn -0.8677 -0.3151 0.3844
vn -0.7758 -0.0010 0.6310
vn -0.9116 0.0003 0.4111
vn -0.9582 -0.0000 0.2862
vn -0.9623 -0.0477 0.2679
vn -0.9651 -0.0960 0.2436
vn 0.4358 -0.1961 0.8784
vn 0.4296 -0.3356 0.8384
vn 0.4299 -0.0000 0.9029
vn 0.2984 -0.0000 0.9544
vn 0.3087 -0.2166 0.9262
vn 0.3114 -0.3668 0.8766
vn 0.4268 -0.8797 0.2097
vn 0.4150 -0.9098 -0.0000
vn 0.4242 -0.8256 0.3721
vn 0.2893 -0.8752 0.3877
vn 0.2815 -0.9338 0.2210
vn 0.2626 -0.9649 -0.0000
vn -0.1978 -0.0039 0.9802
vn -0.2214 -0.1201 0.9678
vn -0.0852 -0.0290 0.9959
vn -0.0947 -0.0000 0.9955
vn -0.1389 -0.2680 0.9533
vn -0.0657 -0.0968 0.9931
vn -0.1337 -0.2712 0.9532
vn -0.1859 -0.0671 0.9803
vn -0.1835 -0.0000 0.9830
vn 0.0137 -0.9999 -0.0000
vn 0.0162 -0.9998 0.0128
vn 0.0789 -0.9965 0.0283
vn 0.0888 -0.9961 -0.0000
vn 0.0150 -0.9988 0.0456
vn 0.0657 -0.9933 0.0952
vn 0.2144 -0.9096 0.3559
vn 0.2740 -0.9570 0.0955
vn 0.2918 -0.9565 -0.0000
vn 0.4421 -0.8970 -0.0000
vn 0.4302 -0.8908 0.1462
vn 0.4064 -0.9030 0.1392
vn 0.4168 -0.9090 -0.0000
vn 0.4076 -0.8758 0.2584
vn 0.3868 -0.8891 0.2446
vn 0.2722 -0.8113 0.5175
vn 0.3165 -0.9240 0.2148
vn 0.3434 -0.9392 -0.0000
vn -0.0372 -0.9983 0.0458
vn -0.1136 -0.9934 0.0138
vn -0.1289 -0.9905 0.0483
vn -0.0955 -0.9838 0.1517
vn -0.1225 -0.9924 0.0136
vn -0.1466 -0.9892 -0.0000
vn -0.2862 -0.9582 -0.0000
vn -0.2849 -0.9516 0.1153
vn -0.1893 -0.8983 0.3966
vn 0.0005 -0.9980 0.0625
vn 0.0139 -0.9726 0.2322
vn 0.0483 -0.7805 0.6233
vn 0.2869 -0.9497 0.1255
vn 0.2957 -0.9553 -0.0000
vn 0.2257 -0.8565 0.4642
vn -0.4811 -0.0415 0.8757
vn -0.3424 -0.0480 0.9383
vn -0.3590 -0.0473 0.9321
vn -0.9069 0.4213 -0.0000
vn -0.8914 0.4141 0.1840
vn -0.5557 0.7534 0.3515
vn -0.5621 0.8036 0.1958
vn -0.5675 0.7987 0.2001
vn -0.5479 0.7603 0.3489
vn -0.5607 0.8280 -0.0000
vn -0.5642 0.8256 -0.0000
vn -0.5787 0.8156 -0.0000
vn -0.5806 0.8070 0.1079
vn -0.5661 0.7421 0.3588
vn 0.1904 -0.5967 0.7795
vn 0.1857 -0.6134 0.7676
vn 0.1677 -0.6388 0.7509
vn 0.1804 -0.6236 0.7606
vn -0.2367 0.0720 0.9689
vn -0.2347 0.0628 0.9700
vn -0.2178 -0.0321 0.9755
vn -0.2310 0.0419 0.9720
vn 0.4912 -0.2500 0.8344
vn 0.5089 -0.1396 0.8494
vn 0.5033 -0.1387 0.8529
vn 0.4846 -0.2456 0.8396
vn 0.5211 -0.0000 0.8535
vn 0.5141 -0.0000 0.8577
vn 0.4473 -0.0000 0.8944
vn 0.4156 -0.2361 0.8783
vn 0.3575 -0.5446 0.7587
vn 0.0138 -0.0416 0.9990
vn 0.0154 -0.0121 0.9998
vn 0.0575 -0.0190 0.9982
vn 0.0478 -0.0657 0.9967
vn 0.0129 -0.0000 0.9999
vn 0.0637 -0.0000 0.9980
vn 0.2543 -0.0000 0.9671
vn 0.2392 -0.0708 0.9684
vn 0.1913 -0.2723 0.9430
vn -0.0423 -0.1726 0.9841
vn 0.0094 -0.1622 0.9867
vn 0.0619 -0.5072 0.8596
vn 0.3933 -0.1295 0.9102
vn 0.3105 -0.5023 0.8070
vn 0.4027 -0.0000 0.9153
vn -0.8352 -0.1362 -0.5327
vn -0.8431 -0.0000 -0.5378
vn -0.7667 -0.0000 -0.6421
vn -0.7148 -0.1085 -0.6908
vn -0.4690 -0.8717 -0.1420
vn -0.5601 -0.8090 -0.1783
vn -0.3725 -0.9222 -0.1040
vn -0.6165 -0.0000 -0.7873
vn -0.6165 -0.1721 -0.7683
vn -0.6281 -0.1757 -0.7580
vn -0.6280 -0.0000 -0.7782
vn -0.6054 -0.3078 -0.7340
vn -0.6097 -0.3099 -0.7295
vn -0.6249 -0.3149 -0.7144
vn -0.2857 -0.9461 -0.1528
vn -0.2870 -0.9451 -0.1561
vn -0.2813 -0.9503 -0.1336
vn -0.2693 -0.9596 -0.0818
vn 0.2383 -0.7887 0.5667
vn 0.2392 -0.7879 0.5675
vn 0.2334 -0.7886 0.5689
vn 0.2211 -0.7870 0.5759
vn 0.7345 0.6787 -0.0000
vn 0.7526 0.6481 -0.1162
vn 0.4372 0.8893 -0.1344
vn 0.3981 0.9173 -0.0000
vn 0.7593 0.6151 -0.2123
vn 0.3567 0.9080 -0.2198
vn 0.0896 0.9753 -0.2020
vn 0.0739 0.9903 -0.1179
vn 0.0602 0.9982 -0.0000
vn -0.9747 -0.2236 -0.0000
vn -0.9776 -0.2046 0.0499
vn -0.9770 -0.2096 0.0396
vn 0.7805 0.6167 -0.1025
vn 0.7949 0.5683 -0.2126
vn 0.7608 0.6490 -0.0000
vn -0.8161 0.5779 -0.0000
vn -0.7923 0.5426 -0.2790
vn -0.8371 0.3869 -0.3869
vn -0.7316 0.4821 -0.4821
vn -0.7923 0.2790 -0.5426
vn -0.8161 -0.0000 -0.5779
vn -0.9973 0.0738 -0.0000
vn -0.9946 0.0736 -0.0736
vn -0.9973 -0.0000 -0.0738
vn -1.0000 -0.0000 -0.0000
vn 0.4372 0.1344 -0.8893
vn 0.3567 0.2198 -0.9080
vn 0.3981 -0.0000 -0.9173
vn 0.0602 -0.0000 -0.9982
vn 0.0739 0.1179 -0.9903
vn 0.0896 0.2020 -0.9753
vn 0.1900 -0.5952 0.7808
vn 0.1854 -0.6046 0.7747
vn -0.2303 -0.1008 0.9679
vn -0.2363 0.0333 0.9711
vn -0.2320 -0.0710 0.9701
vn -0.7337 0.4846 0.4762
vn -0.7831 0.5359 0.3156
vn -0.6836 0.6928 0.2294
vn -0.6896 0.5719 0.4443
vn -0.8128 0.5826 -0.0000
vn -0.6998 0.7143 -0.0000
vn 0.4246 -0.8935 0.1460
vn 0.4366 -0.8997 -0.0000
vn 0.4118 -0.8726 0.2625
vn 0.1168 -0.9532 0.2789
vn -0.0783 -0.6494 0.7564
vn -0.0499 -0.8782 0.4756
vn 0.0566 -0.9651 0.2556
vn -0.2725 -0.7610 0.5888
vn -0.5033 -0.8371 0.2142
vn -0.4976 -0.8666 0.0380
vn 0.0809 -0.9967 -0.0000
vn 0.1111 -0.9800 0.1650
vn 0.0586 -0.9944 0.0879
vn 0.0330 -0.9995 -0.0000
vn -0.0976 -0.6413 0.7610
vn -0.0940 -0.4884 0.8675
vn -0.3520 -0.5664 0.7452
vn 0.1285 -0.2801 0.9513
vn 0.0588 -0.2504 0.9664
vn 0.1323 -0.1670 0.9770
vn 0.0658 -0.0881 0.9939
vn 0.1065 -0.0000 0.9943
vn 0.0424 -0.0000 0.9991
vn -0.5100 -0.2083 0.8346
vn -0.5410 -0.0046 0.8410
vn -0.2743 -0.9556 0.1076
vn -0.2783 -0.9588 0.0576
vn -0.2861 -0.9537 -0.0929
vn 0.2117 -0.7270 0.6532
vn 0.2308 -0.7689 0.5963
vn -0.8592 -0.0000 -0.5117
vn -0.8300 -0.2786 -0.4832
vn -0.7330 -0.1994 -0.6503
vn -0.7489 -0.0000 -0.6627
vn -0.7864 -0.4230 -0.4501
vn -0.7374 -0.3904 -0.5512
vn 0.4428 -0.1244 0.8880
vn 0.4453 -0.2309 0.8651
vn 0.4554 -0.0000 0.8903
vn 0.9374 0.3482 -0.0000
vn 0.8886 0.3067 0.3411
vn 0.6765 0.7365 -0.0000
vn 0.6822 0.6859 0.2533
vn 0.5967 0.5462 0.5879
vn 0.6641 0.2242 0.7132
vn -0.9816 0.1351 0.1351
vn -0.9770 0.0396 0.2096
vn -0.9776 0.0499 0.2046
vn 0.7949 -0.2126 -0.5683
vn 0.7593 -0.2123 -0.6151
vn 0.7526 -0.1162 -0.6481
vn 0.7805 -0.1025 -0.6167
vn -0.8295 0.5562 0.0508
vn -0.9360 0.3508 0.0280
vn -0.9268 0.3228 0.1918
vn -0.7923 0.5046 0.3431
vn -0.9582 0.2860 -0.0000
vn -0.9623 0.2678 0.0477
vn -0.9651 0.2434 0.0961
vn -0.8697 0.2689 0.4139
vn -0.6192 0.5499 0.5605
vn -0.5997 0.4226 0.6795
vn -0.8678 0.3149 0.3843
vn -0.9091 0.1487 0.3891
vn -0.7544 0.2569 0.6041
vn -0.9651 0.0960 0.2436
vn -0.9623 0.0477 0.2679
vn 0.4296 0.3356 0.8384
vn 0.4358 0.1961 0.8784
vn 0.3114 0.3668 0.8766
vn 0.3087 0.2166 0.9262
vn 0.4150 0.9098 -0.0000
vn 0.4268 0.8797 0.2097
vn 0.2626 0.9649 -0.0000
vn 0.2815 0.9338 0.2210
vn 0.2893 0.8752 0.3877
vn 0.4242 0.8256 0.3721
vn -0.0852 0.0290 0.9959
vn -0.2113 0.1133 0.9708
vn -0.1860 0.0671 0.9803
vn -0.1337 0.2712 0.9532
vn -0.0657 0.0968 0.9931
vn -0.1324 0.2590 0.9568
vn 0.0137 0.9999 -0.0000
vn 0.0888 0.9961 -0.0000
vn 0.0789 0.9965 0.0283
vn 0.0162 0.9998 0.0128
vn 0.2918 0.9565 -0.0000
vn 0.2740 0.9570 0.0955
vn 0.2144 0.9096 0.3559
vn 0.0657 0.9933 0.0952
vn 0.0150 0.9988 0.0456
vn 0.4421 0.8970 -0.0000
vn 0.4168 0.9090 -0.0000
vn 0.4064 0.9030 0.1392
vn 0.4302 0.8908 0.1462
vn 0.3434 0.9392 -0.0000
vn 0.3165 0.9240 0.2148
vn 0.2722 0.8113 0.5175
vn 0.3868 0.8891 0.2446
vn 0.4076 0.8758 0.2584
vn -0.0372 0.9983 0.0458
vn -0.0955 0.9838 0.1517
vn -0.1289 0.9905 0.0483
vn -0.1136 0.9934 0.0138
vn -0.1893 0.8983 0.3966
vn -0.2849 0.9516 0.1153
vn -0.2862 0.9582 -0.0000
vn -0.1466 0.9892 -0.0000
vn -0.1353 0.9908 -0.0000
vn 0.0139 0.9726 0.2322
vn 0.0005 0.9980 0.0625
vn 0.0483 0.7805 0.6233
vn 0.2957 0.9553 -0.0000
vn 0.2869 0.9497 0.1255
vn -0.9069 -0.4213 -0.0000
vn -0.8914 -0.4141 0.1840
vn -0.4811 0.0415 0.8757
vn -0.3590 0.0473 0.9321
vn -0.3424 0.0480 0.9383
vn 0.2257 0.8565 0.4642
vn -0.5557 -0.7534 0.3515
vn -0.5479 -0.7603 0.3489
vn -0.5675 -0.7987 0.2001
vn -0.5621 -0.8036 0.1958
vn -0.5661 -0.7421 0.3588
vn -0.5806 -0.8070 0.1079
vn -0.5787 -0.8156 -0.0000
vn -0.5642 -0.8256 -0.0000
vn -0.5607 -0.8280 -0.0000
vn 0.1904 0.5968 0.7795
vn 0.1804 0.6236 0.7606
vn 0.1677 0.6388 0.7509
vn 0.1857 0.6134 0.7676
vn -0.2310 -0.0419 0.9720
vn -0.2178 0.0321 0.9755
vn -0.2367 -0.0720 0.9689
vn -0.2347 -0.0628 0.9700
vn 0.4912 0.2500 0.8344
vn 0.4846 0.2456 0.8396
vn 0.5033 0.1387 0.8529
vn 0.5089 0.1396 0.8494
vn 0.3575 0.5446 0.7587
vn 0.4156 0.2361 0.8783
vn 0.0138 0.0416 0.9990
vn 0.0478 0.0657 0.9967
vn 0.0575 0.0190 0.9982
vn 0.0154 0.0121 0.9998
vn 0.1913 0.2723 0.9430
vn 0.2392 0.0708 0.9684
vn 0.0094 0.1622 0.9867
vn -0.0405 0.1675 0.9850
vn 0.0619 0.5072 0.8596
vn 0.3105 0.5023 0.8070
vn 0.3933 0.1295 0.9102
vn -0.4691 0.8717 -0.1420
vn -0.3725 0.9222 -0.1040
vn -0.5601 0.8090 -0.1783
vn -0.8352 0.1362 -0.5327
vn -0.7148 0.1085 -0.6908
vn -0.6281 0.1757 -0.7580
vn -0.6165 0.1721 -0.7683
vn -0.6249 0.3149 -0.7144
vn -0.6097 0.3099 -0.7295
vn -0.6054 0.3078 -0.7340
vn -0.2857 0.9461 -0.1528
vn -0.2693 0.9596 -0.0819
vn -0.2813 0.9503 -0.1336
vn -0.2870 0.9451 -0.1561
vn 0.2211 0.7870 0.5759
vn 0.2334 0.7886 0.5689
vn 0.2383 0.7887 0.5667
vn 0.2392 0.7879 0.5675
vn 0.7345 -0.6787 -0.0000
vn 0.3981 -0.9173 -0.0000
vn 0.4372 -0.8893 -0.1344
vn 0.7526 -0.6481 -0.1162
vn 0.0602 -0.9982 -0.0000
vn 0.0739 -0.9903 -0.1179
vn 0.0896 -0.9753 -0.2020
vn 0.3567 -0.9080 -0.2198
vn 0.7593 -0.6151 -0.2123
vn -0.9747 0.2236 -0.0000
vn -0.9770 0.2096 0.0396
vn -0.9776 0.2046 0.0499
vn 0.7608 -0.6490 -0.0000
vn 0.7805 -0.6167 -0.1025
vn 0.7949 -0.5683 -0.2126
vn -0.8161 -0.5779 -0.0000
vn -0.8371 -0.3869 -0.3869
vn -0.7923 -0.5426 -0.2790
vn -0.9973 -0.0738 -0.0000
vn -0.9946 -0.0736 -0.0736
vn -0.7923 -0.2790 -0.5426
vn -0.7316 -0.4821 -0.4821
vn 0.3567 -0.2198 -0.9080
vn 0.4372 -0.1344 -0.8893
vn 0.0896 -0.2020 -0.9753
vn 0.0739 -0.1179 -0.9903
vn 0.1854 0.6046 0.7747
vn 0.1900 0.5952 0.7808
vn -0.2320 0.0710 0.9701
vn -0.2363 -0.0333 0.9711
vn -0.2303 0.1008 0.9679
vn -0.7337 -0.4846 0.4762
vn -0.6896 -0.5719 0.4443
vn -0.6836 -0.6928 0.2294
vn -0.7831 -0.5359 0.3156
vn -0.6998 -0.7143 -0.0000
vn -0.8128 -0.5826 -0.0000
vn 0.4366 0.8997 -0.0000
vn 0.4246 0.8935 0.1460
vn 0.4118 0.8726 0.2625
vn 0.1168 0.9532 0.2789
vn 0.0566 0.9651 0.2556
vn -0.0492 0.8796 0.4731
vn -0.0775 0.6537 0.7528
vn -0.2713 0.7651 0.5839
vn -0.5029 0.8377 0.2131
vn -0.4975 0.8672 0.0229
vn 0.0809 0.9967 -0.0000
vn 0.0330 0.9995 -0.0000
vn 0.0586 0.9944 0.0879
vn 0.1111 0.9800 0.1650
vn -0.3451 0.5664 0.7484
vn -0.0917 0.4859 0.8692
vn -0.0959 0.6433 0.7596
vn 0.0588 0.2504 0.9664
vn 0.1285 0.2801 0.9513
vn 0.0658 0.0881 0.9939
vn 0.1323 0.1670 0.9770
vn -0.5035 0.2045 0.8394
vn -0.2743 0.9556 0.1076
vn -0.2861 0.9537 -0.0929
vn -0.2783 0.9588 0.0576
vn 0.2308 0.7689 0.5963
vn 0.2117 0.7270 0.6532
vn -0.7330 0.1994 -0.6503
vn -0.8300 0.2786 -0.4832
vn -0.7374 0.3904 -0.5512
vn -0.7864 0.4230 -0.4501
vn 0.4453 0.2309 0.8651
vn 0.4428 0.1244 0.8880
vn 0.8886 -0.3067 -0.3411
vn 0.9918 -0.0000 -0.1274
vn 0.6822 -0.6859 -0.2533
vn 0.5967 -0.5462 -0.5879
vn 0.6641 -0.2242 -0.7132
vn 0.7760 -0.0000 -0.6307
vn 0.6516 -0.0000 -0.7585
vn -0.9816 -0.1351 -0.1351
vn -0.9770 -0.0396 -0.2096
vn -0.9776 -0.0499 -0.2046
vn 0.7949 0.2126 0.5683
vn 0.7593 0.2123 0.6151
vn 0.7526 0.1162 0.6481
vn 0.7805 0.1025 0.6167
vn 0.7345 -0.0000 0.6787
vn 0.7608 -0.0000 0.6490
vn -0.9747 -0.0000 -0.2236
vn -0.9436 -0.2917 -0.1568
vn -0.8172 -0.4787 -0.3209
vn -0.9623 -0.2678 -0.0477
vn -0.9651 -0.2434 -0.0961
vn -0.8824 -0.1636 -0.4411
vn -0.5835 -0.6310 -0.5112
vn -0.6251 -0.4331 -0.6494
vn -0.8940 -0.3375 -0.2948
vn -0.9316 -0.1578 -0.3274
vn -0.8024 -0.2644 -0.5351
vn -0.9651 -0.0960 -0.2436
vn -0.9623 -0.0477 -0.2679
vn -0.9582 -0.0000 -0.2862
vn -0.9349 -0.0000 -0.3550
vn -0.8258 -0.0000 -0.5640
vn 0.4296 -0.3356 -0.8384
vn 0.4358 -0.1961 -0.8784
vn 0.3114 -0.3668 -0.8766
vn 0.3087 -0.2166 -0.9262
vn 0.2984 -0.0000 -0.9544
vn 0.4299 -0.0000 -0.9029
vn 0.4268 -0.8797 -0.2097
vn 0.2815 -0.9338 -0.2210
vn 0.2893 -0.8752 -0.3877
vn 0.4242 -0.8256 -0.3721
vn -0.1069 -0.0000 -0.9943
vn -0.0947 -0.0000 -0.9955
vn -0.0852 -0.0290 -0.9959
vn -0.0944 -0.0195 -0.9953
vn -0.1835 -0.0000 -0.9830
vn -0.1860 -0.0671 -0.9803
vn -0.1337 -0.2712 -0.9532
vn -0.0657 -0.0968 -0.9931
vn -0.0409 -0.0680 -0.9968
vn 0.0789 -0.9965 -0.0283
vn 0.0162 -0.9998 -0.0128
vn 0.2740 -0.9570 -0.0955
vn 0.2144 -0.9096 -0.3559
vn 0.0657 -0.9933 -0.0952
vn 0.0150 -0.9988 -0.0456
vn 0.4064 -0.9030 -0.1392
vn 0.4302 -0.8908 -0.1462
vn 0.3165 -0.9240 -0.2148
vn 0.2722 -0.8113 -0.5175
vn 0.3868 -0.8891 -0.2446
vn 0.4076 -0.8758 -0.2584
vn -0.0229 -0.9987 -0.0444
vn -0.0955 -0.9838 -0.1517
vn -0.1289 -0.9905 -0.0483
vn -0.0772 -0.9970 0.0020
vn -0.1893 -0.8983 -0.3966
vn -0.2849 -0.9516 -0.1153
vn 0.0139 -0.9726 -0.2322
vn 0.0005 -0.9980 -0.0625
vn 0.0483 -0.7805 -0.6233
vn 0.2869 -0.9497 -0.1255
vn -0.8914 0.4141 -0.1840
vn -0.4811 -0.0415 -0.8757
vn -0.3590 -0.0473 -0.9321
vn -0.3424 -0.0480 -0.9383
vn 0.2257 -0.8565 -0.4642
vn -0.5557 0.7534 -0.3515
vn -0.5479 0.7603 -0.3489
vn -0.5675 0.7987 -0.2001
vn -0.5621 0.8036 -0.1958
vn -0.5661 0.7421 -0.3588
vn -0.5806 0.8070 -0.1079
vn 0.1904 -0.5968 -0.7795
vn 0.1804 -0.6236 -0.7606
vn 0.1677 -0.6388 -0.7509
vn 0.1857 -0.6134 -0.7676
vn -0.2310 0.0419 -0.9720
vn -0.2178 -0.0321 -0.9755
vn -0.2367 0.0720 -0.9689
vn -0.2347 0.0628 -0.9700
vn 0.4912 -0.2500 -0.8344
vn 0.4846 -0.2456 -0.8396
vn 0.5033 -0.1387 -0.8529
vn 0.5089 -0.1396 -0.8494
vn 0.3575 -0.5446 -0.7587
vn 0.4156 -0.2361 -0.8783
vn 0.4473 -0.0000 -0.8944
vn 0.5141 -0.0000 -0.8577
vn 0.5211 -0.0000 -0.8535
vn 0.0138 -0.0416 -0.9990
vn 0.0478 -0.0657 -0.9967
vn 0.0575 -0.0190 -0.9982
vn 0.0154 -0.0121 -0.9998
vn 0.1913 -0.2723 -0.9430
vn 0.2392 -0.0708 -0.9684
vn 0.2543 -0.0000 -0.9671
vn 0.0637 -0.0000 -0.9980
vn 0.0129 -0.0000 -0.9999
vn 0.0094 -0.1622 -0.9867
vn -0.0050 -0.0699 -0.9975
vn 0.0619 -0.5072 -0.8596
vn 0.3105 -0.5023 -0.8070
vn 0.3933 -0.1295 -0.9102
vn -0.4691 -0.8717 0.1420
vn -0.3725 -0.9222 0.1040
vn -0.5601 -0.8090 0.1783
vn -0.8352 -0.1362 0.5327
vn -0.7148 -0.1085 0.6908
vn -0.7667 -0.0000 0.6421
vn -0.8431 -0.0000 0.5378
vn 0.4027 -0.0000 -0.9153
vn -0.6165 -0.0000 0.7873
vn -0.6280 -0.0000 0.7782
vn -0.6281 -0.1757 0.7580
vn -0.6165 -0.1721 0.7683
vn -0.6249 -0.3149 0.7144
vn -0.6097 -0.3099 0.7295
vn -0.6054 -0.3078 0.7340
vn -0.2857 -0.9461 0.1528
vn -0.2693 -0.9596 0.0819
vn -0.2813 -0.9503 0.1336
vn -0.2870 -0.9451 0.1561
vn 0.2211 -0.7870 -0.5759
vn 0.2334 -0.7886 -0.5689
vn 0.2383 -0.7887 -0.5667
vn 0.2392 -0.7879 -0.5675
vn 0.4372 0.8893 0.1344
vn 0.7526 0.6481 0.1162
vn 0.0739 0.9903 0.1179
vn 0.0896 0.9753 0.2020
vn 0.3567 0.9080 0.2198
vn 0.7593 0.6151 0.2123
vn -0.9770 -0.2096 -0.0396
vn -0.9776 -0.2046 -0.0499
vn 0.7805 0.6167 0.1025
vn 0.7949 0.5683 0.2126
vn -0.8371 0.3869 0.3869
vn -0.7923 0.5426 0.2790
vn -0.9973 -0.0000 0.0738
vn -0.9946 0.0736 0.0736
vn -0.8161 -0.0000 0.5779
vn -0.7923 0.2790 0.5426
vn -0.7316 0.4821 0.4821
vn 0.3567 0.2198 0.9080
vn 0.4372 0.1344 0.8893
vn 0.0896 0.2020 0.9753
vn 0.0739 0.1179 0.9903
vn 0.0602 -0.0000 0.9982
vn 0.3981 -0.0000 0.9173
vn 0.1854 -0.6046 -0.7747
vn 0.1900 -0.5952 -0.7808
vn -0.2320 -0.0710 -0.9701
vn -0.2363 0.0333 -0.9711
vn -0.2303 -0.1008 -0.9679
vn -0.7337 0.4846 -0.4762
vn -0.6896 0.5719 -0.4443
vn -0.6836 0.6928 -0.2294
vn -0.7831 0.5359 -0.3156
vn 0.4246 -0.8935 -0.1460
vn 0.4118 -0.8726 -0.2625
vn 0.1168 -0.9532 -0.2789
vn 0.0566 -0.9651 -0.2556
vn -0.0418 -0.8942 -0.4458
vn -0.0661 -0.7007 -0.7104
vn -0.2203 -0.8143 -0.5371
vn -0.4351 -0.8884 -0.1468
vn 0.0586 -0.9944 -0.0879
vn 0.1111 -0.9800 -0.1650
vn -0.2562 -0.5654 -0.7840
vn -0.0403 -0.4583 -0.8879
vn -0.0580 -0.7258 -0.6854
vn 0.0588 -0.2504 -0.9664
vn 0.1285 -0.2801 -0.9513
vn 0.0658 -0.0881 -0.9939
vn 0.1323 -0.1670 -0.9770
vn 0.0424 -0.0000 -0.9991
vn 0.1065 -0.0000 -0.9943
vn -0.4777 -0.0000 -0.8785
vn -0.4610 -0.1435 -0.8757
vn -0.2743 -0.9556 -0.1076
vn -0.2861 -0.9537 0.0929
vn -0.2783 -0.9588 -0.0576
vn 0.2308 -0.7689 -0.5963
vn 0.2117 -0.7270 -0.6532
vn -0.8592 -0.0000 0.5117
vn -0.7489 -0.0000 0.6627
vn -0.7330 -0.1994 0.6503
vn -0.8300 -0.2786 0.4832
vn -0.7374 -0.3904 0.5512
vn -0.7864 -0.4230 0.4501
vn 0.4453 -0.2309 -0.8651
vn 0.4428 -0.1244 -0.8880
vn 0.4554 -0.0000 -0.8903
vn 0.8886 0.3067 -0.3411
vn 0.6641 0.2242 -0.7132
vn 0.5967 0.5462 -0.5879
vn 0.6822 0.6859 -0.2533
vn -0.9816 0.1351 -0.1351
vn -0.9776 0.0499 -0.2047
vn -0.9770 0.0396 -0.2096
vn 0.7805 -0.1025 0.6167
vn 0.7526 -0.1162 0.6481
vn 0.7949 -0.2126 0.5683
vn 0.7593 -0.2123 0.6151
vn -0.8136 0.4849 -0.3208
vn -0.9436 0.2918 -0.1567
vn -0.5813 0.6582 -0.4784
vn -0.8824 0.1636 -0.4411
vn -0.9651 0.2434 -0.0961
vn -0.9623 0.2678 -0.0477
vn -0.6251 0.4331 -0.6494
vn -0.8024 0.2643 -0.5351
vn -0.9316 0.1578 -0.3274
vn -0.8940 0.3375 -0.2948
vn -0.9623 0.0477 -0.2679
vn -0.9651 0.0960 -0.2436
vn 0.4358 0.1961 -0.8784
vn 0.4296 0.3356 -0.8384
vn 0.3087 0.2166 -0.9262
vn 0.3114 0.3668 -0.8766
vn 0.4268 0.8797 -0.2097
vn 0.4242 0.8256 -0.3721
vn 0.2893 0.8752 -0.3877
vn 0.2815 0.9338 -0.2210
vn -0.0944 0.0196 -0.9953
vn -0.0852 0.0290 -0.9959
vn -0.0409 0.0681 -0.9968
vn -0.0657 0.0968 -0.9931
vn -0.1337 0.2712 -0.9532
vn -0.1859 0.0671 -0.9803
vn 0.0162 0.9998 -0.0128
vn 0.0789 0.9965 -0.0283
vn 0.0150 0.9988 -0.0456
vn 0.0657 0.9933 -0.0952
vn 0.2144 0.9096 -0.3559
vn 0.2740 0.9570 -0.0955
vn 0.4302 0.8908 -0.1462
vn 0.4064 0.9030 -0.1392
vn 0.4076 0.8758 -0.2584
vn 0.3868 0.8891 -0.2446
vn 0.2722 0.8113 -0.5175
vn 0.3165 0.9240 -0.2148
vn -0.0372 0.9983 -0.0458
vn -0.1136 0.9934 -0.0138
vn -0.1289 0.9905 -0.0483
vn -0.0955 0.9838 -0.1517
vn -0.2849 0.9516 -0.1153
vn -0.1893 0.8983 -0.3966
vn 0.0005 0.9980 -0.0625
vn 0.0139 0.9726 -0.2322
vn 0.0483 0.7805 -0.6233
vn 0.2869 0.9497 -0.1255
vn 0.2257 0.8565 -0.4642
vn -0.4811 0.0415 -0.8757
vn -0.3424 0.0480 -0.9383
vn -0.3590 0.0473 -0.9321
vn -0.8914 -0.4141 -0.1840
vn -0.5557 -0.7534 -0.3515
vn -0.5621 -0.8036 -0.1958
vn -0.5675 -0.7987 -0.2001
vn -0.5479 -0.7603 -0.3489
vn -0.5806 -0.8070 -0.1079
vn -0.5661 -0.7421 -0.3588
vn 0.1904 0.5967 -0.7795
vn 0.1857 0.6134 -0.7676
vn 0.1677 0.6388 -0.7509
vn 0.1804 0.6236 -0.7606
vn -0.2367 -0.0720 -0.9689
vn -0.2347 -0.0628 -0.9700
vn -0.2178 0.0321 -0.9755
vn -0.2310 -0.0419 -0.9720
vn 0.4912 0.2500 -0.8344
vn 0.5089 0.1396 -0.8494
vn 0.5033 0.1387 -0.8529
vn 0.4846 0.2456 -0.8396
vn 0.4156 0.2361 -0.8783
vn 0.3575 0.5446 -0.7587
vn 0.0138 0.0416 -0.9990
vn 0.0154 0.0121 -0.9998
vn 0.0575 0.0190 -0.9982
vn 0.0478 0.0657 -0.9967
vn 0.2392 0.0708 -0.9684
vn 0.1913 0.2723 -0.9430
vn -0.0050 0.0699 -0.9975
vn 0.0094 0.1622 -0.9867
vn 0.0619 0.5072 -0.8596
vn 0.3933 0.1295 -0.9102
vn 0.3105 0.5023 -0.8070
vn -0.8352 0.1362 0.5327
vn -0.7148 0.1085 0.6908
vn -0.4690 0.8717 0.1420
vn -0.5601 0.8090 0.1783
vn -0.3725 0.9222 0.1040
vn -0.6165 0.1721 0.7683
vn -0.6281 0.1757 0.7580
vn -0.6054 0.3078 0.7340
vn -0.6097 0.3099 0.7295
vn -0.6249 0.3149 0.7144
vn -0.2857 0.9461 0.1528
vn -0.2870 0.9451 0.1561
vn -0.2813 0.9503 0.1336
vn -0.2693 0.9596 0.0818
vn 0.2383 0.7887 -0.5667
vn 0.2392 0.7879 -0.5675
vn 0.2334 0.7886 -0.5689
vn 0.2211 0.7870 -0.5759
vn 0.7526 -0.6481 0.1162
vn 0.4372 -0.8893 0.1344
vn 0.7593 -0.6151 0.2123
vn 0.3567 -0.9080 0.2198
vn 0.0896 -0.9753 0.2020
vn 0.0739 -0.9903 0.1179
vn -0.9776 0.2046 -0.0499
vn -0.9770 0.2096 -0.0396
vn 0.7805 -0.6167 0.1025
vn 0.7949 -0.5683 0.2126
vn -0.7923 -0.5426 0.2790
vn -0.8371 -0.3869 0.3869
vn -0.7316 -0.4821 0.4821
vn -0.7923 -0.2790 0.5426
vn -0.9946 -0.0736 0.0736
vn 0.4372 -0.1344 0.8893
vn 0.3567 -0.2198 0.9080
vn 0.0739 -0.1179 0.9903
vn 0.0896 -0.2020 0.9753
vn 0.1900 0.5952 -0.7808
vn 0.1854 0.6046 -0.7747
vn -0.2303 0.1008 -0.9679
vn -0.2363 -0.0333 -0.9711
vn -0.2320 0.0710 -0.9701
vn -0.7337 -0.4846 -0.4762
vn -0.7831 -0.5359 -0.3156
vn -0.6836 -0.6928 -0.2294
vn -0.6896 -0.5719 -0.4443
vn 0.4246 0.8935 -0.1460
vn 0.4118 0.8726 -0.2625
vn 0.1168 0.9532 -0.2789
vn -0.0662 0.7006 -0.7104
vn -0.0418 0.8941 -0.4458
vn 0.0566 0.9651 -0.2556
vn -0.2416 0.8128 -0.5301
vn -0.4589 0.8764 -0.1459
vn 0.1111 0.9800 -0.1650
vn 0.0586 0.9944 -0.0879
vn -0.0580 0.7258 -0.6855
vn -0.0404 0.4583 -0.8879
vn -0.2562 0.5654 -0.7840
vn 0.1285 0.2801 -0.9513
vn 0.0588 0.2504 -0.9664
vn 0.1323 0.1670 -0.9770
vn 0.0658 0.0881 -0.9939
vn -0.4610 0.1435 -0.8757
vn -0.2743 0.9556 -0.1076
vn -0.2783 0.9588 -0.0576
vn -0.2861 0.9537 0.0929
vn 0.2117 0.7270 -0.6532
vn 0.2308 0.7689 -0.5963
vn -0.8300 0.2786 0.4832
vn -0.7330 0.1994 0.6503
vn -0.7864 0.4230 0.4501
vn -0.7374 0.3904 0.5512
vn 0.4428 0.1244 -0.8880
vn 0.4453 0.2309 -0.8651
vn 0.1689 -0.9232 0.3452
vn 0.1521 -0.9687 0.1962
vn 0.1947 -0.9570 0.2152
vn 0.2072 -0.9030 0.3765
vn 0.1744 -0.9847 -0.0000
vn 0.1297 -0.9916 -0.0000
vn 0.1659 -0.0000 0.9861
vn 0.1820 -0.1994 0.9629
vn 0.2265 -0.2158 0.9498
vn 0.2139 -0.0000 0.9768
vn 0.2324 -0.3685 0.9001
vn 0.1928 -0.3455 0.9184
vn 0.1297 0.9916 -0.0000
vn 0.1521 0.9687 0.1962
vn 0.1947 0.9570 0.2152
vn 0.1744 0.9847 -0.0000
vn 0.2072 0.9030 0.3765
vn 0.1689 0.9232 0.3452
vn 0.1928 0.3455 0.9184
vn 0.1820 0.1994 0.9629
vn 0.2265 0.2158 0.9498
vn 0.2324 0.3685 0.9001
vn 0.1521 -0.9687 -0.1962
vn 0.1947 -0.9570 -0.2152
vn 0.2072 -0.9030 -0.3765
vn 0.1689 -0.9232 -0.3452
vn 0.1928 -0.3455 -0.9184
vn 0.1820 -0.1994 -0.9629
vn 0.2265 -0.2158 -0.9498
vn 0.2324 -0.3685 -0.9001
vn 0.2139 -0.0000 -0.9768
vn 0.1659 -0.0000 -0.9861
vn 0.1689 0.9232 -0.3452
vn 0.1521 0.9687 -0.1962
vn 0.1947 0.9570 -0.2152
vn 0.2072 0.9030 -0.3765
vn 0.1820 0.1994 -0.9629
vn 0.2265 0.2158 -0.9498
vn 0.2324 0.3685 -0.9001
vn 0.1928 0.3455 -0.9184
vt 0.490940 0.152203
vt 0.497197 0.151254
vt 0.498509 0.159692
vt 0.492184 0.160397
vt 0.507177 0.149739
vt 0.508143 0.160973
vt 0.509771 0.169613
vt 0.502361 0.169837
vt 0.493856 0.171416
vt 0.036613 0.038546
vt 0.033481 0.039850
vt 0.033058 0.038985
vt 0.035882 0.037814
vt 0.029226 0.040057
vt 0.029226 0.039161
vt 0.105787 0.802669
vt 0.104529 0.804024
vt 0.099584 0.799975
vt 0.102986 0.796345
vt 0.106990 0.801889
vt 0.106434 0.794169
vt 0.827156 0.039257
vt 0.857663 0.034361
vt 0.832339 0.072282
vt 0.825397 0.072313
vt 0.896154 0.021170
vt 0.838824 0.073238
vt 0.045329 0.039005
vt 0.044347 0.046283
vt 0.037919 0.035414
vt 0.045152 0.031160
vt 0.038127 0.031159
vt 0.881159 0.060164
vt 0.839579 0.079627
vt 0.877004 0.086670
vt 0.839412 0.086522
vt 0.037089 0.047301
vt 0.029227 0.047131
vt 0.530665 0.166708
vt 0.525250 0.181935
vt 0.530781 0.146156
vt 0.575191 0.139416
vt 0.574184 0.178735
vt 0.561714 0.208622
vt 0.513841 0.190426
vt 0.497508 0.195473
vt 0.539215 0.229149
vt 0.504621 0.242335
vt 0.125431 0.415991
vt 0.130118 0.385057
vt 0.148056 0.389498
vt 0.144825 0.416945
vt 0.150951 0.364630
vt 0.162847 0.370542
vt 0.168054 0.374390
vt 0.156864 0.392141
vt 0.154481 0.417403
vt 0.255070 0.260249
vt 0.256415 0.292385
vt 0.239820 0.291472
vt 0.238239 0.262885
vt 0.237686 0.317486
vt 0.226138 0.313861
vt 0.217447 0.311584
vt 0.228278 0.291019
vt 0.226620 0.264664
vt 0.722348 0.335330
vt 0.692953 0.339631
vt 0.682634 0.249329
vt 0.702617 0.245915
vt 0.668315 0.331524
vt 0.666062 0.245280
vt 0.667846 0.182678
vt 0.675306 0.170097
vt 0.685133 0.166684
vt 0.146852 0.325229
vt 0.124671 0.307458
vt 0.138673 0.302958
vt 0.156101 0.320258
vt 0.117925 0.278301
vt 0.133167 0.276625
vt 0.139795 0.275889
vt 0.144610 0.300650
vt 0.159363 0.317275
vt 0.192217 0.328902
vt 0.191489 0.324117
vt 0.188907 0.320995
vt 0.676867 0.145756
vt 0.680250 0.144553
vt 0.665594 0.160053
vt 0.660672 0.157070
vt 0.671935 0.143455
vt 0.679546 0.141363
vt 0.636875 0.073312
vt 0.649698 0.076356
vt 0.661505 0.112201
vt 0.651646 0.108973
vt 0.664660 0.073902
vt 0.672774 0.110674
vt 0.663617 0.135465
vt 0.649385 0.305397
vt 0.653670 0.225029
vt 0.635526 0.276733
vt 0.645786 0.205298
vt 0.730616 0.509677
vt 0.754393 0.504854
vt 0.741426 0.601531
vt 0.725900 0.603140
vt 0.783206 0.509900
vt 0.760387 0.605297
vt 0.741771 0.683122
vt 0.734049 0.680196
vt 0.727739 0.666834
vt 0.239550 0.364291
vt 0.261916 0.386145
vt 0.242024 0.390647
vt 0.226550 0.370678
vt 0.266465 0.419304
vt 0.244838 0.419553
vt 0.229331 0.419559
vt 0.227611 0.393420
vt 0.216328 0.374909
vt 0.194414 0.359949
vt 0.194281 0.365284
vt 0.191987 0.368952
vt 0.736729 0.696704
vt 0.726496 0.686486
vt 0.738327 0.697524
vt 0.737749 0.699938
vt 0.731853 0.698133
vt 0.720929 0.686071
vt 0.723068 0.761316
vt 0.711832 0.759120
vt 0.722405 0.727015
vt 0.730944 0.728389
vt 0.702452 0.760286
vt 0.715119 0.728688
vt 0.725348 0.704772
vt 0.698806 0.549842
vt 0.712955 0.528620
vt 0.714478 0.618008
vt 0.706167 0.632070
vt 0.113634 0.797900
vt 0.110022 0.795287
vt 0.118634 0.758777
vt 0.137908 0.768364
vt 0.102599 0.752855
vt 0.097525 0.713324
vt 0.130880 0.705399
vt 0.176670 0.721205
vt 0.037054 0.034991
vt 0.037230 0.031159
vt 0.108190 0.802108
vt 0.109470 0.802990
vt 0.670175 0.811292
vt 0.702518 0.814881
vt 0.698270 0.841736
vt 0.668776 0.839909
vt 0.723772 0.818796
vt 0.725331 0.840351
vt 0.725331 0.872656
vt 0.697077 0.871274
vt 0.667313 0.869819
vt 0.088570 0.763320
vt 0.072214 0.777482
vt 0.032858 0.745134
vt 0.065887 0.718225
vt 0.670236 0.399014
vt 0.645508 0.365172
vt 0.647330 0.350338
vt 0.669987 0.380537
vt 0.626765 0.328411
vt 0.630366 0.317262
vt 0.626765 0.048665
vt 0.641908 0.052256
vt 0.643472 0.057216
vt 0.628942 0.054021
vt 0.659300 0.049612
vt 0.660378 0.054498
vt 0.737780 0.405263
vt 0.700872 0.409970
vt 0.698785 0.389958
vt 0.733323 0.385066
vt 0.296890 0.334456
vt 0.194047 0.344691
vt 0.192938 0.336171
vt 0.256806 0.323253
vt 0.087366 0.347094
vt 0.131629 0.333201
vt 0.049484 0.317235
vt 0.098376 0.314365
vt 0.034934 0.284912
vt 0.087728 0.281292
vt 0.318474 0.249489
vt 0.321696 0.292802
vt 0.282679 0.293679
vt 0.281367 0.255955
vt 0.194240 0.352647
vt 0.123933 0.354598
vt 0.258845 0.354521
vt 0.330981 0.369796
vt 0.290415 0.379020
vt 0.339359 0.416331
vt 0.297378 0.418444
vt 0.044485 0.411911
vt 0.054096 0.382032
vt 0.099158 0.381251
vt 0.089200 0.414411
vt 0.693521 0.492214
vt 0.712142 0.462731
vt 0.712805 0.478727
vt 0.696076 0.503834
vt 0.734855 0.435606
vt 0.733883 0.456186
vt 0.718118 0.782008
vt 0.704836 0.779585
vt 0.706258 0.775838
vt 0.719007 0.778291
vt 0.693521 0.781119
vt 0.695600 0.777048
vt 0.764780 0.427923
vt 0.761931 0.450437
vt 0.801450 0.433628
vt 0.796012 0.456361
vt 0.489696 0.144010
vt 0.495946 0.142806
vt 0.488024 0.132991
vt 0.496614 0.131975
vt 0.503757 0.129990
vt 0.504766 0.138724
vt 0.021838 0.038546
vt 0.022569 0.037815
vt 0.025393 0.038985
vt 0.024970 0.039851
vt 0.102895 0.806879
vt 0.095212 0.807825
vt 0.096681 0.804019
vt 0.103434 0.805534
vt 0.827126 0.133776
vt 0.825390 0.100720
vt 0.832337 0.100749
vt 0.857846 0.138702
vt 0.013300 0.031159
vt 0.020325 0.031159
vt 0.020533 0.035415
vt 0.013121 0.039005
vt 0.014102 0.046285
vt 0.838811 0.099793
vt 0.896809 0.151977
vt 0.839558 0.093395
vt 0.881861 0.113187
vt 0.021363 0.047304
vt 0.514883 0.113630
vt 0.524572 0.126564
vt 0.541785 0.077325
vt 0.562562 0.102165
vt 0.484372 0.108934
vt 0.501468 0.108907
vt 0.477259 0.062072
vt 0.514209 0.064399
vt 0.145911 0.444850
vt 0.127358 0.447469
vt 0.155087 0.443070
vt 0.165102 0.462353
vt 0.159362 0.465759
vt 0.146535 0.470534
vt 0.258870 0.596622
vt 0.238016 0.593584
vt 0.240341 0.558951
vt 0.259814 0.557614
vt 0.223724 0.591320
vt 0.226882 0.559471
vt 0.215239 0.534858
vt 0.224970 0.532615
vt 0.237963 0.528639
vt 0.586348 0.609301
vt 0.566617 0.519886
vt 0.586181 0.514572
vt 0.614823 0.600832
vt 0.549134 0.440655
vt 0.559484 0.439615
vt 0.571546 0.447888
vt 0.599510 0.503926
vt 0.633761 0.583109
vt 0.138416 0.512442
vt 0.147568 0.518955
vt 0.126015 0.535475
vt 0.111848 0.528070
vt 0.150591 0.522429
vt 0.131862 0.539044
vt 0.122150 0.566371
vt 0.114970 0.563940
vt 0.098463 0.558425
vt 0.186691 0.519203
vt 0.187505 0.514286
vt 0.183922 0.522105
vt 0.544250 0.418523
vt 0.547826 0.418191
vt 0.543546 0.415333
vt 0.551331 0.414028
vt 0.567277 0.421639
vt 0.564068 0.426416
vt 0.553616 0.335644
vt 0.555224 0.374210
vt 0.547639 0.381288
vt 0.543265 0.343802
vt 0.555513 0.403280
vt 0.536774 0.384645
vt 0.528660 0.347873
vt 0.602229 0.480340
vt 0.639939 0.551441
vt 0.601077 0.459124
vt 0.640447 0.519607
vt 0.830205 0.533499
vt 0.792117 0.618979
vt 0.779000 0.610518
vt 0.811183 0.518438
vt 0.761655 0.674947
vt 0.749982 0.684006
vt 0.239948 0.476795
vt 0.225983 0.469879
vt 0.242281 0.448985
vt 0.263149 0.453266
vt 0.215111 0.465112
vt 0.227266 0.446103
vt 0.191560 0.474493
vt 0.191295 0.480549
vt 0.189481 0.470103
vt 0.753872 0.693035
vt 0.740122 0.697516
vt 0.759023 0.695183
vt 0.743824 0.700997
vt 0.739181 0.731027
vt 0.734082 0.764441
vt 0.746621 0.709860
vt 0.744920 0.735817
vt 0.741918 0.769726
vt 0.840396 0.583710
vt 0.796623 0.653707
vt 0.795576 0.637407
vt 0.837382 0.558382
vt 0.100261 0.814169
vt 0.075988 0.843700
vt 0.062851 0.826646
vt 0.097002 0.811131
vt 0.037226 0.890859
vt 0.012853 0.848995
vt 0.014171 0.814737
vt 0.053937 0.812061
vt 0.021222 0.031160
vt 0.021398 0.034992
vt 0.104434 0.809111
vt 0.103335 0.808029
vt 0.664452 0.928346
vt 0.665851 0.899728
vt 0.695382 0.900787
vt 0.696991 0.927929
vt 0.722180 0.904806
vt 0.718525 0.926106
vt 0.061488 0.796271
vt 0.012853 0.782748
vt 0.660422 0.645139
vt 0.652871 0.628274
vt 0.660715 0.591344
vt 0.668611 0.604034
vt 0.662184 0.554201
vt 0.670143 0.562799
vt 0.552415 0.309031
vt 0.552694 0.314806
vt 0.540858 0.323819
vt 0.540189 0.318661
vt 0.524378 0.328468
vt 0.523300 0.323583
vt 0.601780 0.679233
vt 0.597323 0.659036
vt 0.630713 0.648940
vt 0.637241 0.667971
vt 0.303864 0.507355
vt 0.259460 0.521865
vt 0.188461 0.506695
vt 0.189875 0.497787
vt 0.123608 0.501722
vt 0.080956 0.480270
vt 0.085556 0.515679
vt 0.037713 0.500901
vt 0.066932 0.547264
vt 0.014942 0.527881
vt 0.338305 0.605301
vt 0.291681 0.600687
vt 0.290682 0.554892
vt 0.336709 0.552338
vt 0.118586 0.477388
vt 0.190573 0.488765
vt 0.261004 0.487051
vt 0.293409 0.459276
vt 0.337165 0.465054
vt 0.097170 0.448197
vt 0.051855 0.442457
vt 0.871186 0.534711
vt 0.863649 0.543917
vt 0.860093 0.513958
vt 0.867922 0.499993
vt 0.851496 0.484318
vt 0.859942 0.465527
vt 0.731487 0.781872
vt 0.731060 0.785858
vt 0.740445 0.787774
vt 0.740455 0.792346
vt 0.829085 0.466501
vt 0.836732 0.445133
vt 0.485934 0.161601
vt 0.484683 0.153153
vt 0.485266 0.172431
vt 0.478123 0.174417
vt 0.477114 0.165683
vt 0.474703 0.154668
vt 0.036615 0.023771
vt 0.035884 0.024502
vt 0.033059 0.023330
vt 0.033482 0.022465
vt 0.110995 0.805187
vt 0.118684 0.804240
vt 0.117215 0.808045
vt 0.110452 0.806539
vt 0.114316 0.812088
vt 0.109377 0.808040
vt 0.029226 0.023156
vt 0.029226 0.022259
vt 0.818397 0.072042
vt 0.793585 0.029534
vt 0.037920 0.026904
vt 0.045333 0.023314
vt 0.044354 0.016032
vt 0.811708 0.072712
vt 0.754216 0.013364
vt 0.810862 0.079411
vt 0.771198 0.056495
vt 0.037091 0.015011
vt 0.029226 0.015184
vt 0.811007 0.086526
vt 0.776517 0.086517
vt 0.466997 0.190777
vt 0.457308 0.177843
vt 0.440095 0.227082
vt 0.419318 0.202241
vt 0.406689 0.164991
vt 0.451099 0.158251
vt 0.480412 0.195500
vt 0.467671 0.240008
vt 0.093817 0.148644
vt 0.110397 0.142733
vt 0.120089 0.165997
vt 0.105419 0.173876
vt 0.118730 0.139798
vt 0.127259 0.161739
vt 0.141563 0.175350
vt 0.137678 0.179717
vt 0.128248 0.187224
vt 0.231194 0.235323
vt 0.246392 0.229563
vt 0.220561 0.239073
vt 0.204523 0.222651
vt 0.211944 0.218239
vt 0.221580 0.211696
vt 0.722181 0.240602
vt 0.750823 0.326861
vt 0.695484 0.165644
vt 0.707546 0.173918
vt 0.735510 0.229955
vt 0.769761 0.309138
vt 0.135113 0.226640
vt 0.144851 0.229341
vt 0.132597 0.249878
vt 0.118451 0.248611
vt 0.148516 0.231461
vt 0.138643 0.250867
vt 0.176750 0.217929
vt 0.176010 0.213556
vt 0.175321 0.221229
vt 0.683825 0.144221
vt 0.687331 0.140058
vt 0.703277 0.147669
vt 0.700068 0.152446
vt 0.689616 0.061674
vt 0.691224 0.100239
vt 0.683639 0.107317
vt 0.679264 0.069832
vt 0.691513 0.129309
vt 0.738229 0.206370
vt 0.775938 0.277471
vt 0.737077 0.185153
vt 0.776447 0.245637
vt 0.944523 0.728629
vt 0.906436 0.814109
vt 0.893318 0.805648
vt 0.925502 0.713568
vt 0.875974 0.870077
vt 0.864301 0.879136
vt 0.856090 0.878252
vt 0.874706 0.800427
vt 0.897524 0.705030
vt 0.209875 0.167558
vt 0.196146 0.165027
vt 0.205189 0.142540
vt 0.224575 0.141581
vt 0.185569 0.163714
vt 0.191202 0.143622
vt 0.186122 0.118928
vt 0.200377 0.115198
vt 0.220261 0.110245
vt 0.167910 0.178383
vt 0.169363 0.183688
vt 0.164896 0.175184
vt 0.868190 0.888165
vt 0.854441 0.892646
vt 0.873342 0.890313
vt 0.858143 0.896127
vt 0.852068 0.895068
vt 0.852645 0.892654
vt 0.837386 0.956446
vt 0.845263 0.923519
vt 0.853499 0.926157
vt 0.848400 0.959571
vt 0.860940 0.904990
vt 0.859239 0.930947
vt 0.856237 0.964856
vt 0.954715 0.778840
vt 0.910942 0.848837
vt 0.909894 0.832537
vt 0.951701 0.753512
vt 0.151046 0.785417
vt 0.116894 0.800935
vt 0.201043 0.763068
vt 0.199725 0.797326
vt 0.159960 0.800003
vt 0.037055 0.027327
vt 0.110569 0.804046
vt 0.639244 0.838850
vt 0.637636 0.811708
vt 0.637550 0.868364
vt 0.609295 0.866982
vt 0.612447 0.834832
vt 0.616102 0.813531
vt 0.152409 0.815793
vt 0.201043 0.829315
vt 0.181038 0.866929
vt 0.141683 0.834581
vt 0.796421 0.371169
vt 0.788871 0.354304
vt 0.796714 0.317374
vt 0.804610 0.330064
vt 0.798184 0.280231
vt 0.806143 0.288829
vt 0.688415 0.035061
vt 0.688694 0.040836
vt 0.676858 0.049849
vt 0.676189 0.044691
vt 0.766712 0.374969
vt 0.773241 0.394001
vt 0.270804 0.178848
vt 0.237517 0.200910
vt 0.174604 0.206933
vt 0.173150 0.199107
vt 0.119034 0.222211
vt 0.075991 0.218182
vt 0.095408 0.246436
vt 0.045016 0.249459
vt 0.270346 0.220320
vt 0.306302 0.208587
vt 0.110665 0.201045
vt 0.171038 0.190994
vt 0.230340 0.171380
vt 0.252232 0.140591
vt 0.290560 0.137722
vt 0.248363 0.103748
vt 0.285522 0.095843
vt 0.021892 0.174797
vt 0.066757 0.158466
vt 0.082169 0.185264
vt 0.038383 0.197184
vt 0.985505 0.729841
vt 0.977968 0.739047
vt 0.974411 0.709087
vt 0.982241 0.695123
vt 0.965814 0.679448
vt 0.974260 0.660657
vt 0.832437 0.977138
vt 0.833326 0.973421
vt 0.845806 0.977002
vt 0.845379 0.980988
vt 0.854763 0.982904
vt 0.854774 0.987476
vt 0.943404 0.661631
vt 0.951051 0.640263
vt 0.910331 0.651491
vt 0.915768 0.628758
vt 0.483371 0.144715
vt 0.473737 0.143434
vt 0.472109 0.134794
vt 0.479519 0.134570
vt 0.021838 0.023772
vt 0.024971 0.022466
vt 0.025394 0.023331
vt 0.022569 0.024503
vt 0.108133 0.809377
vt 0.110913 0.815714
vt 0.106910 0.810157
vt 0.107462 0.817893
vt 0.793555 0.143509
vt 0.818371 0.100991
vt 0.754216 0.159652
vt 0.811692 0.100324
vt 0.013121 0.023314
vt 0.014101 0.016034
vt 0.020533 0.026904
vt 0.771192 0.116531
vt 0.810854 0.093632
vt 0.021362 0.015014
vt 0.451215 0.137699
vt 0.456629 0.122472
vt 0.407696 0.125672
vt 0.420166 0.095784
vt 0.468039 0.113981
vt 0.442665 0.075258
vt 0.087137 0.121310
vt 0.103829 0.117951
vt 0.096703 0.095321
vt 0.109396 0.095177
vt 0.115528 0.096312
vt 0.112276 0.116656
vt 0.248392 0.635565
vt 0.228442 0.628121
vt 0.215124 0.659290
vt 0.202162 0.649877
vt 0.192366 0.643152
vt 0.214530 0.622972
vt 0.556954 0.613602
vt 0.546634 0.523299
vt 0.532316 0.605494
vt 0.530063 0.519250
vt 0.531847 0.456649
vt 0.539307 0.444067
vt 0.105099 0.623508
vt 0.091301 0.591947
vt 0.108223 0.594857
vt 0.117874 0.623283
vt 0.115578 0.595752
vt 0.123097 0.621791
vt 0.152100 0.654358
vt 0.154539 0.647412
vt 0.153959 0.641608
vt 0.540867 0.419727
vt 0.529594 0.434024
vt 0.524673 0.431040
vt 0.535935 0.417426
vt 0.500876 0.347282
vt 0.513698 0.350326
vt 0.525506 0.386172
vt 0.515646 0.382943
vt 0.527618 0.409435
vt 0.513385 0.579367
vt 0.517670 0.498999
vt 0.499527 0.550704
vt 0.509786 0.479268
vt 0.844934 0.704807
vt 0.868712 0.699984
vt 0.855745 0.796661
vt 0.840219 0.798270
vt 0.848368 0.875325
vt 0.842058 0.861964
vt 0.181894 0.062649
vt 0.209142 0.079854
vt 0.190641 0.088502
vt 0.170063 0.072450
vt 0.177245 0.094753
vt 0.160781 0.079675
vt 0.132721 0.069358
vt 0.135268 0.075827
vt 0.135046 0.081247
vt 0.851047 0.891834
vt 0.840814 0.881616
vt 0.846171 0.893263
vt 0.835248 0.881201
vt 0.826151 0.954250
vt 0.836723 0.922144
vt 0.816771 0.955416
vt 0.829438 0.923818
vt 0.839666 0.899902
vt 0.813125 0.744972
vt 0.827274 0.723750
vt 0.828796 0.813138
vt 0.820486 0.827200
vt 0.103872 0.816776
vt 0.095262 0.853286
vt 0.111297 0.859207
vt 0.116371 0.898739
vt 0.083017 0.906664
vt 0.021397 0.027327
vt 0.105689 0.809970
vt 0.632109 0.924757
vt 0.636357 0.897901
vt 0.610855 0.920842
vt 0.609295 0.899287
vt 0.125327 0.848742
vt 0.148009 0.893838
vt 0.534236 0.672984
vt 0.509508 0.639142
vt 0.511331 0.624308
vt 0.533988 0.654507
vt 0.490765 0.602381
vt 0.494366 0.591233
vt 0.490765 0.322635
vt 0.505908 0.326226
vt 0.507472 0.331186
vt 0.492943 0.327991
vt 0.564872 0.683940
vt 0.562785 0.663929
vt 0.285043 0.702582
vt 0.143919 0.676430
vt 0.148214 0.664428
vt 0.237118 0.674140
vt 0.033052 0.609981
vt 0.084451 0.623288
vt 0.012666 0.566639
vt 0.061221 0.584280
vt 0.327747 0.657836
vt 0.280157 0.646487
vt 0.035441 0.107163
vt 0.124917 0.050846
vt 0.128948 0.060733
vt 0.073471 0.096310
vt 0.237500 0.022055
vt 0.199986 0.048497
vt 0.273251 0.054949
vt 0.235699 0.068092
vt 0.020310 0.147086
vt 0.061617 0.127875
vt 0.807840 0.687344
vt 0.826460 0.657861
vt 0.827124 0.673857
vt 0.810395 0.698964
vt 0.849173 0.630736
vt 0.848202 0.651316
vt 0.819154 0.974715
vt 0.820577 0.970968
vt 0.807840 0.976249
vt 0.809918 0.972178
vt 0.879099 0.623053
vt 0.876249 0.645567
vt 0.565976 0.889063
vt 0.534407 0.914467
vt 0.516396 0.885337
vt 0.538344 0.870365
vt 0.483222 0.893468
vt 0.487966 0.930317
vt 0.579477 0.801823
vt 0.579477 0.850093
vt 0.546338 0.843307
vt 0.544875 0.806239
vt 0.457940 0.699614
vt 0.507111 0.703188
vt 0.496828 0.736156
vt 0.462735 0.736403
vt 0.522271 0.745133
vt 0.544520 0.719958
vt 0.567509 0.754833
vt 0.536886 0.769877
vt 0.438897 0.926843
vt 0.449107 0.893901
vt 0.423687 0.885074
vt 0.401513 0.910190
vt 0.378529 0.875340
vt 0.409077 0.860276
vt 0.401149 0.824032
vt 0.366593 0.828472
vt 0.379886 0.741273
vt 0.411428 0.715714
vt 0.429592 0.744876
vt 0.407607 0.759939
vt 0.366490 0.780308
vt 0.399618 0.787065
vt 0.616926 0.188931
vt 0.602057 0.234431
vt 0.355392 0.287569
vt 0.357185 0.325568
vt 0.567193 0.267020
vt 0.366551 0.364443
vt 0.600354 0.079746
vt 0.616926 0.133081
vt 0.373888 0.413737
vt 0.375494 0.465379
vt 0.512115 0.291709
vt 0.452191 0.284476
vt 0.349140 0.243702
vt 0.338422 0.201738
vt 0.572653 0.040707
vt 0.529689 0.019931
vt 0.372460 0.509678
vt 0.377448 0.553763
vt 0.414687 0.037387
vt 0.469765 0.012698
vt 0.377448 0.608910
vt 0.369233 0.661923
vt 0.409227 0.263700
vt 0.381526 0.224661
vt 0.326848 0.168077
vt 0.322400 0.132261
vt 0.364954 0.171326
vt 0.364954 0.115476
vt 0.305252 0.047956
vt 0.314985 0.089858
vt 0.379823 0.069976
vt 0.360802 0.705621
vt 0.296579 0.013030
s 1
usemtl マテリアル
f 13/1/1 168/2/2 451/3/3 177/4/4
f 168/2/5 3/5/6 155/6/7 451/3/3
f 451/3/3 155/6/7 2/7/8 166/8/9
f 177/4/4 451/3/3 166/8/9 11/9/10
f 5/10/11 157/11/12 452/12/13 210/13/11
f 157/11/12 6/14/14 170/15/14 452/12/13
f 452/16/15 170/17/16 35/18/17 206/19/18
f 210/20/19 452/16/15 206/19/18 34/21/20
f 17/22/21 172/23/22 453/24/23 175/25/24
f 172/23/22 10/26/25 159/27/26 453/24/23
f 453/28/23 159/29/26 5/10/27 169/30/28
f 175/31/24 453/28/23 169/30/28 14/32/29
f 10/26/30 165/33/31 454/34/32 159/27/33
f 165/33/31 9/35/34 163/36/35 454/34/32
f 454/37/32 163/38/35 6/14/36 157/11/37
f 159/29/33 454/37/32 157/11/37 5/10/38
f 2/7/8 155/6/7 455/39/39 160/40/40
f 155/6/7 3/5/6 161/41/41 455/39/39
f 455/39/39 161/41/41 8/42/42 162/43/43
f 160/40/40 455/39/39 162/43/43 7/44/44
f 11/9/10 166/8/9 456/45/45 174/46/46
f 166/8/9 2/7/8 160/40/47 456/45/45
f 456/45/45 160/40/47 7/44/48 171/47/49
f 174/46/46 456/45/45 171/47/49 16/48/50
f 49/49/51 236/50/52 457/51/53 231/52/54
f 236/50/52 48/53/55 158/54/56 457/51/53
f 457/51/53 158/54/56 29/55/57 194/56/58
f 231/52/54 457/51/53 194/56/58 28/57/59
f 45/58/60 229/59/61 458/60/62 224/61/63
f 229/59/61 44/62/64 182/63/65 458/60/62
f 458/60/62 182/63/65 18/64/66 179/65/67
f 224/61/63 458/60/62 179/65/67 20/66/68
f 41/67/69 222/68/70 459/69/71 217/70/72
f 222/68/70 37/71/73 181/72/74 459/69/71
f 459/69/71 181/72/74 22/73/75 186/74/76
f 217/70/72 459/69/71 186/74/76 24/75/77
f 47/76/78 228/77/79 460/78/80 226/79/81
f 228/77/79 46/80/82 184/81/83 460/78/80
f 460/78/80 184/81/83 21/82/84 180/83/85
f 226/79/81 460/78/80 180/83/85 19/84/86
f 44/62/64 227/85/87 461/86/88 182/63/65
f 227/85/87 47/76/78 226/79/81 461/86/88
f 461/86/88 226/79/81 19/84/86 178/87/89
f 182/63/65 461/86/88 178/87/89 18/64/66
f 24/75/77 186/74/76 462/88/90 188/89/91
f 186/74/76 22/73/75 173/90/92 462/88/90
f 462/88/93 173/90/94 23/91/95 187/92/93
f 188/89/96 462/88/97 187/92/97 25/93/96
f 43/94/98 221/95/99 463/96/100 219/97/101
f 221/95/99 42/98/102 190/99/103 463/96/100
f 463/96/100 190/99/103 25/93/104 187/92/105
f 219/97/101 463/96/100 187/92/105 23/100/106
f 37/71/107 220/101/108 464/102/109 181/72/110
f 220/101/111 43/103/112 219/104/113 464/102/114
f 464/102/114 219/104/113 23/91/95 173/90/94
f 181/72/110 464/102/109 173/90/92 22/73/75
f 53/105/115 243/106/116 465/107/117 238/108/118
f 243/106/116 52/109/119 202/110/120 465/107/117
f 465/107/117 202/110/120 31/111/121 198/112/122
f 238/108/118 465/107/117 198/112/122 30/113/123
f 51/114/124 235/115/125 466/116/126 233/117/127
f 235/115/125 50/118/128 196/119/129 466/116/126
f 466/116/126 196/119/129 27/120/130 192/121/131
f 233/117/127 466/116/126 192/121/131 26/122/132
f 48/53/55 234/123/133 467/124/134 158/54/56
f 234/123/133 51/114/124 233/117/127 467/124/134
f 467/124/134 233/117/127 26/122/132 193/125/135
f 158/54/56 467/124/134 193/125/135 29/55/57
f 30/113/123 198/112/122 468/126/136 200/127/137
f 198/112/122 31/111/121 199/128/138 468/126/136
f 468/126/139 199/128/140 32/129/141 201/130/142
f 200/127/143 468/126/144 201/130/144 33/131/145
f 55/132/146 242/133/147 469/134/148 240/135/149
f 242/133/147 54/136/150 204/137/151 469/134/148
f 469/134/148 204/137/151 33/138/152 201/130/142
f 240/135/149 469/134/148 201/130/142 32/129/141
f 54/139/153 241/140/154 470/141/155 204/142/156
f 241/140/157 53/105/158 238/108/159 470/141/160
f 470/141/160 238/108/159 30/113/123 200/127/137
f 204/142/156 470/141/155 200/127/143 33/131/145
f 36/143/161 207/144/162 471/145/163 215/146/164
f 207/144/162 34/21/165 209/147/166 471/145/163
f 471/145/163 209/147/166 15/148/167 212/149/168
f 215/146/164 471/145/163 212/149/168 39/150/169
f 14/32/170 169/30/171 472/151/172 211/152/170
f 169/30/171 5/10/11 210/13/11 472/151/172
f 472/153/173 210/20/174 34/21/165 207/144/162
f 211/154/175 472/153/173 207/144/162 36/143/161
f 39/155/176 212/156/177 473/157/178 214/158/176
f 212/156/177 15/159/179 176/160/180 473/157/178
f 473/157/178 176/160/180 38/161/181 213/162/181
f 214/158/182 473/157/183 213/162/184 40/163/185
f 34/21/20 206/19/18 474/164/186 209/147/187
f 206/19/18 35/18/17 208/165/188 474/164/186
f 474/164/186 208/165/188 38/166/189 176/167/190
f 209/147/187 474/164/186 176/167/190 15/148/191
f 18/168/66 178/169/89 475/170/192 216/171/193
f 178/169/194 19/172/194 191/173/195 475/170/196
f 475/170/196 191/173/195 43/103/112 220/101/111
f 216/171/193 475/170/192 220/101/108 37/71/107
f 19/174/197 180/175/198 476/176/199 191/177/200
f 180/175/198 21/178/201 218/179/202 476/176/199
f 476/176/199 218/179/202 42/98/102 221/95/99
f 191/177/200 476/176/199 221/95/99 43/94/98
f 20/180/68 179/181/67 477/182/203 189/183/204
f 179/181/67 18/168/66 216/171/205 477/182/203
f 477/182/203 216/171/205 37/71/73 222/68/70
f 189/183/204 477/182/203 222/68/70 41/67/69
f 1/184/206 164/185/207 478/186/208 223/187/209
f 164/185/207 10/188/25 185/189/210 478/186/208
f 478/186/208 185/189/210 47/76/78 227/85/87
f 223/187/209 478/186/208 227/85/87 44/62/64
f 10/188/25 172/190/22 479/191/211 185/189/210
f 172/190/22 17/192/21 225/193/212 479/191/211
f 479/191/211 225/193/212 46/80/82 228/77/79
f 185/189/210 479/191/211 228/77/79 47/76/78
f 12/194/213 167/195/214 480/196/215 183/197/216
f 167/195/214 1/184/206 223/187/209 480/196/215
f 480/196/215 223/187/209 44/62/64 229/59/61
f 183/197/216 480/196/215 229/59/61 45/58/60
f 10/188/30 164/185/217 481/198/218 230/199/219
f 164/185/217 1/184/220 197/200/221 481/198/218
f 481/198/218 197/200/221 51/114/124 234/123/133
f 230/199/219 481/198/218 234/123/133 48/53/55
f 1/184/220 156/201/222 482/202/223 197/200/221
f 156/201/222 4/203/224 232/204/225 482/202/223
f 482/202/223 232/204/225 50/118/128 235/115/125
f 197/200/221 482/202/223 235/115/125 51/114/124
f 9/205/34 165/206/31 483/207/226 195/208/227
f 165/206/31 10/188/30 230/199/219 483/207/226
f 483/207/226 230/199/219 48/53/55 236/50/52
f 195/208/227 483/207/226 236/50/52 49/49/51
f 29/209/228 193/210/228 484/211/229 239/212/230
f 193/210/135 26/213/132 203/214/231 484/211/232
f 484/211/232 203/214/231 53/105/158 241/140/157
f 239/212/230 484/211/229 241/140/154 54/139/153
f 28/215/233 194/216/234 485/217/235 205/218/236
f 194/216/234 29/219/237 239/220/238 485/217/235
f 485/217/235 239/220/238 54/136/150 242/133/147
f 205/218/236 485/217/235 242/133/147 55/132/146
f 26/213/132 192/221/131 486/222/239 203/214/240
f 192/221/131 27/223/130 237/224/241 486/222/239
f 486/222/239 237/224/241 52/109/119 243/106/116
f 203/214/240 486/222/239 243/106/116 53/105/115
f 13/1/1 262/225/242 487/226/243 168/2/2
f 262/225/242 61/227/244 253/228/245 487/226/243
f 487/226/243 253/228/245 57/229/246 244/230/247
f 168/2/5 487/226/243 244/230/247 3/5/6
f 58/231/248 289/232/248 488/233/249 246/234/250
f 289/235/251 79/236/252 286/237/253 488/238/254
f 488/238/254 286/237/253 35/18/17 170/17/16
f 246/234/250 488/233/249 170/15/14 6/14/14
f 66/239/255 260/240/256 489/241/257 257/242/258
f 260/243/256 63/244/259 255/245/260 489/246/257
f 489/246/257 255/245/260 58/231/261 248/247/262
f 257/242/258 489/241/257 248/248/262 60/249/263
f 60/249/264 248/248/265 490/250/266 252/251/267
f 248/247/265 58/231/268 246/234/269 490/252/266
f 490/252/266 246/234/269 6/14/36 163/38/35
f 252/251/267 490/250/266 163/36/35 9/35/34
f 57/229/246 249/253/270 491/254/271 244/230/247
f 249/253/270 59/255/272 250/256/273 491/254/271
f 491/254/271 250/256/273 8/42/42 161/41/41
f 244/230/247 491/254/271 161/41/41 3/5/6
f 61/227/244 259/257/274 492/258/275 253/228/245
f 259/257/274 65/259/276 256/260/277 492/258/275
f 492/258/275 256/260/277 59/255/278 249/253/279
f 253/228/245 492/258/275 249/253/279 57/229/246
f 49/49/51 231/52/54 493/261/280 312/262/281
f 231/52/54 28/57/59 279/263/282 493/261/280
f 493/261/280 279/263/282 76/264/283 247/265/284
f 312/262/281 493/261/280 247/265/284 90/266/285
f 87/267/286 302/268/287 494/269/288 307/270/289
f 302/268/287 69/271/290 264/272/291 494/269/288
f 494/269/288 264/272/291 67/273/292 267/274/293
f 307/270/289 494/269/288 267/274/293 86/275/294
f 83/276/295 295/277/296 495/278/297 300/279/298
f 295/277/296 73/280/299 271/281/300 495/278/297
f 495/278/297 271/281/300 71/282/301 266/283/302
f 300/279/298 495/278/297 266/283/302 81/284/303
f 89/285/304 304/286/305 496/287/306 306/288/307
f 304/286/305 68/289/308 265/290/309 496/287/306
f 496/287/306 265/290/309 70/291/310 269/292/311
f 306/288/307 496/287/306 269/292/311 88/293/312
f 86/275/294 267/274/293 497/294/313 305/295/314
f 267/274/293 67/273/292 263/296/315 497/294/313
f 497/294/313 263/296/315 68/289/308 304/286/305
f 305/295/314 497/294/313 304/286/305 89/285/304
f 73/280/299 273/297/316 498/298/317 271/281/300
f 273/297/318 74/299/318 272/300/319 498/298/319
f 498/298/320 272/300/320 72/301/321 258/302/322
f 271/281/300 498/298/317 258/302/323 71/282/301
f 85/303/324 297/304/325 499/305/326 299/306/327
f 297/304/325 72/307/328 272/300/329 499/305/326
f 499/305/326 272/300/329 74/299/330 275/308/331
f 299/306/327 499/305/326 275/308/331 84/309/332
f 81/284/333 266/283/334 500/310/335 298/311/336
f 266/283/334 71/282/301 258/302/323 500/310/335
f 500/310/337 258/302/322 72/301/321 297/312/338
f 298/311/339 500/310/337 297/312/338 85/313/340
f 92/314/341 313/315/342 501/316/343 317/317/344
f 313/315/342 77/318/345 281/319/346 501/316/343
f 501/316/343 281/319/346 31/111/121 202/110/120
f 317/317/344 501/316/343 202/110/120 52/109/119
f 91/320/347 309/321/348 502/322/349 311/323/350
f 309/321/348 75/324/351 277/325/352 502/322/349
f 502/322/349 277/325/352 27/120/130 196/119/129
f 311/323/350 502/322/349 196/119/129 50/118/128
f 90/266/285 247/265/284 503/326/353 310/327/354
f 247/265/284 76/264/283 278/328/355 503/326/353
f 503/326/353 278/328/355 75/324/351 309/321/348
f 310/327/354 503/326/353 309/321/348 91/320/347
f 77/318/345 282/329/356 504/330/357 281/319/346
f 282/329/358 78/331/359 283/332/360 504/330/360
f 504/330/361 283/332/362 32/129/141 199/128/140
f 281/319/346 504/330/357 199/128/138 31/111/121
f 55/132/146 240/135/149 505/333/363 316/334/364
f 240/135/149 32/129/141 283/332/362 505/333/363
f 505/333/363 283/332/362 78/335/365 285/336/366
f 316/334/364 505/333/363 285/336/366 93/337/367
f 93/338/368 285/339/369 506/340/370 315/341/371
f 285/339/369 78/331/359 282/329/358 506/340/370
f 506/340/372 282/329/356 77/318/345 313/315/373
f 315/341/374 506/340/372 313/315/373 92/314/375
f 80/342/376 293/343/377 507/344/378 287/345/379
f 293/343/377 82/346/380 291/347/381 507/344/378
f 507/344/378 291/347/381 64/348/382 288/349/383
f 287/345/379 507/344/378 288/349/383 79/236/384
f 63/244/385 290/350/385 508/351/386 255/245/387
f 290/352/388 80/342/376 287/345/379 508/353/389
f 508/353/389 287/345/379 79/236/384 289/235/390
f 255/245/387 508/351/386 289/232/248 58/231/248
f 82/354/391 292/355/391 509/356/392 291/357/393
f 292/355/394 40/163/185 213/162/184 509/356/395
f 509/356/392 213/162/181 38/161/181 261/358/396
f 291/357/393 509/356/392 261/358/396 64/359/397
f 79/236/252 288/349/398 510/360/399 286/237/253
f 288/349/398 64/348/400 261/361/401 510/360/399
f 510/360/399 261/361/401 38/166/189 208/165/188
f 286/237/253 510/360/399 208/165/188 35/18/17
f 67/362/292 294/363/402 511/364/403 263/365/315
f 294/363/402 81/284/333 298/311/336 511/364/403
f 511/364/404 298/311/339 85/313/340 276/366/405
f 263/365/406 511/364/404 276/366/405 68/367/406
f 68/368/407 276/369/408 512/370/409 265/371/410
f 276/369/408 85/303/324 299/306/327 512/370/409
f 512/370/409 299/306/327 84/309/332 296/372/411
f 265/371/410 512/370/409 296/372/411 70/373/412
f 69/374/290 274/375/413 513/376/414 264/377/291
f 274/375/413 83/276/295 300/279/298 513/376/414
f 513/376/414 300/279/298 81/284/303 294/363/415
f 264/377/291 513/376/414 294/363/415 67/362/292
f 56/378/416 301/379/417 514/380/418 251/381/419
f 301/379/417 86/275/294 305/295/314 514/380/418
f 514/380/418 305/295/314 89/285/304 270/382/420
f 251/381/419 514/380/418 270/382/420 60/383/263
f 60/383/263 270/382/420 515/384/421 257/385/258
f 270/382/420 89/285/304 306/288/307 515/384/421
f 515/384/421 306/288/307 88/293/312 303/386/422
f 257/385/258 515/384/421 303/386/422 66/387/255
f 62/388/423 268/389/424 516/390/425 254/391/426
f 268/389/424 87/267/286 307/270/289 516/390/425
f 516/390/425 307/270/289 86/275/294 301/379/417
f 254/391/426 516/390/425 301/379/417 56/378/416
f 60/383/264 308/392/427 517/393/428 251/381/429
f 308/392/427 90/266/285 310/327/354 517/393/428
f 517/393/428 310/327/354 91/320/347 280/394/430
f 251/381/429 517/393/428 280/394/430 56/378/431
f 56/378/431 280/394/430 518/395/432 245/396/433
f 280/394/430 91/320/347 311/323/350 518/395/432
f 518/395/432 311/323/350 50/118/128 232/204/225
f 245/396/433 518/395/432 232/204/225 4/203/224
f 9/205/34 195/208/227 519/397/434 252/398/267
f 195/208/227 49/49/51 312/262/281 519/397/434
f 519/397/434 312/262/281 90/266/285 308/392/427
f 252/398/267 519/397/434 308/392/427 60/383/264
f 76/399/435 314/400/436 520/401/437 278/402/435
f 314/400/436 93/338/368 315/341/371 520/401/437
f 520/401/438 315/341/374 92/314/375 284/403/439
f 278/402/355 520/401/438 284/403/439 75/404/351
f 28/215/233 205/218/236 521/405/440 279/406/441
f 205/218/236 55/132/146 316/334/364 521/405/440
f 521/405/440 316/334/364 93/337/367 314/407/442
f 279/406/441 521/405/440 314/407/442 76/408/443
f 75/404/351 284/403/444 522/409/445 277/410/352
f 284/403/444 92/314/341 317/317/344 522/409/445
f 522/409/445 317/317/344 52/109/119 237/224/241
f 277/410/352 522/409/445 237/224/241 27/223/130
f 13/1/1 177/4/4 523/411/446 331/412/447
f 177/4/4 11/9/10 329/413/448 523/411/446
f 523/411/446 329/413/448 95/414/449 318/415/450
f 331/412/451 523/411/446 318/415/450 96/416/452
f 98/417/453 365/418/453 524/419/454 320/420/455
f 365/421/456 117/422/457 361/423/458 524/424/459
f 524/424/459 361/423/458 118/425/460 333/426/461
f 320/420/455 524/419/454 333/427/462 99/428/462
f 17/22/21 175/25/24 525/429/463 335/430/464
f 175/31/24 14/32/29 332/431/465 525/432/463
f 525/432/463 332/431/465 98/417/466 322/433/467
f 335/430/464 525/429/463 322/434/467 103/435/468
f 103/435/469 322/434/470 526/436/471 328/437/472
f 322/433/470 98/417/473 320/420/474 526/438/471
f 526/438/471 320/420/474 99/428/475 326/439/476
f 328/437/472 526/436/471 326/440/476 102/441/477
f 95/414/449 323/442/478 527/443/479 318/415/450
f 323/442/478 100/444/480 325/445/481 527/443/479
f 527/443/479 325/445/481 101/446/482 324/447/483
f 318/415/450 527/443/479 324/447/483 96/416/452
f 11/9/10 174/46/46 528/448/484 329/413/448
f 174/46/46 16/48/50 334/449/485 528/448/484
f 528/448/484 334/449/485 100/444/486 323/442/487
f 329/413/448 528/448/484 323/442/487 95/414/449
f 125/450/488 379/451/489 529/452/490 384/453/491
f 379/451/489 111/454/492 349/455/493 529/452/490
f 529/452/490 349/455/493 112/456/494 321/457/495
f 384/453/491 529/452/490 321/457/495 124/458/496
f 45/58/60 224/61/63 530/459/497 377/460/498
f 224/61/63 20/66/68 339/461/499 530/459/497
f 530/459/497 339/461/499 105/462/500 342/463/501
f 377/460/498 530/459/497 342/463/501 122/464/502
f 41/67/69 217/70/72 531/465/503 372/466/504
f 217/70/72 24/75/77 344/467/505 531/465/503
f 531/465/503 344/467/505 107/468/506 341/469/507
f 372/466/504 531/465/503 341/469/507 119/470/508
f 123/471/509 374/472/510 532/473/511 376/474/512
f 374/472/510 106/475/513 340/476/514 532/473/511
f 532/473/511 340/476/514 21/82/84 184/81/83
f 376/474/512 532/473/511 184/81/83 46/80/82
f 122/464/502 342/463/501 533/477/515 375/478/516
f 342/463/501 105/462/500 338/479/517 533/477/515
f 533/477/515 338/479/517 106/475/513 374/472/510
f 375/478/516 533/477/515 374/472/510 123/471/509
f 24/75/77 188/89/91 534/480/518 344/467/505
f 188/89/96 25/93/96 345/481/519 534/480/519
f 534/480/520 345/481/520 108/482/521 336/483/522
f 344/467/505 534/480/518 336/483/523 107/468/506
f 121/484/524 369/485/525 535/486/526 371/487/527
f 369/485/525 108/488/528 345/481/529 535/486/526
f 535/486/526 345/481/529 25/93/104 190/99/103
f 371/487/527 535/486/526 190/99/103 42/98/102
f 119/470/530 341/469/531 536/489/532 370/490/533
f 341/469/531 107/468/506 336/483/523 536/489/532
f 536/489/534 336/483/522 108/482/521 369/491/535
f 370/490/536 536/489/534 369/491/535 121/492/537
f 129/493/538 386/494/539 537/495/540 391/496/541
f 386/494/539 113/497/542 353/498/543 537/495/540
f 537/495/540 353/498/543 114/499/544 357/500/545
f 391/496/541 537/495/540 357/500/545 128/501/546
f 127/502/547 381/503/548 538/504/549 383/505/550
f 381/503/548 109/506/551 347/507/552 538/504/549
f 538/504/549 347/507/552 110/508/553 351/509/554
f 383/505/550 538/504/549 351/509/554 126/510/555
f 124/458/496 321/457/495 539/511/556 382/512/557
f 321/457/495 112/456/494 348/513/558 539/511/556
f 539/511/556 348/513/558 109/506/551 381/503/548
f 382/512/557 539/511/556 381/503/548 127/502/547
f 113/497/542 355/514/559 540/515/560 353/498/543
f 355/514/561 116/516/562 356/517/563 540/515/563
f 540/515/564 356/517/565 115/518/566 354/519/567
f 353/498/543 540/515/560 354/519/568 114/499/544
f 131/520/569 388/521/570 541/522/571 390/523/572
f 388/521/570 115/518/566 356/517/565 541/522/571
f 541/522/571 356/517/565 116/524/573 359/525/574
f 390/523/572 541/522/571 359/525/574 130/526/575
f 130/527/576 359/528/577 542/529/578 389/530/579
f 359/528/577 116/516/562 355/514/561 542/529/578
f 542/529/580 355/514/559 113/497/542 386/494/581
f 389/530/582 542/529/580 386/494/581 129/493/583
f 36/143/161 215/146/164 543/531/584 362/532/585
f 215/146/164 39/150/169 366/533/586 543/531/584
f 543/531/584 366/533/586 104/534/587 364/535/588
f 362/532/585 543/531/584 364/535/588 117/422/589
f 14/32/170 211/152/170 544/536/590 332/431/591
f 211/154/175 36/143/161 362/532/585 544/537/592
f 544/537/592 362/532/585 117/422/589 365/421/593
f 332/431/591 544/536/590 365/418/453 98/417/453
f 39/155/176 214/158/176 545/538/594 366/539/595
f 214/158/182 40/163/185 367/540/596 545/538/597
f 545/538/594 367/540/598 120/541/598 337/542/599
f 366/539/595 545/538/594 337/542/599 104/543/600
f 117/422/457 364/535/601 546/544/602 361/423/458
f 364/535/601 104/534/603 337/545/604 546/544/602
f 546/544/602 337/545/604 120/546/605 363/547/606
f 361/423/458 546/544/602 363/547/606 118/425/460
f 105/548/500 368/549/607 547/550/608 338/551/517
f 368/549/607 119/470/530 370/490/533 547/550/608
f 547/550/609 370/490/536 121/492/537 346/552/610
f 338/551/611 547/550/609 346/552/610 106/553/611
f 106/554/612 346/555/613 548/556/614 340/557/615
f 346/555/613 121/484/524 371/487/527 548/556/614
f 548/556/614 371/487/527 42/98/102 218/179/202
f 340/557/615 548/556/614 218/179/202 21/178/201
f 20/180/68 189/183/204 549/558/616 339/559/499
f 189/183/204 41/67/69 372/466/504 549/558/616
f 549/558/616 372/466/504 119/470/508 368/549/617
f 339/559/499 549/558/616 368/549/617 105/548/500
f 94/560/618 373/561/619 550/562/620 327/563/621
f 373/561/619 122/464/502 375/478/516 550/562/620
f 550/562/620 375/478/516 123/471/509 343/564/622
f 327/563/621 550/562/620 343/564/622 103/565/468
f 103/565/468 343/564/622 551/566/623 335/567/464
f 343/564/622 123/471/509 376/474/512 551/566/623
f 551/566/623 376/474/512 46/80/82 225/193/212
f 335/567/464 551/566/623 225/193/212 17/192/21
f 12/194/213 183/197/216 552/568/624 330/569/625
f 183/197/216 45/58/60 377/460/498 552/568/624
f 552/568/624 377/460/498 122/464/502 373/561/619
f 330/569/625 552/568/624 373/561/619 94/560/618
f 103/565/469 378/570/626 553/571/627 327/563/628
f 378/570/626 124/458/496 382/512/557 553/571/627
f 553/571/627 382/512/557 127/502/547 352/572/629
f 327/563/628 553/571/627 352/572/629 94/560/630
f 94/560/630 352/572/629 554/573/631 319/574/632
f 352/572/629 127/502/547 383/505/550 554/573/631
f 554/573/631 383/505/550 126/510/555 380/575/633
f 319/574/632 554/573/631 380/575/633 97/576/634
f 102/577/477 350/578/635 555/579/636 328/580/472
f 350/578/635 125/450/488 384/453/491 555/579/636
f 555/579/636 384/453/491 124/458/496 378/570/626
f 328/580/472 555/579/636 378/570/626 103/565/469
f 112/581/637 387/582/638 556/583/639 348/584/637
f 387/582/638 130/527/576 389/530/579 556/583/639
f 556/583/640 389/530/582 129/493/583 358/585/641
f 348/584/558 556/583/640 358/585/641 109/586/551
f 111/587/642 360/588/643 557/589/644 349/590/645
f 360/588/643 131/520/569 390/523/572 557/589/644
f 557/589/644 390/523/572 130/526/575 387/591/646
f 349/590/645 557/589/644 387/591/646 112/592/647
f 109/586/551 358/585/648 558/593/649 347/594/552
f 358/585/648 129/493/538 391/496/541 558/593/649
f 558/593/649 391/496/541 128/501/546 385/595/650
f 347/594/552 558/593/649 385/595/650 110/596/553
f 13/1/1 331/412/447 559/597/651 262/225/242
f 331/412/451 96/416/452 392/598/652 559/597/651
f 559/597/651 392/598/652 133/599/653 401/600/654
f 262/225/242 559/597/651 401/600/654 61/227/244
f 134/601/655 394/602/656 560/603/657 429/604/655
f 394/602/656 99/428/462 333/427/462 560/603/657
f 560/605/658 333/426/461 118/425/460 426/606/659
f 429/607/660 560/605/658 426/606/659 146/608/661
f 66/239/255 405/609/662 561/610/663 260/240/256
f 405/609/662 136/611/664 396/612/665 561/610/663
f 561/613/663 396/614/665 134/601/666 403/615/667
f 260/243/256 561/613/663 403/615/667 63/244/259
f 136/611/668 400/616/669 562/617/670 396/612/671
f 400/616/669 102/441/477 326/440/476 562/617/670
f 562/618/670 326/439/476 99/428/475 394/602/672
f 396/614/671 562/618/670 394/602/672 134/601/673
f 133/599/653 392/598/652 563/619/674 397/620/675
f 392/598/652 96/416/452 324/447/483 563/619/674
f 563/619/674 324/447/483 101/446/482 398/621/676
f 397/620/675 563/619/674 398/621/676 135/622/677
f 61/227/244 401/600/654 564/623/678 259/257/274
f 401/600/654 133/599/653 397/620/679 564/623/678
f 564/623/678 397/620/679 135/622/680 404/624/681
f 259/257/274 564/623/678 404/624/681 65/259/276
f 125/450/488 445/625/682 565/626/683 379/451/489
f 445/625/682 151/627/684 395/628/685 565/626/683
f 565/626/683 395/628/685 143/629/686 419/630/687
f 379/451/489 565/626/683 419/630/687 111/454/492
f 87/267/286 440/631/688 566/632/689 302/268/287
f 440/631/688 149/633/690 412/634/691 566/632/689
f 566/632/689 412/634/691 138/635/692 409/636/693
f 302/268/287 566/632/689 409/636/693 69/271/290
f 83/276/295 435/637/694 567/638/695 295/277/296
f 435/637/694 147/639/696 411/640/697 567/638/695
f 567/638/695 411/640/697 140/641/698 414/642/699
f 295/277/296 567/638/695 414/642/699 73/280/299
f 150/643/700 439/644/701 568/645/702 437/646/703
f 439/644/701 88/293/312 269/292/311 568/645/702
f 568/645/702 269/292/311 70/291/310 410/647/704
f 437/646/703 568/645/702 410/647/704 139/648/705
f 149/633/690 438/649/706 569/650/707 412/634/691
f 438/649/706 150/643/700 437/646/703 569/650/707
f 569/650/707 437/646/703 139/648/705 408/651/708
f 412/634/691 569/650/707 408/651/708 138/635/692
f 73/280/299 414/642/699 570/652/709 273/297/316
f 414/642/699 140/641/698 406/653/710 570/652/709
f 570/652/711 406/653/712 141/654/713 415/655/711
f 273/297/318 570/652/714 415/655/714 74/299/318
f 148/656/715 434/657/716 571/658/717 432/659/718
f 434/657/716 84/309/332 275/308/331 571/658/717
f 571/658/717 275/308/331 74/299/330 415/655/719
f 432/659/718 571/658/717 415/655/719 141/660/720
f 147/639/721 433/661/722 572/662/723 411/640/724
f 433/661/725 148/663/726 432/664/727 572/662/728
f 572/662/728 432/664/727 141/654/713 406/653/712
f 411/640/724 572/662/723 406/653/710 140/641/698
f 153/665/729 450/666/730 573/667/731 446/668/732
f 450/666/730 128/501/546 357/500/545 573/667/731
f 573/667/731 357/500/545 114/499/544 421/669/733
f 446/668/732 573/667/731 421/669/733 144/670/734
f 152/671/735 444/672/736 574/673/737 442/674/738
f 444/672/736 126/510/555 351/509/554 574/673/737
f 574/673/737 351/509/554 110/508/553 417/675/739
f 442/674/738 574/673/737 417/675/739 142/676/740
f 151/627/684 443/677/741 575/678/742 395/628/685
f 443/677/741 152/671/735 442/674/738 575/678/742
f 575/678/742 442/674/738 142/676/740 418/679/743
f 395/628/685 575/678/742 418/679/743 143/629/686
f 144/670/734 421/669/733 576/680/744 422/681/745
f 421/669/733 114/499/544 354/519/568 576/680/744
f 576/680/746 354/519/567 115/518/566 423/682/747
f 422/681/748 576/680/749 423/682/749 145/683/750
f 131/520/569 449/684/751 577/685/752 388/521/570
f 449/684/751 154/686/753 425/687/754 577/685/752
f 577/685/752 425/687/754 145/688/755 423/682/747
f 388/521/570 577/685/752 423/682/747 115/518/566
f 154/689/756 448/690/757 578/691/758 425/692/759
f 448/690/760 153/665/761 446/668/762 578/691/763
f 578/691/763 446/668/762 144/670/734 422/681/745
f 425/692/759 578/691/758 422/681/748 145/683/750
f 80/342/376 427/693/764 579/694/765 293/343/377
f 427/693/764 146/608/766 428/695/767 579/694/765
f 579/694/765 428/695/767 137/696/768 430/697/769
f 293/343/377 579/694/765 430/697/769 82/346/380
f 63/244/385 403/615/770 580/698/771 290/350/385
f 403/615/770 134/601/655 429/604/655 580/698/771
f 580/699/772 429/607/773 146/608/766 427/693/764
f 290/352/388 580/699/772 427/693/764 80/342/376
f 82/354/391 430/700/774 581/701/775 292/355/391
f 430/700/774 137/702/776 407/703/777 581/701/775
f 581/701/775 407/703/777 120/541/598 367/540/598
f 292/355/394 581/701/778 367/540/596 40/163/185
f 146/608/661 426/606/659 582/704/779 428/695/780
f 426/606/659 118/425/460 363/547/606 582/704/779
f 582/704/779 363/547/606 120/546/605 407/705/781
f 428/695/780 582/704/779 407/705/781 137/696/782
f 138/706/692 408/707/708 583/708/783 431/709/784
f 408/707/785 139/710/785 416/711/786 583/708/787
f 583/708/787 416/711/786 148/663/726 433/661/725
f 431/709/784 583/708/783 433/661/722 147/639/721
f 139/712/788 410/713/789 584/714/790 416/715/791
f 410/713/789 70/373/412 296/372/411 584/714/790
f 584/714/790 296/372/411 84/309/332 434/657/716
f 416/715/791 584/714/790 434/657/716 148/656/715
f 69/374/290 409/716/693 585/717/792 274/375/413
f 409/716/693 138/706/692 431/709/793 585/717/792
f 585/717/792 431/709/793 147/639/696 435/637/694
f 274/375/413 585/717/792 435/637/694 83/276/295
f 132/718/794 399/719/795 586/720/796 436/721/797
f 399/719/795 136/722/664 413/723/798 586/720/796
f 586/720/796 413/723/798 150/643/700 438/649/706
f 436/721/797 586/720/796 438/649/706 149/633/690
f 136/722/664 405/724/662 587/725/799 413/723/798
f 405/724/662 66/387/255 303/386/422 587/725/799
f 587/725/799 303/386/422 88/293/312 439/644/701
f 413/723/798 587/725/799 439/644/701 150/643/700
f 62/388/423 402/726/800 588/727/801 268/389/424
f 402/726/800 132/718/794 436/721/797 588/727/801
f 588/727/801 436/721/797 149/633/690 440/631/688
f 268/389/424 588/727/801 440/631/688 87/267/286
f 136/728/668 399/729/802 589/730/803 441/731/804
f 399/729/802 132/732/805 420/733/806 589/730/803
f 589/730/803 420/733/806 152/671/735 443/677/741
f 441/731/804 589/730/803 443/677/741 151/627/684
f 132/732/805 393/734/807 590/735/808 420/733/806
f 393/734/807 97/576/634 380/575/633 590/735/808
f 590/735/808 380/575/633 126/510/555 444/672/736
f 420/733/806 590/735/808 444/672/736 152/671/735
f 102/577/477 400/736/669 591/737/809 350/578/635
f 400/736/669 136/728/668 441/731/804 591/737/809
f 591/737/809 441/731/804 151/627/684 445/625/682
f 350/578/635 591/737/809 445/625/682 125/450/488
f 143/738/810 418/739/810 592/740/811 447/741/812
f 418/739/743 142/742/740 424/743/813 592/740/814
f 592/740/814 424/743/813 153/665/761 448/690/760
f 447/741/812 592/740/811 448/690/757 154/689/756
f 111/587/642 419/744/815 593/745/816 360/588/643
f 419/744/815 143/746/817 447/747/818 593/745/816
f 593/745/816 447/747/818 154/686/753 449/684/751
f 360/588/643 593/745/816 449/684/751 131/520/569
f 142/742/740 417/748/739 594/749/819 424/743/820
f 417/748/739 110/596/553 385/595/650 594/749/819
f 594/749/819 385/595/650 128/501/546 450/666/730
f 424/743/820 594/749/819 450/666/730 153/665/729
f 596/750/821 611/751/822 612/752/823 595/753/824
f 600/754/825 612/752/823 611/751/822 599/755/826
f 598/756/827 613/757/828 614/758/829 597/759/830
f 595/753/831 614/758/829 613/757/828 596/750/832
f 604/760/833 615/761/834 616/762/835 603/763/836
f 602/764/837 616/762/835 615/761/834 601/765/838
f 601/765/839 617/766/840 618/767/841 602/764/842
f 597/759/830 618/767/841 617/766/840 598/756/827
f 599/755/826 619/768/843 620/769/844 600/754/825
f 606/770/845 620/769/844 619/768/843 605/771/846
f 605/771/847 621/772/848 622/773/849 606/770/850
f 608/774/851 622/773/849 621/772/848 607/775/852
f 610/776/853 623/777/854 624/778/855 609/779/856
f 603/763/836 624/778/855 623/777/854 604/760/833
f 607/775/852 625/780/857 626/781/858 608/774/851
f 609/779/859 626/781/858 625/780/857 610/776/860
f 7/44/44 162/43/43 614/782/829 595/783/831
f 611/784/822 596/785/821 1/184/206 167/195/214
f 171/47/49 7/44/48 595/783/824 612/786/823
f 596/785/832 613/787/828 156/201/222 1/184/220
f 250/256/273 618/788/841 597/789/830 8/42/42
f 613/787/828 598/790/827 4/203/224 156/201/222
f 162/43/43 8/42/42 597/789/830 614/782/829
f 617/791/840 245/396/433 4/203/224 598/790/827
f 16/48/50 600/792/825 620/793/844 334/449/485
f 16/48/50 171/47/49 612/786/823 600/792/825
f 599/794/826 12/194/213 330/569/625 619/795/843
f 599/794/826 611/784/822 167/195/214 12/194/213
f 59/255/272 602/796/842 618/788/841 250/256/273
f 256/260/277 616/797/835 602/796/837 59/255/278
f 601/798/839 56/378/431 245/396/433 617/791/840
f 615/799/834 254/391/426 56/378/416 601/798/838
f 65/259/276 404/624/681 624/800/855 603/801/836
f 604/802/833 62/388/423 254/391/426 615/799/834
f 65/259/276 603/801/836 616/797/835 256/260/277
f 604/802/833 623/803/854 402/726/800 62/388/423
f 100/444/480 606/804/850 622/805/849 325/445/481
f 334/449/485 620/793/844 606/804/845 100/444/486
f 605/806/847 94/560/630 319/574/632 621/807/848
f 619/795/843 330/569/625 94/560/618 605/806/846
f 398/621/676 101/446/482 608/808/851 626/809/858
f 325/445/481 622/805/849 608/808/851 101/446/482
f 625/810/857 607/811/852 97/576/634 393/734/807
f 621/807/848 319/574/632 97/576/634 607/811/852
f 135/622/677 398/621/676 626/809/858 609/812/859
f 623/803/854 610/813/853 132/718/794 402/726/800
f 404/624/681 135/622/680 609/812/856 624/800/855
f 610/814/860 625/810/857 393/734/807 132/732/805
