# Blender 5.1.0
# www.blender.org
mtllib skydome.mtl
o 球.001
v 0.000000 0.000000 -509.967316
v -0.000043 283.322632 -424.022339
v -0.000064 424.022339 -283.322632
v -0.000076 500.168427 -99.489700
v -0.000077 509.967316 0.000000
v -0.000076 500.168427 99.489700
v -0.000064 424.022339 283.322632
v 0.000000 0.000000 509.967316
v -19.409464 97.578003 -500.168427
v -38.073082 191.406204 -471.148346
v -55.273540 277.878693 -424.022339
v -70.349899 353.672516 -360.601349
v -82.722710 415.874878 -283.322632
v -91.916573 462.095367 -195.156052
v -97.578079 490.557800 -99.489700
v -99.489777 500.168427 0.000000
v -97.578079 490.557800 99.489700
v -91.916573 462.095367 195.156052
v -82.722710 415.874878 283.322632
v -70.349899 353.672516 360.601349
v -55.273540 277.878693 424.022339
v -38.073082 191.406204 471.148346
v -19.409464 97.578003 500.168427
v -38.073067 91.916496 -500.168427
v -74.683029 180.300690 -471.148346
v -108.422935 261.755951 -424.022339
v -137.996201 333.152161 -360.601349
v -162.266357 391.745453 -283.322632
v -180.300720 435.284302 -195.156052
v -191.406281 462.095337 -99.489700
v -195.156128 471.148315 0.000000
v -191.406281 462.095337 99.489700
v -180.300720 435.284302 195.156052
v -162.266357 391.745453 283.322632
v -137.996201 333.152161 360.601349
v -108.422935 261.755951 424.022339
v -74.683029 180.300690 471.148346
v -38.073067 91.916496 500.168427
v -55.273510 82.722641 -500.168427
v -108.422920 162.266342 -471.148346
v -157.405685 235.574127 -424.022339
v -200.339432 299.829010 -360.601349
v -235.574203 352.561554 -283.322632
v -261.756042 391.745453 -195.156052
v -277.878754 415.874847 -99.489700
v -283.322693 424.022217 0.000000
v -277.878754 415.874847 99.489700
v -261.756042 391.745453 195.156052
v -235.574203 352.561554 283.322632
v -200.339432 299.829010 360.601349
v -157.405685 235.574127 424.022339
v -108.422920 162.266342 471.148346
v -55.273510 82.722641 500.168427
v -70.349808 70.349792 -500.168427
v -137.996170 137.996140 -471.148346
v -200.339371 200.339310 -424.022339
v -254.983688 254.983597 -360.601349
v -299.829071 299.828979 -283.322632
v -333.152222 333.152130 -195.156052
v -353.672577 353.672394 -99.489700
v -360.601410 360.601196 0.000000
v -353.672577 353.672394 99.489700
v -333.152222 333.152130 195.156052
v -299.829071 299.828979 283.322632
v -254.983688 254.983597 360.601349
v -200.339371 200.339310 424.022339
v -137.996170 137.996140 471.148346
v -70.349808 70.349792 500.168427
v -82.722656 55.273487 -500.168427
v -162.266373 108.422874 -471.148346
v -235.574188 157.405579 -424.022339
v -299.829071 200.339340 -360.601349
v -352.561676 235.574112 -283.322632
v -391.745514 261.755920 -195.156052
v -415.874908 277.878571 -99.489700
v -424.022308 283.322479 0.000000
v -415.874908 277.878571 99.489700
v -391.745514 261.755920 195.156052
v -352.561676 235.574112 283.322632
v -299.829071 200.339340 360.601349
v -235.574188 157.405579 424.022339
v -162.266373 108.422874 471.148346
v -82.722656 55.273487 500.168427
v -91.916458 38.073036 -500.168427
v -180.300674 74.682922 -471.148346
v -261.756012 108.422813 -424.022339
v -333.152222 137.996109 -360.601349
v -391.745514 162.266190 -283.322632
v -435.284302 180.300644 -195.156052
v -462.095398 191.406021 -99.489700
v -471.148346 195.155884 0.000000
v -462.095398 191.406021 99.489700
v -435.284302 180.300644 195.156052
v -391.745514 162.266190 283.322632
v -333.152222 137.996109 360.601349
v -261.756012 108.422813 424.022339
v -180.300674 74.682922 471.148346
v -91.916458 38.073036 500.168427
v -97.578003 19.409433 -500.168427
v -191.406158 38.073021 -471.148346
v -277.878632 55.273457 -424.022339
v -353.672516 70.349792 -360.601349
v -415.874756 82.722534 -283.322632
v -462.095367 91.916435 -195.156052
v -490.557770 97.577873 -99.489700
v -500.168335 99.489525 0.000000
v -490.557770 97.577873 99.489700
v -462.095367 91.916435 195.156052
v -415.874756 82.722534 283.322632
v -353.672516 70.349792 360.601349
v -277.878632 55.273457 424.022339
v -191.406158 38.073021 471.148346
v -97.578003 19.409433 500.168427
v -99.489647 -0.000015 -500.168427
v -195.156052 -0.000029 -471.148346
v -283.322601 -0.000043 -424.022339
v -360.601349 -0.000054 -360.601349
v -424.022247 -0.000064 -283.322632
v -471.148346 -0.000071 -195.156052
v -500.168365 -0.000076 -99.489700
v -509.967194 -0.000077 0.000000
v -500.168365 -0.000076 99.489700
v -471.148346 -0.000071 195.156052
v -424.022247 -0.000064 283.322632
v -360.601349 -0.000054 360.601349
v -283.322601 -0.000043 424.022339
v -195.156052 -0.000029 471.148346
v -99.489647 -0.000015 500.168427
v 99.489601 0.000015 -500.168427
v 195.155960 0.000029 -471.148346
v 283.322449 0.000043 -424.022339
v 360.601257 0.000054 -360.601349
v 424.022095 0.000064 -283.322632
v 471.148163 0.000071 -195.156052
v 500.168213 0.000076 -99.489700
v 509.966858 0.000077 0.000000
v 500.168213 0.000076 99.489700
v 471.148163 0.000071 195.156052
v 424.022095 0.000064 283.322632
v 360.601257 0.000054 360.601349
v 283.322449 0.000043 424.022339
v 195.155960 0.000029 471.148346
v 99.489601 0.000015 500.168427
v 97.577950 19.409464 -500.168427
v 191.406097 38.073082 -471.148346
v 277.878448 55.273594 -424.022339
v 353.672424 70.349899 -360.601349
v 415.874573 82.722763 -283.322632
v 462.095154 91.916519 -195.156052
v 490.557617 97.578178 -99.489700
v 500.167908 99.489876 0.000000
v 490.557617 97.578178 99.489700
v 462.095154 91.916519 195.156052
v 415.874573 82.722763 283.322632
v 353.672424 70.349899 360.601349
v 277.878448 55.273594 424.022339
v 191.406097 38.073082 471.148346
v 97.577950 19.409464 500.168427
v 91.916389 38.073067 -500.168427
v 180.300583 74.682983 -471.148346
v 261.755707 108.422935 -424.022339
v 333.152069 137.996201 -360.601349
v 391.745270 162.266357 -283.322632
v 435.284119 180.300659 -195.156052
v 462.095032 191.406281 -99.489700
v 471.147797 195.156128 0.000000
v 462.095032 191.406281 99.489700
v 435.284119 180.300659 195.156052
v 391.745270 162.266357 283.322632
v 333.152069 137.996201 360.601349
v 261.755707 108.422935 424.022339
v 180.300583 74.682983 471.148346
v 91.916389 38.073067 500.168427
v 82.722542 55.273460 -500.168427
v 162.266174 108.422874 -471.148346
v 235.573883 157.405640 -424.022339
v 299.828918 200.339386 -360.601349
v 352.561371 235.574203 -283.322632
v 391.745361 261.755951 -195.156052
v 415.874542 277.878693 -99.489700
v 424.021729 283.322601 0.000000
v 415.874542 277.878693 99.489700
v 391.745361 261.755951 195.156052
v 352.561371 235.574203 283.322632
v 299.828918 200.339386 360.601349
v 235.573883 157.405640 424.022339
v 162.266174 108.422874 471.148346
v 82.722542 55.273460 500.168427
v 70.349747 70.349808 -500.168427
v 137.996078 137.996109 -471.148346
v 200.339066 200.339279 -424.022339
v 254.983505 254.983643 -360.601349
v 299.828766 299.828979 -283.322632
v 333.152008 333.152130 -195.156052
v 353.672119 353.672485 -99.489700
v 360.600739 360.601196 0.000000
v 353.672119 353.672485 99.489700
v 333.152008 333.152130 195.156052
v 299.828766 299.828979 283.322632
v 254.983505 254.983643 360.601349
v 200.339066 200.339279 424.022339
v 137.996078 137.996109 471.148346
v 70.349747 70.349808 500.168427
v 55.273438 82.722557 -500.168427
v 108.422783 162.266266 -471.148346
v 157.405365 235.574036 -424.022339
v 200.339249 299.829041 -360.601349
v 235.573914 352.561523 -283.322632
v 261.755798 391.745422 -195.156052
v 277.878387 415.874695 -99.489700
v 283.322083 424.022034 0.000000
v 277.878387 415.874695 99.489700
v 261.755798 391.745422 195.156052
v 235.573914 352.561523 283.322632
v 200.339249 299.829041 360.601349
v 157.405365 235.574036 424.022339
v 108.422783 162.266266 471.148346
v 55.273438 82.722557 500.168427
v 38.072987 91.916405 -500.168427
v 74.682869 180.300613 -471.148346
v 108.422607 261.755829 -424.022339
v 137.996048 333.152191 -360.601349
v 162.266037 391.745331 -283.322632
v 180.300491 435.284180 -195.156052
v 191.405869 462.095184 -99.489700
v 195.155518 471.147949 0.000000
v 191.405869 462.095184 99.489700
v 180.300491 435.284180 195.156052
v 162.266037 391.745331 283.322632
v 137.996048 333.152191 360.601349
v 108.422607 261.755829 424.022339
v 74.682869 180.300613 471.148346
v 38.072987 91.916405 500.168427
v 19.409433 97.577896 -500.168427
v 38.072971 191.406097 -471.148346
v 55.273308 277.878418 -424.022339
v 70.349747 353.672455 -360.601349
v 82.722443 415.874573 -283.322632
v 91.916328 462.095154 -195.156052
v 97.577721 490.557617 -99.489700
v 99.489273 500.167908 0.000000
v 97.577721 490.557617 99.489700
v 91.916328 462.095154 195.156052
v 82.722443 415.874573 283.322632
v 70.349747 353.672455 360.601349
v 55.273308 277.878418 424.022339
v 38.072971 191.406097 471.148346
v 19.409433 97.577896 500.168427
v -0.000015 99.489601 -500.168427
v -0.000079 195.155960 -471.148346
v -0.000104 360.601257 -360.601349
v -0.000121 471.148102 -195.156052
v -0.000121 471.148102 195.156052
v -0.000104 360.601257 360.601349
v -0.000143 283.322296 424.022339
v -0.000079 195.155960 471.148346
v -0.000015 99.489601 500.168427
vn 0.1092 -0.5490 -0.8286
vn -0.0000 -0.7101 -0.7041
vn -0.0000 -0.5598 -0.8286
vn -0.0000 -0.9248 0.3805
vn 0.1626 -0.8173 0.5528
vn -0.0000 -0.8333 0.5528
vn 0.0757 -0.3804 -0.9217
vn -0.0000 -0.3879 -0.9217
vn 0.1914 -0.9622 0.1939
vn -0.0000 -0.9810 0.1939
vn 0.0392 -0.1971 -0.9796
vn -0.0000 -0.2010 -0.9796
vn -0.0000 -1.0000 -0.0000
vn -0.0000 -0.2010 0.9796
vn 0.0392 -0.1971 0.9796
vn -0.0000 -0.0630 0.9980
vn -0.0000 -0.0630 -0.9980
vn 0.1914 -0.9622 -0.1939
vn -0.0000 -0.9810 -0.1939
vn -0.0000 -0.3879 0.9217
vn -0.0000 -0.9248 -0.3805
vn -0.0000 -0.5598 0.8286
vn 0.0757 -0.3804 0.9217
vn 0.1626 -0.8173 -0.5528
vn -0.0000 -0.8333 -0.5528
vn -0.0000 -0.7101 0.7041
vn 0.1092 -0.5490 0.8286
vn 0.1385 -0.6965 -0.7041
vn 0.3189 -0.7699 -0.5528
vn 0.3189 -0.7699 0.5528
vn 0.1385 -0.6965 0.7041
vn 0.2718 -0.6561 -0.7041
vn 0.3539 -0.8544 0.3805
vn 0.1804 -0.9070 0.3805
vn 0.1484 -0.3584 -0.9217
vn 0.0769 -0.1857 -0.9796
vn 0.1951 -0.9808 -0.0000
vn 0.3754 -0.9063 0.1939
vn 0.0769 -0.1857 0.9796
vn 0.3754 -0.9063 -0.1939
vn 0.3539 -0.8544 -0.3805
vn 0.1804 -0.9070 -0.3805
vn 0.1484 -0.3584 0.9217
vn 0.2718 -0.6561 0.7041
vn 0.1117 -0.1671 0.9796
vn 0.1117 -0.1671 -0.9796
vn 0.5450 -0.8157 -0.1939
vn 0.3827 -0.9239 -0.0000
vn 0.2155 -0.3225 0.9217
vn 0.5138 -0.7689 -0.3805
vn 0.2142 -0.5172 0.8286
vn 0.3945 -0.5905 0.7041
vn 0.4630 -0.6929 -0.5528
vn 0.4630 -0.6929 0.5528
vn 0.2142 -0.5172 -0.8286
vn 0.3945 -0.5905 -0.7041
vn 0.5138 -0.7689 0.3805
vn 0.2155 -0.3225 -0.9217
vn 0.5450 -0.8157 0.1939
vn 0.5021 -0.5021 0.7041
vn 0.3110 -0.4654 -0.8286
vn 0.5021 -0.5021 -0.7041
vn 0.6539 -0.6539 0.3805
vn 0.3958 -0.3958 -0.8286
vn 0.2743 -0.2743 -0.9217
vn 0.5556 -0.8315 -0.0000
vn 0.6937 -0.6937 0.1939
vn 0.1421 -0.1421 0.9796
vn 0.1421 -0.1421 -0.9796
vn 0.6937 -0.6937 -0.1939
vn 0.2743 -0.2743 0.9217
vn 0.6539 -0.6539 -0.3805
vn 0.3958 -0.3958 0.8286
vn 0.3110 -0.4654 0.8286
vn 0.8157 -0.5450 -0.1939
vn 0.7071 -0.7071 -0.0000
vn 0.1671 -0.1117 0.9796
vn 0.7689 -0.5138 -0.3805
vn 0.3225 -0.2155 0.9217
vn 0.5893 -0.5893 -0.5528
vn 0.4654 -0.3110 0.8286
vn 0.5905 -0.3945 -0.7041
vn 0.5893 -0.5893 0.5528
vn 0.5905 -0.3945 0.7041
vn 0.4654 -0.3110 -0.8286
vn 0.7689 -0.5138 0.3805
vn 0.3225 -0.2155 -0.9217
vn 0.1671 -0.1117 -0.9796
vn 0.8157 -0.5450 0.1939
vn 0.6561 -0.2718 -0.7041
vn 0.8544 -0.3539 0.3805
vn 0.6929 -0.4630 0.5528
vn 0.5172 -0.2142 -0.8286
vn 0.3584 -0.1484 -0.9217
vn 0.8315 -0.5556 -0.0000
vn 0.9063 -0.3754 0.1939
vn 0.1857 -0.0769 0.9796
vn 0.1857 -0.0769 -0.9796
vn 0.9063 -0.3754 -0.1939
vn 0.3584 -0.1484 0.9217
vn 0.8544 -0.3539 -0.3805
vn 0.5172 -0.2142 0.8286
vn 0.6929 -0.4630 -0.5528
vn 0.6561 -0.2718 0.7041
vn 0.9070 -0.1804 -0.3805
vn 0.5490 -0.1092 0.8286
vn 0.7699 -0.3189 -0.5528
vn 0.6965 -0.1385 0.7041
vn 0.6965 -0.1385 -0.7041
vn 0.7699 -0.3189 0.5528
vn 0.9070 -0.1804 0.3805
vn 0.5490 -0.1092 -0.8286
vn 0.1971 -0.0392 -0.9796
vn 0.9808 -0.1951 -0.0000
vn 0.9239 -0.3827 -0.0000
vn 0.1971 -0.0392 0.9796
vn 0.3876 -0.0382 -0.9210
vn 0.3804 -0.0757 -0.9217
vn 0.9622 -0.1914 0.1939
vn 0.9210 -0.0907 0.3790
vn 0.2009 -0.0198 -0.9794
vn 0.9765 -0.0962 0.1930
vn 0.2009 -0.0198 0.9794
vn 0.9765 -0.0962 -0.1930
vn 0.9622 -0.1914 -0.1939
vn 0.3876 -0.0382 0.9210
vn 0.3804 -0.0757 0.9217
vn 0.9210 -0.0907 -0.3790
vn 0.8173 -0.1626 -0.5528
vn 0.7084 -0.0698 0.7023
vn 0.7084 -0.0698 -0.7023
vn 0.8173 -0.1626 0.5528
vn -0.1971 -0.0392 -0.9796
vn -0.3876 -0.0382 -0.9210
vn -0.2009 -0.0198 -0.9794
vn -0.9952 -0.0980 -0.0000
vn -0.9622 -0.1914 0.1939
vn -0.9765 -0.0962 0.1930
vn -0.2009 -0.0198 0.9794
vn -0.1971 -0.0392 0.9796
vn -0.9622 -0.1914 -0.1939
vn -0.9765 -0.0962 -0.1930
vn -0.3876 -0.0382 0.9210
vn -0.9070 -0.1804 -0.3805
vn -0.9210 -0.0907 -0.3790
vn -0.5589 -0.0550 0.8274
vn -0.3804 -0.0757 0.9217
vn -0.8305 -0.0818 -0.5509
vn -0.6965 -0.1385 0.7041
vn -0.7084 -0.0698 0.7023
vn -0.6965 -0.1385 -0.7041
vn -0.7084 -0.0698 -0.7023
vn -0.8305 -0.0818 0.5509
vn -0.5589 -0.0551 -0.8274
vn -0.9070 -0.1804 0.3805
vn -0.9210 -0.0907 0.3790
vn -0.3804 -0.0757 -0.9217
vn -0.6561 -0.2718 -0.7041
vn -0.8173 -0.1626 -0.5528
vn -0.8173 -0.1626 0.5528
vn -0.6561 -0.2718 0.7041
vn -0.5490 -0.1092 -0.8286
vn -0.8544 -0.3539 0.3805
vn -0.3584 -0.1484 -0.9217
vn -0.1857 -0.0769 -0.9796
vn -0.9808 -0.1951 -0.0000
vn -0.9063 -0.3754 0.1939
vn -0.1857 -0.0769 0.9796
vn -0.9063 -0.3754 -0.1939
vn -0.3584 -0.1484 0.9217
vn -0.8544 -0.3539 -0.3805
vn -0.5490 -0.1092 0.8286
vn -0.1671 -0.1117 0.9796
vn -0.1671 -0.1116 -0.9796
vn -0.8157 -0.5450 -0.1939
vn -0.9239 -0.3827 -0.0000
vn -0.3225 -0.2155 0.9217
vn -0.7689 -0.5138 -0.3805
vn -0.5172 -0.2142 0.8286
vn -0.7699 -0.3189 -0.5528
vn -0.5905 -0.3945 0.7041
vn -0.5905 -0.3945 -0.7041
vn -0.7699 -0.3189 0.5528
vn -0.5172 -0.2142 -0.8286
vn -0.7689 -0.5138 0.3805
vn -0.3225 -0.2155 -0.9217
vn -0.8157 -0.5450 0.1939
vn -0.6929 -0.4630 0.5528
vn -0.5021 -0.5021 0.7041
vn -0.4654 -0.3110 -0.8286
vn -0.5021 -0.5021 -0.7041
vn -0.6539 -0.6539 0.3805
vn -0.2743 -0.2743 -0.9217
vn -0.1421 -0.1421 -0.9796
vn -0.8315 -0.5556 -0.0000
vn -0.6937 -0.6937 0.1939
vn -0.1421 -0.1421 0.9796
vn -0.6937 -0.6937 -0.1939
vn -0.6539 -0.6539 -0.3805
vn -0.4654 -0.3110 0.8286
vn -0.2743 -0.2743 0.9217
vn -0.6929 -0.4630 -0.5528
vn -0.5450 -0.8157 -0.1939
vn -0.7071 -0.7071 -0.0000
vn -0.2155 -0.3225 0.9217
vn -0.5138 -0.7689 -0.3805
vn -0.3958 -0.3958 0.8286
vn -0.5893 -0.5893 -0.5528
vn -0.3945 -0.5905 0.7041
vn -0.3945 -0.5905 -0.7041
vn -0.5893 -0.5893 0.5528
vn -0.3958 -0.3958 -0.8286
vn -0.5138 -0.7689 0.3805
vn -0.2155 -0.3225 -0.9217
vn -0.5450 -0.8157 0.1939
vn -0.1117 -0.1671 0.9796
vn -0.1117 -0.1671 -0.9796
vn -0.3110 -0.4654 -0.8286
vn -0.2718 -0.6561 -0.7041
vn -0.3539 -0.8544 0.3805
vn -0.4630 -0.6929 0.5528
vn -0.1484 -0.3584 -0.9217
vn -0.0769 -0.1857 -0.9796
vn -0.5556 -0.8315 -0.0000
vn -0.3754 -0.9063 0.1939
vn -0.0769 -0.1857 0.9796
vn -0.3754 -0.9063 -0.1939
vn -0.3539 -0.8544 -0.3805
vn -0.3110 -0.4654 0.8286
vn -0.1484 -0.3584 0.9217
vn -0.4630 -0.6929 -0.5528
vn -0.2718 -0.6561 0.7041
vn -0.0757 -0.3804 0.9217
vn -0.1804 -0.9070 -0.3805
vn -0.2142 -0.5172 0.8286
vn -0.3189 -0.7699 -0.5528
vn -0.1385 -0.6965 0.7041
vn -0.1385 -0.6965 -0.7041
vn -0.3189 -0.7699 0.5528
vn -0.2142 -0.5172 -0.8286
vn -0.1804 -0.9070 0.3805
vn -0.0757 -0.3804 -0.9217
vn -0.3827 -0.9239 -0.0000
vn -0.1914 -0.9622 0.1939
vn -0.0392 -0.1971 0.9796
vn -0.0392 -0.1971 -0.9796
vn -0.1914 -0.9622 -0.1939
vn -0.1626 -0.8173 0.5528
vn -0.1092 -0.5490 -0.8286
vn -0.1951 -0.9808 -0.0000
vn -0.1092 -0.5490 0.8286
vn -0.1626 -0.8173 -0.5528
vn 0.5589 -0.0550 -0.8274
vn 0.9952 -0.0980 -0.0000
vn 0.5589 -0.0550 0.8274
vn 0.8305 -0.0818 -0.5509
vn 0.8305 -0.0818 0.5509
vt 0.284469 0.681858
vt 0.354472 0.657697
vt 0.313560 0.704982
vt 0.554903 0.424676
vt 0.555696 0.354718
vt 0.589135 0.384869
vt 0.243171 0.740927
vt 0.267060 0.759551
vt 0.485875 0.430935
vt 0.522226 0.462695
vt 0.195090 0.812882
vt 0.210918 0.824866
vt 0.490274 0.499844
vt 0.769965 0.175077
vt 0.755771 0.161191
vt 0.848960 0.083032
vt 0.131496 0.916560
vt 0.421481 0.505787
vt 0.458314 0.536990
vt 0.713752 0.240341
vt 0.425596 0.574986
vt 0.666726 0.294544
vt 0.691767 0.219496
vt 0.356546 0.586181
vt 0.391320 0.614809
vt 0.625920 0.341986
vt 0.639502 0.269181
vt 0.321942 0.631269
vt 0.319840 0.559033
vt 0.523345 0.322474
vt 0.595043 0.313713
vt 0.287201 0.607007
vt 0.484952 0.360590
vt 0.519670 0.393434
vt 0.217147 0.724883
vt 0.177560 0.803178
vt 0.453389 0.468113
vt 0.449462 0.398101
vt 0.743579 0.145278
vt 0.383577 0.474687
vt 0.351789 0.515380
vt 0.389447 0.544800
vt 0.672010 0.196148
vt 0.565886 0.283015
vt 0.733920 0.127497
vt 0.158569 0.796255
vt 0.343955 0.443232
vt 0.415924 0.435882
vt 0.654873 0.170119
vt 0.311976 0.486311
vt 0.614410 0.241158
vt 0.538144 0.249562
vt 0.280687 0.532996
vt 0.491744 0.287650
vt 0.253036 0.661233
vt 0.249967 0.584572
vt 0.450258 0.325565
vt 0.188864 0.711836
vt 0.412441 0.363622
vt 0.511682 0.212774
vt 0.219187 0.643032
vt 0.209634 0.563906
vt 0.415147 0.287677
vt 0.182577 0.627633
vt 0.158408 0.702035
vt 0.377255 0.402616
vt 0.374216 0.326819
vt 0.726824 0.108211
vt 0.138481 0.792083
vt 0.301854 0.410935
vt 0.640614 0.141457
vt 0.269267 0.457256
vt 0.570647 0.176494
vt 0.591352 0.210397
vt 0.256345 0.377280
vt 0.336681 0.367712
vt 0.722284 0.087533
vt 0.222735 0.427947
vt 0.628798 0.110050
vt 0.238415 0.507824
vt 0.551829 0.138927
vt 0.165491 0.545030
vt 0.460536 0.249615
vt 0.486419 0.171953
vt 0.142620 0.614653
vt 0.379215 0.246048
vt 0.125612 0.695079
vt 0.117407 0.790638
vt 0.334140 0.286849
vt 0.116940 0.528763
vt 0.342065 0.199506
vt 0.429636 0.207570
vt 0.099289 0.605597
vt 0.090958 0.692538
vt 0.293373 0.330456
vt 0.291455 0.242605
vt 0.721181 0.065905
vt 0.095916 0.792706
vt 0.206220 0.341682
vt 0.621043 0.076150
vt 0.171162 0.398165
vt 0.536385 0.097445
vt 0.192221 0.483554
vt 0.463078 0.126387
vt 0.112916 0.367746
vt 0.524593 0.051389
vt 0.141023 0.460362
vt 0.441988 0.074853
vt 0.062818 0.515608
vt 0.399056 0.160417
vt 0.303292 0.146461
vt 0.051964 0.600837
vt 0.074044 0.798079
vt 0.194105 0.245055
vt 0.246288 0.289950
vt 0.723309 0.043389
vt 0.015103 0.701119
vt 0.054091 0.694262
vt 0.245244 0.192629
vt 0.262539 0.084685
vt 0.052449 0.807352
vt 0.194257 0.134762
vt 0.729506 0.020927
vt 0.085067 0.261673
vt 0.149901 0.303451
vt 0.618115 0.000099
vt 0.617120 0.039406
vt 0.045741 0.336669
vt 0.083390 0.438559
vt 0.424081 0.016078
vt 0.002004 0.506672
vt 0.368894 0.106696
vt 0.256870 0.956572
vt 0.362133 0.999901
vt 0.250637 0.979011
vt 0.845760 0.805667
vt 0.830772 0.696276
vt 0.895579 0.738027
vt 0.928298 0.191773
vt 0.907056 0.201291
vt 0.735359 0.807171
vt 0.786311 0.865021
vt 0.965700 0.298416
vt 0.677113 0.853504
vt 0.717817 0.915282
vt 0.980373 0.399053
vt 0.927206 0.305451
vt 0.641225 0.955127
vt 0.918179 0.483725
vt 0.978900 0.492610
vt 0.538256 0.925302
vt 0.556092 0.984009
vt 0.963035 0.581110
vt 0.463816 0.999408
vt 0.867895 0.631764
vt 0.935060 0.662797
vt 0.363330 0.960689
vt 0.517211 0.873747
vt 0.611819 0.892934
vt 0.897143 0.561309
vt 0.864044 0.470605
vt 0.456437 0.948212
vt 0.809627 0.601386
vt 0.359558 0.924111
vt 0.259331 0.934270
vt 0.786539 0.754714
vt 0.774432 0.658026
vt 0.885129 0.206807
vt 0.689130 0.757174
vt 0.890239 0.307056
vt 0.638382 0.800428
vt 0.928641 0.399378
vt 0.863446 0.208708
vt 0.258020 0.912472
vt 0.646443 0.712931
vt 0.734325 0.709790
vt 0.855333 0.304184
vt 0.601270 0.753853
vt 0.881214 0.394271
vt 0.581578 0.839213
vt 0.815385 0.454375
vt 0.493902 0.828069
vt 0.839501 0.539421
vt 0.444322 0.902117
vt 0.758028 0.571640
vt 0.351425 0.890021
vt 0.724308 0.622423
vt 0.788286 0.516166
vt 0.771254 0.435723
vt 0.428580 0.860565
vt 0.468874 0.787227
vt 0.711473 0.542366
vt 0.340093 0.858803
vt 0.253830 0.891853
vt 0.687243 0.669284
vt 0.678789 0.588763
vt 0.842486 0.207600
vt 0.606365 0.672951
vt 0.565374 0.712198
vt 0.837762 0.384914
vt 0.822779 0.297683
vt 0.550943 0.792052
vt 0.568130 0.636137
vt 0.643928 0.632021
vt 0.792307 0.287507
vt 0.530279 0.674290
vt 0.797908 0.372116
vt 0.520041 0.750022
vt 0.730851 0.415039
vt 0.442394 0.750375
vt 0.742105 0.491885
vt 0.409968 0.823073
vt 0.668743 0.513326
vt 0.325455 0.830183
vt 0.636672 0.556457
vt 0.822352 0.203235
vt 0.246529 0.872551
vt 0.388939 0.789126
vt 0.414555 0.716840
vt 0.628889 0.484240
vt 0.699871 0.466686
vt 0.308462 0.804127
vt 0.236948 0.854803
vt 0.603341 0.597106
vt 0.597025 0.524986
vt 0.803405 0.196388
vt 0.531088 0.601639
vt 0.495565 0.639235
vt 0.761207 0.356396
vt 0.764013 0.274608
vt 0.488821 0.712034
vt 0.693518 0.392505
vt 0.737896 0.258657
vt 0.460801 0.606328
vt 0.727328 0.338117
vt 0.457122 0.677254
vt 0.658704 0.368132
vt 0.385302 0.686089
vt 0.660735 0.440537
vt 0.365802 0.758340
vt 0.591152 0.454790
vt 0.288780 0.780680
vt 0.564652 0.563825
vt 0.559090 0.493880
vt 0.785927 0.186779
vt 0.224855 0.838926
vt 0.494660 0.568780
vt 0.624020 0.413310
vt 0.340654 0.730370
vt 0.527167 0.531581
vt 0.695958 0.317432
vt 0.424710 0.645036
vt 0.000099 0.601280
vt 0.134850 0.194075
vt 0.517304 0.000099
vt 0.017500 0.418828
vt 0.339553 0.044503
s 1
usemtl マテリアル.001
f 21/1/1 254/2/2 255/3/3
f 252/4/4 13/5/5 3/6/6
f 22/7/7 255/3/3 256/8/8
f 15/9/9 252/4/4 4/10/10
f 23/11/11 256/8/8 257/12/12
f 5/13/13 15/9/9 4/10/10
f 249/14/14 9/15/15 1/16/16
f 8/17/17 23/11/11 257/12/12
f 17/18/18 5/13/13 6/19/19
f 250/20/20 9/15/15 249/14/14
f 253/21/21 17/18/18 6/19/19
f 2/22/22 10/23/23 250/20/20
f 19/24/24 253/21/21 7/25/25
f 251/26/26 11/27/27 2/22/22
f 20/28/28 7/25/25 254/2/2
f 13/5/5 251/26/26 3/6/6
f 20/28/28 34/29/29 19/24/24
f 28/30/30 12/31/31 13/5/5
f 21/1/1 35/32/32 20/28/28
f 29/33/33 13/5/5 14/34/34
f 37/35/35 21/1/1 22/7/7
f 15/9/9 29/33/33 14/34/34
f 38/36/36 22/7/7 23/11/11
f 16/37/37 30/38/38 15/9/9
f 9/15/15 24/39/39 1/16/16
f 8/17/17 38/36/36 23/11/11
f 32/40/40 16/37/37 17/18/18
f 10/23/23 24/39/39 9/15/15
f 33/41/41 17/18/18 18/42/42
f 11/27/27 25/43/43 10/23/23
f 19/24/24 33/41/41 18/42/42
f 27/44/44 11/27/27 12/31/31
f 24/39/39 39/45/45 1/16/16
f 8/17/17 53/46/46 38/36/36
f 47/47/47 31/48/48 32/40/40
f 40/49/49 24/39/39 25/43/43
f 48/50/50 32/40/40 33/41/41
f 26/51/51 40/49/49 25/43/43
f 34/29/29 48/50/50 33/41/41
f 42/52/52 26/51/51 27/44/44
f 35/32/32 49/53/53 34/29/29
f 43/54/54 27/44/44 28/30/30
f 36/55/55 50/56/56 35/32/32
f 44/57/57 28/30/30 29/33/33
f 52/58/58 36/55/55 37/35/35
f 30/38/38 44/57/57 29/33/33
f 38/36/36 52/58/58 37/35/35
f 31/48/48 45/59/59 30/38/38
f 43/54/54 57/60/60 42/52/52
f 51/61/61 65/62/62 50/56/56
f 59/63/63 43/54/54 44/57/57
f 52/58/58 66/64/64 51/61/61
f 45/59/59 59/63/63 44/57/57
f 53/46/46 67/65/65 52/58/58
f 46/66/66 60/67/67 45/59/59
f 39/45/45 54/68/68 1/16/16
f 8/17/17 68/69/69 53/46/46
f 62/70/70 46/66/66 47/47/47
f 55/71/71 39/45/45 40/49/49
f 63/72/72 47/47/47 48/50/50
f 56/73/73 40/49/49 41/74/74
f 49/53/53 63/72/72 48/50/50
f 57/60/60 41/74/74 42/52/52
f 65/62/62 49/53/53 50/56/56
f 77/75/75 61/76/76 62/70/70
f 55/71/71 69/77/77 54/68/68
f 78/78/78 62/70/70 63/72/72
f 56/73/73 70/79/79 55/71/71
f 64/80/80 78/78/78 63/72/72
f 57/60/60 71/81/81 56/73/73
f 80/82/82 64/80/80 65/62/62
f 58/83/83 72/84/84 57/60/60
f 81/85/85 65/62/62 66/64/64
f 74/86/86 58/83/83 59/63/63
f 82/87/87 66/64/64 67/65/65
f 60/67/67 74/86/86 59/63/63
f 83/88/88 67/65/65 68/69/69
f 61/76/76 75/89/89 60/67/67
f 54/68/68 69/77/77 1/16/16
f 8/17/17 83/88/88 68/69/69
f 81/85/85 95/90/90 80/82/82
f 89/91/91 73/92/92 74/86/86
f 82/87/87 96/93/93 81/85/85
f 75/89/89 89/91/91 74/86/86
f 83/88/88 97/94/94 82/87/87
f 76/95/95 90/96/96 75/89/89
f 69/77/77 84/97/97 1/16/16
f 8/17/17 98/98/98 83/88/88
f 92/99/99 76/95/95 77/75/75
f 85/100/100 69/77/77 70/79/79
f 93/101/101 77/75/75 78/78/78
f 86/102/102 70/79/79 71/81/81
f 79/103/103 93/101/101 78/78/78
f 87/104/104 71/81/81 72/84/84
f 95/90/90 79/103/103 80/82/82
f 73/92/92 87/104/104 72/84/84
f 108/105/105 92/99/99 93/101/101
f 101/106/106 85/100/100 86/102/102
f 94/107/107 108/105/105 93/101/101
f 102/108/108 86/102/102 87/104/104
f 110/109/109 94/107/107 95/90/90
f 88/110/110 102/108/108 87/104/104
f 96/93/93 110/109/109 95/90/90
f 104/111/111 88/110/110 89/91/91
f 97/94/94 111/112/112 96/93/93
f 90/96/96 104/111/111 89/91/91
f 113/113/113 97/94/94 98/98/98
f 106/114/114 90/96/96 91/115/115
f 84/97/97 99/116/116 1/16/16
f 8/17/17 113/113/113 98/98/98
f 92/99/99 106/114/114 91/115/115
f 85/100/100 99/116/116 84/97/97
f 127/117/117 111/112/112 112/118/118
f 105/119/119 119/120/120 104/111/111
f 128/121/121 112/118/118 113/113/113
f 106/114/114 120/122/122 105/119/119
f 99/116/116 114/123/123 1/16/16
f 8/17/17 128/121/121 113/113/113
f 122/124/124 106/114/114 107/125/125
f 115/126/126 99/116/116 100/127/127
f 123/128/128 107/125/125 108/105/105
f 101/106/106 115/126/126 100/127/127
f 109/129/129 123/128/128 108/105/105
f 117/130/130 101/106/106 102/108/108
f 125/131/131 109/129/129 110/109/109
f 103/132/132 117/130/130 102/108/108
f 111/112/112 125/131/131 110/109/109
f 119/120/120 103/132/132 104/111/111
f 158/133/133 142/134/134 143/135/135
f 136/136/136 150/137/137 135/138/138
f 129/139/139 144/140/140 1/16/16
f 8/17/17 158/133/133 143/135/135
f 152/141/141 136/136/136 137/142/142
f 130/143/143 144/140/140 129/139/139
f 153/144/144 137/142/142 138/145/145
f 131/146/146 145/147/147 130/143/143
f 139/148/148 153/144/144 138/145/145
f 147/149/149 131/146/146 132/150/150
f 155/151/151 139/148/148 140/152/152
f 133/153/153 147/149/149 132/150/150
f 141/154/154 155/151/151 140/152/152
f 149/155/155 133/153/153 134/156/156
f 157/157/157 141/154/154 142/134/134
f 135/138/138 149/155/155 134/156/156
f 170/158/158 154/159/159 155/151/151
f 148/160/160 162/161/161 147/149/149
f 156/162/162 170/158/158 155/151/151
f 164/163/163 148/160/160 149/155/155
f 172/164/164 156/162/162 157/157/157
f 150/137/137 164/163/163 149/155/155
f 173/165/165 157/157/157 158/133/133
f 151/166/166 165/167/167 150/137/137
f 144/140/140 159/168/168 1/16/16
f 8/17/17 173/165/165 158/133/133
f 167/169/169 151/166/166 152/141/141
f 160/170/170 144/140/140 145/147/147
f 168/171/171 152/141/141 153/144/144
f 146/172/172 160/170/170 145/147/147
f 154/159/159 168/171/171 153/144/144
f 162/161/161 146/172/172 147/149/149
f 159/168/168 174/173/173 1/16/16
f 8/17/17 188/174/174 173/165/165
f 182/175/175 166/176/176 167/169/169
f 175/177/177 159/168/168 160/170/170
f 183/178/178 167/169/169 168/171/171
f 161/179/179 175/177/177 160/170/170
f 169/180/180 183/178/178 168/171/171
f 177/181/181 161/179/179 162/161/161
f 185/182/182 169/180/180 170/158/158
f 163/183/183 177/181/181 162/161/161
f 171/184/184 185/182/182 170/158/158
f 179/185/185 163/183/183 164/163/163
f 187/186/186 171/184/184 172/164/164
f 165/167/167 179/185/185 164/163/163
f 173/165/165 187/186/186 172/164/164
f 166/176/176 180/187/187 165/167/167
f 178/188/188 192/189/189 177/181/181
f 186/190/190 200/191/191 185/182/182
f 194/192/192 178/188/188 179/185/185
f 202/193/193 186/190/190 187/186/186
f 180/187/187 194/192/192 179/185/185
f 203/194/194 187/186/186 188/174/174
f 181/195/195 195/196/196 180/187/187
f 174/173/173 189/197/197 1/16/16
f 8/17/17 203/194/194 188/174/174
f 197/198/198 181/195/195 182/175/175
f 175/177/177 189/197/197 174/173/173
f 198/199/199 182/175/175 183/178/178
f 176/200/200 190/201/201 175/177/177
f 184/202/202 198/199/199 183/178/178
f 192/189/189 176/200/200 177/181/181
f 200/191/191 184/202/202 185/182/182
f 212/203/203 196/204/204 197/198/198
f 205/205/205 189/197/197 190/201/201
f 213/206/206 197/198/198 198/199/199
f 191/207/207 205/205/205 190/201/201
f 199/208/208 213/206/206 198/199/199
f 207/209/209 191/207/207 192/189/189
f 215/210/210 199/208/208 200/191/191
f 193/211/211 207/209/209 192/189/189
f 201/212/212 215/210/210 200/191/191
f 209/213/213 193/211/211 194/192/192
f 217/214/214 201/212/212 202/193/193
f 195/196/196 209/213/213 194/192/192
f 203/194/194 217/214/214 202/193/193
f 196/204/204 210/215/215 195/196/196
f 189/197/197 204/216/216 1/16/16
f 8/17/17 218/217/217 203/194/194
f 216/218/218 230/219/219 215/210/210
f 224/220/220 208/221/221 209/213/213
f 232/222/222 216/218/218 217/214/214
f 210/215/215 224/220/220 209/213/213
f 233/223/223 217/214/214 218/217/217
f 211/224/224 225/225/225 210/215/215
f 204/216/216 219/226/226 1/16/16
f 8/17/17 233/223/223 218/217/217
f 227/227/227 211/224/224 212/203/203
f 205/205/205 219/226/226 204/216/216
f 228/228/228 212/203/203 213/206/206
f 206/229/229 220/230/230 205/205/205
f 214/231/231 228/228/228 213/206/206
f 222/232/232 206/229/229 207/209/209
f 230/219/219 214/231/231 215/210/210
f 208/221/221 222/232/232 207/209/209
f 235/233/233 219/226/226 220/230/230
f 243/234/234 227/227/227 228/228/228
f 221/235/235 235/233/233 220/230/230
f 229/236/236 243/234/234 228/228/228
f 237/237/237 221/235/235 222/232/232
f 245/238/238 229/236/236 230/219/219
f 223/239/239 237/237/237 222/232/232
f 231/240/240 245/238/238 230/219/219
f 239/241/241 223/239/239 224/220/220
f 247/242/242 231/240/240 232/222/222
f 225/225/225 239/241/241 224/220/220
f 233/223/223 247/242/242 232/222/222
f 226/243/243 240/244/244 225/225/225
f 219/226/226 234/245/245 1/16/16
f 8/17/17 248/246/246 233/223/223
f 242/247/247 226/243/243 227/227/227
f 239/241/241 3/6/6 238/248/248
f 256/8/8 246/249/249 247/242/242
f 240/244/244 252/4/4 239/241/241
f 257/12/12 247/242/242 248/246/246
f 241/250/250 4/10/10 240/244/244
f 234/245/245 249/14/14 1/16/16
f 8/17/17 257/12/12 248/246/246
f 6/19/19 241/250/250 242/247/247
f 235/233/233 249/14/14 234/245/245
f 253/21/21 242/247/247 243/234/234
f 236/251/251 250/20/20 235/233/233
f 7/25/25 243/234/234 244/252/252
f 237/237/237 2/22/22 236/251/251
f 254/2/2 244/252/252 245/238/238
f 238/248/248 251/26/26 237/237/237
f 246/249/249 254/2/2 245/238/238
f 21/1/1 20/28/28 254/2/2
f 252/4/4 14/34/34 13/5/5
f 22/7/7 21/1/1 255/3/3
f 15/9/9 14/34/34 252/4/4
f 23/11/11 22/7/7 256/8/8
f 5/13/13 16/37/37 15/9/9
f 17/18/18 16/37/37 5/13/13
f 250/20/20 10/23/23 9/15/15
f 253/21/21 18/42/42 17/18/18
f 2/22/22 11/27/27 10/23/23
f 19/24/24 18/42/42 253/21/21
f 251/26/26 12/31/31 11/27/27
f 20/28/28 19/24/24 7/25/25
f 13/5/5 12/31/31 251/26/26
f 20/28/28 35/32/32 34/29/29
f 28/30/30 27/44/44 12/31/31
f 21/1/1 36/55/55 35/32/32
f 29/33/33 28/30/30 13/5/5
f 37/35/35 36/55/55 21/1/1
f 15/9/9 30/38/38 29/33/33
f 38/36/36 37/35/35 22/7/7
f 16/37/37 31/48/48 30/38/38
f 32/40/40 31/48/48 16/37/37
f 10/23/23 25/43/43 24/39/39
f 33/41/41 32/40/40 17/18/18
f 11/27/27 26/51/51 25/43/43
f 19/24/24 34/29/29 33/41/41
f 27/44/44 26/51/51 11/27/27
f 47/47/47 46/66/66 31/48/48
f 40/49/49 39/45/45 24/39/39
f 48/50/50 47/47/47 32/40/40
f 26/51/51 41/74/74 40/49/49
f 34/29/29 49/53/53 48/50/50
f 42/52/52 41/74/74 26/51/51
f 35/32/32 50/56/56 49/53/53
f 43/54/54 42/52/52 27/44/44
f 36/55/55 51/61/61 50/56/56
f 44/57/57 43/54/54 28/30/30
f 52/58/58 51/61/61 36/55/55
f 30/38/38 45/59/59 44/57/57
f 38/36/36 53/46/46 52/58/58
f 31/48/48 46/66/66 45/59/59
f 43/54/54 58/83/83 57/60/60
f 51/61/61 66/64/64 65/62/62
f 59/63/63 58/83/83 43/54/54
f 52/58/58 67/65/65 66/64/64
f 45/59/59 60/67/67 59/63/63
f 53/46/46 68/69/69 67/65/65
f 46/66/66 61/76/76 60/67/67
f 62/70/70 61/76/76 46/66/66
f 55/71/71 54/68/68 39/45/45
f 63/72/72 62/70/70 47/47/47
f 56/73/73 55/71/71 40/49/49
f 49/53/53 64/80/80 63/72/72
f 57/60/60 56/73/73 41/74/74
f 65/62/62 64/80/80 49/53/53
f 77/75/75 76/95/95 61/76/76
f 55/71/71 70/79/79 69/77/77
f 78/78/78 77/75/75 62/70/70
f 56/73/73 71/81/81 70/79/79
f 64/80/80 79/103/103 78/78/78
f 57/60/60 72/84/84 71/81/81
f 80/82/82 79/103/103 64/80/80
f 58/83/83 73/92/92 72/84/84
f 81/85/85 80/82/82 65/62/62
f 74/86/86 73/92/92 58/83/83
f 82/87/87 81/85/85 66/64/64
f 60/67/67 75/89/89 74/86/86
f 83/88/88 82/87/87 67/65/65
f 61/76/76 76/95/95 75/89/89
f 81/85/85 96/93/93 95/90/90
f 89/91/91 88/110/110 73/92/92
f 82/87/87 97/94/94 96/93/93
f 75/89/89 90/96/96 89/91/91
f 83/88/88 98/98/98 97/94/94
f 76/95/95 91/115/115 90/96/96
f 92/99/99 91/115/115 76/95/95
f 85/100/100 84/97/97 69/77/77
f 93/101/101 92/99/99 77/75/75
f 86/102/102 85/100/100 70/79/79
f 79/103/103 94/107/107 93/101/101
f 87/104/104 86/102/102 71/81/81
f 95/90/90 94/107/107 79/103/103
f 73/92/92 88/110/110 87/104/104
f 108/105/105 107/125/125 92/99/99
f 101/106/106 100/127/127 85/100/100
f 94/107/107 109/129/129 108/105/105
f 102/108/108 101/106/106 86/102/102
f 110/109/109 109/129/129 94/107/107
f 88/110/110 103/132/132 102/108/108
f 96/93/93 111/112/112 110/109/109
f 104/111/111 103/132/132 88/110/110
f 97/94/94 112/118/118 111/112/112
f 90/96/96 105/119/119 104/111/111
f 113/113/113 112/118/118 97/94/94
f 106/114/114 105/119/119 90/96/96
f 92/99/99 107/125/125 106/114/114
f 85/100/100 100/127/127 99/116/116
f 127/117/117 126/253/253 111/112/112
f 105/119/119 120/122/122 119/120/120
f 128/121/121 127/117/117 112/118/118
f 106/114/114 121/254/254 120/122/122
f 122/124/124 121/254/254 106/114/114
f 115/126/126 114/123/123 99/116/116
f 123/128/128 122/124/124 107/125/125
f 101/106/106 116/255/255 115/126/126
f 109/129/129 124/256/256 123/128/128
f 117/130/130 116/255/255 101/106/106
f 125/131/131 124/256/256 109/129/129
f 103/132/132 118/257/257 117/130/130
f 111/112/112 126/253/253 125/131/131
f 119/120/120 118/257/257 103/132/132
f 158/133/133 157/157/157 142/134/134
f 136/136/136 151/166/166 150/137/137
f 152/141/141 151/166/166 136/136/136
f 130/143/143 145/147/147 144/140/140
f 153/144/144 152/141/141 137/142/142
f 131/146/146 146/172/172 145/147/147
f 139/148/148 154/159/159 153/144/144
f 147/149/149 146/172/172 131/146/146
f 155/151/151 154/159/159 139/148/148
f 133/153/153 148/160/160 147/149/149
f 141/154/154 156/162/162 155/151/151
f 149/155/155 148/160/160 133/153/153
f 157/157/157 156/162/162 141/154/154
f 135/138/138 150/137/137 149/155/155
f 170/158/158 169/180/180 154/159/159
f 148/160/160 163/183/183 162/161/161
f 156/162/162 171/184/184 170/158/158
f 164/163/163 163/183/183 148/160/160
f 172/164/164 171/184/184 156/162/162
f 150/137/137 165/167/167 164/163/163
f 173/165/165 172/164/164 157/157/157
f 151/166/166 166/176/176 165/167/167
f 167/169/169 166/176/176 151/166/166
f 160/170/170 159/168/168 144/140/140
f 168/171/171 167/169/169 152/141/141
f 146/172/172 161/179/179 160/170/170
f 154/159/159 169/180/180 168/171/171
f 162/161/161 161/179/179 146/172/172
f 182/175/175 181/195/195 166/176/176
f 175/177/177 174/173/173 159/168/168
f 183/178/178 182/175/175 167/169/169
f 161/179/179 176/200/200 175/177/177
f 169/180/180 184/202/202 183/178/178
f 177/181/181 176/200/200 161/179/179
f 185/182/182 184/202/202 169/180/180
f 163/183/183 178/188/188 177/181/181
f 171/184/184 186/190/190 185/182/182
f 179/185/185 178/188/188 163/183/183
f 187/186/186 186/190/190 171/184/184
f 165/167/167 180/187/187 179/185/185
f 173/165/165 188/174/174 187/186/186
f 166/176/176 181/195/195 180/187/187
f 178/188/188 193/211/211 192/189/189
f 186/190/190 201/212/212 200/191/191
f 194/192/192 193/211/211 178/188/188
f 202/193/193 201/212/212 186/190/190
f 180/187/187 195/196/196 194/192/192
f 203/194/194 202/193/193 187/186/186
f 181/195/195 196/204/204 195/196/196
f 197/198/198 196/204/204 181/195/195
f 175/177/177 190/201/201 189/197/197
f 198/199/199 197/198/198 182/175/175
f 176/200/200 191/207/207 190/201/201
f 184/202/202 199/208/208 198/199/199
f 192/189/189 191/207/207 176/200/200
f 200/191/191 199/208/208 184/202/202
f 212/203/203 211/224/224 196/204/204
f 205/205/205 204/216/216 189/197/197
f 213/206/206 212/203/203 197/198/198
f 191/207/207 206/229/229 205/205/205
f 199/208/208 214/231/231 213/206/206
f 207/209/209 206/229/229 191/207/207
f 215/210/210 214/231/231 199/208/208
f 193/211/211 208/221/221 207/209/209
f 201/212/212 216/218/218 215/210/210
f 209/213/213 208/221/221 193/211/211
f 217/214/214 216/218/218 201/212/212
f 195/196/196 210/215/215 209/213/213
f 203/194/194 218/217/217 217/214/214
f 196/204/204 211/224/224 210/215/215
f 216/218/218 231/240/240 230/219/219
f 224/220/220 223/239/239 208/221/221
f 232/222/222 231/240/240 216/218/218
f 210/215/215 225/225/225 224/220/220
f 233/223/223 232/222/222 217/214/214
f 211/224/224 226/243/243 225/225/225
f 227/227/227 226/243/243 211/224/224
f 205/205/205 220/230/230 219/226/226
f 228/228/228 227/227/227 212/203/203
f 206/229/229 221/235/235 220/230/230
f 214/231/231 229/236/236 228/228/228
f 222/232/232 221/235/235 206/229/229
f 230/219/219 229/236/236 214/231/231
f 208/221/221 223/239/239 222/232/232
f 235/233/233 234/245/245 219/226/226
f 243/234/234 242/247/247 227/227/227
f 221/235/235 236/251/251 235/233/233
f 229/236/236 244/252/252 243/234/234
f 237/237/237 236/251/251 221/235/235
f 245/238/238 244/252/252 229/236/236
f 223/239/239 238/248/248 237/237/237
f 231/240/240 246/249/249 245/238/238
f 239/241/241 238/248/248 223/239/239
f 247/242/242 246/249/249 231/240/240
f 225/225/225 240/244/244 239/241/241
f 233/223/223 248/246/246 247/242/242
f 226/243/243 241/250/250 240/244/244
f 242/247/247 241/250/250 226/243/243
f 239/241/241 252/4/4 3/6/6
f 256/8/8 255/3/3 246/249/249
f 240/244/244 4/10/10 252/4/4
f 257/12/12 256/8/8 247/242/242
f 241/250/250 5/13/13 4/10/10
f 6/19/19 5/13/13 241/250/250
f 235/233/233 250/20/20 249/14/14
f 253/21/21 6/19/19 242/247/247
f 236/251/251 2/22/22 250/20/20
f 7/25/25 253/21/21 243/234/234
f 237/237/237 251/26/26 2/22/22
f 254/2/2 7/25/25 244/252/252
f 238/248/248 3/6/6 251/26/26
f 246/249/249 255/3/3 254/2/2
